<svg width="48" height="48" xmlns="http://www.w3.org/2000/svg" stroke="#ffffff" fill="#ffffff" xml:space="preserve" enable-background="new 0 0 64 64" version="1.0">

 <g>
  <title>Layer 1</title>
  <g stroke-width="0" id="SVGRepo_bgCarrier"/>
  <g stroke-linejoin="round" stroke-linecap="round" id="SVGRepo_tracerCarrier"/>
  <g stroke="null" id="SVGRepo_iconCarrier">
   <path stroke="null" id="svg_1" d="m24,1.75757c-9.21253,0 -16.68182,7.46928 -16.68182,16.68182c0,3.6276 1.18927,6.95632 3.16607,9.68241c0.03545,0.06534 0.04101,0.13832 0.08132,0.20088l11.12121,16.68182c0.51575,0.77362 1.38459,1.23793 2.31321,1.23793s1.79747,-0.46431 2.31321,-1.23793l11.12121,-16.68182c0.04101,-0.06256 0.04588,-0.13554 0.08132,-0.20088c1.9768,-2.72609 3.16607,-6.05481 3.16607,-9.68241c0,-9.21253 -7.46928,-16.68182 -16.68182,-16.68182zm0,22.24242c-3.07084,0 -5.56061,-2.48976 -5.56061,-5.56061s2.48976,-5.56061 5.56061,-5.56061s5.56061,2.48976 5.56061,5.56061s-2.48976,5.56061 -5.56061,5.56061z" fill="#ffffff"/>
  </g>
 </g>
</svg>