<?xml version="1.0" standalone="no"?>
<!DOCTYPE svg PUBLIC "-//W3C//DTD SVG 20010904//EN"
 "http://www.w3.org/TR/2001/REC-SVG-20010904/DTD/svg10.dtd">
<svg version="1.0" xmlns="http://www.w3.org/2000/svg"
 width="2000.000000pt" height="1456.000000pt" viewBox="0 0 2000.000000 1456.000000"
 preserveAspectRatio="xMidYMid meet">

<g transform="translate(0.000000,1456.000000) scale(0.100000,-0.100000)"
fill="#000000" stroke="none">
<path d="M10265 12564 c-16 -2 -77 -9 -135 -15 -234 -24 -537 -99 -757 -185
-142 -55 -394 -180 -522 -258 -736 -448 -1269 -1202 -1445 -2041 -51 -246 -60
-348 -60 -670 0 -261 3 -319 23 -445 32 -208 66 -352 126 -535 279 -852 899
-1540 1721 -1908 767 -344 1664 -366 2439 -60 690 273 1228 736 1609 1386 172
293 312 685 370 1042 61 365 55 786 -15 1140 -227 1142 -1055 2066 -2164 2414
-309 97 -537 132 -895 136 -146 2 -278 1 -295 -1z m645 -414 c158 -23 376 -75
509 -122 96 -34 292 -116 304 -128 5 -4 -248 -361 -561 -794 -314 -432 -576
-802 -582 -822 -14 -42 -9 -87 16 -139 11 -24 163 -171 448 -433 237 -218 454
-419 484 -447 l53 -50 -166 -730 c-119 -521 -165 -740 -161 -765 12 -77 94
-152 181 -165 32 -5 51 -1 95 22 30 16 312 224 625 463 536 408 585 448 830
677 142 133 261 240 263 238 2 -2 -4 -41 -13 -87 -70 -357 -212 -698 -418
-1008 -323 -487 -833 -885 -1378 -1075 -312 -109 -596 -156 -934 -156 -450 1
-865 98 -1245 292 -140 72 -316 182 -313 197 1 6 204 370 450 809 432 772 447
800 451 859 6 84 -13 118 -112 208 -231 208 -1722 1499 -1742 1508 -13 6 -24
18 -24 26 0 43 234 439 334 565 13 17 52 -1 648 -315 620 -326 634 -333 698
-336 53 -3 73 1 109 20 85 44 79 -2 117 875 19 427 35 778 37 779 5 5 245 43
337 53 141 16 494 6 660 -19z m-1403 -272 c-3 -62 -14 -296 -23 -520 l-18
-408 -60 34 c-34 18 -227 120 -431 226 -203 107 -372 195 -374 197 -8 6 64 75
164 156 116 94 298 216 423 284 101 55 291 142 311 143 12 0 13 -20 8 -112z
m2782 -346 c135 -112 332 -319 436 -456 296 -395 480 -850 541 -1336 24 -197
26 -192 -58 -269 -40 -36 -223 -207 -408 -380 -297 -278 -370 -340 -645 -550
-400 -306 -386 -295 -380 -279 17 49 225 988 225 1017 0 87 -22 111 -505 560
-293 271 -453 426 -448 434 4 7 238 328 521 715 l514 702 53 -37 c29 -21 98
-76 154 -121z m-3698 -2068 c415 -360 767 -668 783 -684 l29 -28 -377 -680
c-207 -373 -382 -687 -389 -696 -12 -16 -24 -6 -118 91 -134 139 -221 247
-324 403 -186 281 -294 520 -375 832 -69 267 -85 403 -84 708 0 228 3 284 23
400 28 167 60 310 70 310 4 0 347 -295 762 -656z"/>
<path d="M9897 5663 c-4 -3 -7 -534 -7 -1180 l0 -1173 105 0 105 0 0 155 c0
85 3 155 8 155 4 0 27 -25 52 -56 136 -171 346 -264 596 -264 239 0 435 78
588 236 224 229 295 584 184 923 -78 239 -279 428 -533 502 -69 20 -102 24
-240 24 -140 0 -169 -3 -235 -23 -141 -44 -267 -126 -351 -227 -19 -23 -38
-43 -42 -45 -5 -3 -8 209 -7 471 0 261 -2 483 -6 492 -5 14 -22 17 -108 17
-57 0 -106 -3 -109 -7z m1021 -895 c162 -43 291 -153 370 -313 86 -174 85
-455 -2 -622 -79 -152 -204 -259 -360 -309 -66 -21 -99 -25 -195 -25 -78 0
-134 6 -171 17 -216 64 -369 224 -427 444 -20 77 -22 264 -5 355 14 71 76 203
121 260 151 187 412 263 669 193z"/>
<path d="M17480 5181 c0 -269 -4 -492 -8 -495 -5 -3 -24 15 -43 40 -75 100
-228 200 -369 240 -102 30 -357 27 -465 -5 -110 -32 -220 -91 -307 -165 -70
-60 -157 -171 -191 -246 -56 -120 -87 -267 -87 -410 0 -270 111 -511 305 -667
145 -116 316 -173 519 -173 263 0 458 92 619 290 l37 45 0 -162 0 -163 105 0
105 0 -2 1178 -3 1177 -107 3 -108 3 0 -490z m-450 -408 c112 -26 236 -105
311 -198 45 -57 107 -189 121 -260 17 -91 15 -278 -5 -355 -58 -220 -211 -380
-427 -444 -37 -11 -93 -17 -171 -17 -96 0 -129 4 -196 26 -307 96 -479 429
-407 781 46 223 201 399 408 461 110 34 239 36 366 6z"/>
<path d="M4342 4975 c-89 -16 -196 -48 -269 -81 -67 -29 -193 -112 -193 -126
0 -5 21 -45 47 -88 l46 -78 57 39 c150 102 305 151 485 152 137 1 204 -12 288
-56 72 -38 120 -91 160 -176 30 -62 32 -73 32 -186 l0 -120 -370 -6 c-406 -7
-414 -8 -551 -73 -158 -75 -244 -214 -244 -396 0 -183 93 -327 265 -410 104
-50 204 -70 353 -70 216 0 356 52 483 179 l79 79 0 -124 0 -124 111 0 110 0
-4 593 c-4 653 -3 648 -69 786 -66 138 -221 249 -402 285 -95 19 -310 20 -414
1z m658 -1033 l0 -148 -36 -60 c-105 -175 -267 -256 -509 -255 -123 0 -181 14
-263 61 -166 96 -188 338 -41 464 84 71 160 83 562 85 l287 1 0 -148z"/>
<path d="M6330 4976 c-170 -31 -309 -104 -431 -226 -75 -74 -94 -101 -138
-191 -65 -134 -84 -219 -83 -379 0 -149 22 -244 81 -365 75 -151 196 -271 346
-344 132 -65 209 -83 381 -88 131 -5 161 -3 234 16 156 39 260 99 372 215 l68
70 0 -149 c0 -218 -25 -331 -98 -443 -88 -135 -229 -200 -456 -209 -250 -11
-481 52 -661 181 -27 20 -53 36 -56 36 -4 0 -31 -37 -60 -81 l-53 -82 36 -31
c198 -170 611 -263 942 -210 268 43 446 160 540 357 91 190 98 272 94 1207
l-3 715 -107 3 -108 3 0 -151 c0 -82 -3 -150 -7 -150 -5 1 -20 18 -35 40 -64
92 -230 201 -368 240 -97 27 -320 36 -430 16z m385 -201 c138 -37 278 -133
353 -245 173 -259 111 -652 -130 -823 -86 -61 -129 -81 -227 -106 -347 -87
-688 85 -783 395 -31 103 -31 283 0 380 26 80 77 172 125 223 49 51 163 128
226 152 131 50 302 59 436 24z"/>
<path d="M8365 4970 c-169 -36 -325 -102 -408 -173 l-37 -32 48 -77 c26 -43
51 -78 55 -78 4 0 35 18 68 41 74 50 145 82 258 116 115 34 320 37 418 5 89
-28 148 -66 192 -123 63 -79 83 -144 85 -279 l1 -115 -370 -6 c-405 -7 -426
-9 -553 -72 -94 -46 -155 -105 -199 -195 -38 -76 -38 -76 -38 -201 0 -122 1
-128 33 -194 60 -121 164 -204 327 -259 63 -21 88 -23 245 -23 163 1 180 3
257 28 100 34 186 90 258 169 l55 61 0 -126 0 -127 111 0 111 0 -4 588 c-5
557 -6 591 -26 663 -62 229 -215 369 -451 413 -116 22 -321 20 -436 -4z m685
-1021 c0 -140 0 -142 -32 -203 -18 -33 -58 -86 -88 -117 -103 -104 -234 -151
-423 -151 -163 1 -268 39 -342 124 -95 112 -85 289 23 390 88 83 160 95 570
97 l292 1 0 -141z"/>
<path d="M12570 4984 c-292 -56 -503 -215 -621 -469 -82 -176 -98 -438 -37
-633 83 -269 291 -475 560 -553 101 -29 312 -37 425 -16 344 65 602 328 658
667 51 318 -35 599 -243 791 -105 96 -210 154 -358 195 -58 16 -327 29 -384
18z m237 -194 c102 -13 175 -38 250 -86 194 -124 293 -335 281 -598 -14 -299
-186 -523 -453 -591 -97 -25 -258 -20 -352 10 -231 74 -379 249 -420 498 -45
277 59 538 270 676 72 47 154 77 242 90 85 12 91 12 182 1z"/>
<path d="M14700 4976 c-181 -42 -327 -129 -413 -247 l-32 -44 -5 145 -5 145
-107 3 -108 3 0 -836 0 -835 115 0 114 0 3 518 3 517 28 79 c33 94 83 172 143
225 164 144 452 185 651 92 109 -51 177 -129 225 -257 22 -58 23 -68 26 -616
l3 -558 114 0 115 0 0 518 c0 544 -6 630 -48 754 -42 126 -146 255 -252 315
-30 18 -91 44 -135 59 -70 24 -98 27 -230 30 -98 2 -169 -1 -205 -10z"/>
<path d="M1997 4973 c-4 -7 626 -1439 708 -1611 l25 -53 115 3 116 3 73 165
c40 91 205 460 365 820 161 360 295 661 298 668 4 10 -19 12 -107 10 l-112 -3
-312 -699 c-171 -384 -315 -698 -320 -698 -5 1 -53 101 -107 224 -54 123 -192
437 -307 698 l-209 475 -111 3 c-61 1 -112 -1 -115 -5z"/>
</g>
</svg>
