<?xml version="1.0" standalone="no"?>
<!DOCTYPE svg PUBLIC "-//W3C//DTD SVG 20010904//EN"
 "http://www.w3.org/TR/2001/REC-SVG-20010904/DTD/svg10.dtd">
<svg version="1.0" xmlns="http://www.w3.org/2000/svg"
 width="60px" height="60px" viewBox="0 0 2000.000000 2000.000000"
 preserveAspectRatio="xMidYMid meet">

<g transform="translate(0.000000,2000.000000) scale(0.100000,-0.100000)"
fill="#ad3dd4" stroke="none">
<path d="M9735 16144 c-27 -2 -122 -8 -210 -14 -971 -65 -1973 -398 -2825
-938 -666 -422 -1238 -967 -1717 -1633 -510 -710 -894 -1626 -1037 -2475 -69
-407 -91 -666 -91 -1084 0 -625 69 -1122 236 -1705 282 -989 819 -1901 1548
-2633 824 -825 1827 -1384 2976 -1655 257 -61 607 -115 910 -139 206 -16 744
-16 950 0 634 51 1217 186 1805 420 1193 473 2223 1327 2912 2412 426 671 737
1471 862 2216 69 407 91 666 91 1084 0 625 -69 1122 -236 1705 -285 999 -825
1912 -1571 2656 -811 808 -1815 1363 -2953 1633 -245 58 -612 114 -890 136
-134 11 -671 21 -760 14z m645 -775 c628 -42 1237 -196 1842 -466 l148 -66
-18 -27 c-9 -15 -501 -694 -1092 -1508 -591 -815 -1088 -1507 -1105 -1539 -27
-52 -30 -68 -30 -149 0 -87 2 -95 40 -170 l40 -79 855 -788 c470 -433 892
-823 937 -865 l82 -77 -199 -870 c-464 -2025 -442 -1925 -438 -1995 7 -129 98
-254 233 -321 62 -30 78 -34 151 -34 76 0 88 3 160 40 55 28 422 302 1194 890
l1115 849 470 440 c259 241 489 457 512 479 30 29 41 35 38 21 -3 -10 -14 -71
-25 -134 -168 -927 -617 -1843 -1259 -2565 -935 -1051 -2192 -1681 -3591
-1801 -226 -19 -654 -19 -880 0 -702 60 -1365 247 -1995 563 -204 103 -595
341 -595 362 0 6 388 702 862 1548 500 894 869 1562 880 1596 40 129 14 277
-64 371 -21 24 -442 397 -935 828 -494 431 -1261 1100 -1705 1488 -570 498
-826 715 -870 738 -43 23 -62 39 -60 50 8 36 157 334 243 484 140 245 415 648
442 648 6 0 18 -6 26 -14 30 -26 2352 -1239 2417 -1262 51 -19 85 -24 158 -24
145 0 219 30 283 114 66 86 59 5 129 1566 35 789 63 1463 62 1497 -1 35 1 66
4 69 3 3 76 18 162 34 461 87 895 112 1376 79z m-2347 -1071 c-18 -398 -38
-849 -45 -1004 l-13 -281 -838 441 c-460 243 -836 445 -834 451 5 16 209 197
337 299 361 290 746 525 1160 709 154 68 242 105 255 106 7 1 -1 -250 -22
-721z m5120 65 c306 -222 629 -515 890 -811 762 -863 1223 -1946 1322 -3107 8
-93 15 -175 15 -181 0 -7 -20 -25 -44 -40 -24 -16 -382 -346 -795 -732 l-751
-704 -661 -504 c-364 -277 -663 -503 -665 -501 -2 1 94 428 211 947 118 520
218 968 221 995 7 61 -15 156 -52 225 -34 63 -79 107 -1004 966 -443 411 -804
749 -804 752 3 8 2017 2762 2020 2762 2 0 46 -30 97 -67z m-6803 -4308 c828
-720 1504 -1311 1503 -1314 -1 -4 -1174 -2125 -1459 -2639 l-35 -62 -80 72
c-136 125 -371 384 -515 568 -593 756 -965 1636 -1099 2595 -59 419 -61 1004
-5 1420 26 192 87 504 131 669 l10 38 22 -20 c12 -11 699 -608 1527 -1327z"/>
</g>
</svg>
