<svg width="1000" height="600" xmlns="http://www.w3.org/2000/svg" xmlns:xlink="http://www.w3.org/1999/xlink" preserveAspectRatio="none" version="1.1">
 <defs>
  <g id="Layer0_0_FILL">
   <path id="svg_1" d="m903,79.5q-0.85,0.05 -1.3,0.05q-0.8,0.05 -1.3,-0.1q-0.6,-0.15 -1.9,-1.25q-3.6,-2.9 -7.95,-3.65q-1.15,-0.25 -1.45,-0.35q-0.85,-0.25 -1.25,-0.75q-0.3,-0.3 -0.6,-1q-0.3,-0.75 -0.55,-1.05q-1.05,-1.25 -4.05,-0.8q0.8,-0.8 0.1,-2.05q-0.4,-0.7 -1.55,-1.45q-2.95,-2.05 -4.8,-2.65q-1.8,-0.55 -3.05,0.05q-0.8,0.4 -1.7,1.45q-1.15,1.45 -1.5,1.75q-1.74512,1.60723 -5.75,1.75l0,-0.05q-0.3,-0.45 -0.8,-0.65q-0.35,0.3 -0.95,0.4q-0.1,0.05 -1.15,0.1q-1.5,0.1 -3.8,0.9q-2.9,0.95 -3.8,1.15q-1.8,0.4 -4.35,0.3q-2.9,-0.2 -4.35,-0.3q-2.95,-0.15 -10.15,0.4l-13.15,1.15q-7.65,0.6 -11.7,1.7q-1.55,0.45 -2.35,0.65q-1.4,0.4 -2.4,0.5q-1.35,0.2 -3.4,0.05q-3.2,-0.25 -3.45,-0.25q-2.05,-0.05 -4.85,0.4q-3.15,0.6 -4.75,0.85q-13.15,2.25 -26.55,-0.2q-6.7,-1.5 -10.1,-2.2q-2.95,-0.6 -8.95,-1.5l-14.65,-2.3q-8.6,-1.3 -12.95,-1.6q-1.9,-0.1 -10.1,-0.3q-6.2,-0.1 -10.05,-0.7q-4.7,-0.75 -6.95,-2.55q-1.3,-1.25 -2.05,-1.8q-0.98008,-0.77598 -1.95,-0.9l-0.1,-0.2l-0.05,0l0.05,-0.05q0.35,-0.75 -0.4,-1.3q-0.3,-0.25 -0.7,-0.2q-0.45,0 -0.65,0.3q-0.25,0.3 0.05,0.7q0.18594,0.29766 0.4,0.25q-1.82324,0.70547 -3.4,1.9q-1.4,1.2 -2.1,1.75q-1.3,1.05 -2.3,1.5q-1.45,0.6 -1.45,0.65q-0.8,0.4 -1.05,1.05q-0.2,0.5 -0.25,1.55q-0.2,0.6 -1,1.25q-1.1,0.85 -1.3,1.1q-0.5,0.65 -1.05,2.85q-0.45,1.9 -1.4,2.45q-0.65,0.35 -2.4,0.35q-3.35,0.1 -6.15,2.15q-0.45,0.35 -2.4,2.15q-1.4,1.3 -2.5,1.85q-2.05,1.05 -5.45,0.8q-3.85,-0.45 -5.75,-0.45q0.95,-3.1 -0.05,-4.35q-0.4,-0.5 -0.35,-0.75q0.05,-0.4 0.75,-0.5l5.05,-1.15q2.1,-0.5 3.1,-0.4l1.35,0.25q0.8,0.1 1.35,0.05q0.7,-0.1 1.2,-0.55q0.55,-0.55 0.45,-1.15l-0.15,-0.45q-0.05,-0.25 0,-0.45q0.1,-0.4 0.9,-0.5q1.15,-0.3 2.75,-1.5q1.95,-1.5 2.65,-1.85q0.4,-0.15 1.15,-0.45q0.65,-0.3 1,-0.65q0.35,-0.3 0.75,-0.95q0.2,-0.35 0.6,-1.1q0.75,-1.35 2.3,-2.75q0.9,-0.85 2.8,-2.4q3.6,-2.95 4.1,-5.9q0.1,-0.65 -0.3,-0.8q-0.45,-0.15 -0.7,0.8q-0.6,2.65 -4,5.4q-2.25,1.9 -2.65,2.2q-1.4,1.35 -2.2,2.6q-0.9,1.6 -1.35,2q-0.4,0.4 -1.2,0.8q-1.15,0.5 -1.35,0.6q-0.6,0.35 -1.75,1.35q-1.05,0.95 -1.75,1.3q-1.65,0.45 -2.35,0.95q-0.5,0.45 -0.6,1.1q-0.1,0.75 0.4,1.05q-0.85,0.35 -2.4,0.1q-1.85,-0.35 -2.5,-0.25q-0.6,0.1 -1.55,0.45q-1.1,0.45 -1.55,0.55q-0.55,0.15 -1.6,0.2q-1.1,0.05 -1.65,0.15q-0.85,0.2 -1.45,0.8q-0.65,0.65 -0.55,1.4q0.1,0.65 0.75,1.75q0.2,0.65 -0.05,1.65q-0.1,0.55 -0.35,1.65q-0.1,0.4 0.1,0.6q0.15,0.15 0.65,0.15q1.25,-0.1 5.15,0.35q3.2,0.4 5.05,-0.15q1.45,-0.4 3.05,-1.6q0.45,-0.35 2.7,-2.2q3.55,-2.95 6.15,-3q0.5,0 1.45,0.1q0.85,0 1.35,-0.2q1.5,-0.55 2.2,-2.9q0.75,-2.65 1.5,-3.45l1.2,-1.1q0.75,-0.6 0.85,-1.25q-0.05,-1.05 0.2,-1.5q0.2,-0.35 0.75,-0.55q0.3,-0.1 0.9,-0.3q0.9,-0.3 1.85,-1.1q0.6,-0.45 1.65,-1.45q2.1,-1.7 4.3,-2.55q0.12871,-0.05156 0.25,-0.1q0.00762,0.03809 0,0.05l0,0.2q0,0.3 0.1,0.45q0.15,0.1 0.55,0.1l0.25,-0.05q0.04863,-0.04863 0.2,-0.3q0.75156,0.14297 1.6,0.85q0.5,0.4 1.4,1.35q2,1.9 6.35,2.75q4.45,0.85 11.55,1q9.7,0.2 11.7,0.35q3.75,0.3 9.65,1.3q8.05,1.4 9.6,1.6q2.45,0.35 7.35,0.95q4.4,0.55 7.3,1.15q2.7,0.6 8.1,2q14.1,3.2 28.25,1q1.85,-0.25 5.6,-0.9q3.25,-0.5 5.6,-0.5q0.55,0 3.2,0.15q1.95,0.05 3.2,-0.05q1.75,-0.15 4.35,-0.85q3.95,-1.05 4.3,-1.15q2.55,-0.6 6.3,-0.8q2.15,-0.15 6.4,-0.35q0.45,-0.05 8.9,-0.85q5.35,-0.55 8.85,-0.4q1.45,0.05 4.3,0.25q2.5,0.15 4.25,-0.1q1.2,-0.15 5.4,-1.35q2.49023,-0.7168 4.3,-0.8q0.1,0.3 0.8,0.4q1.9,0.05 4.95,-0.8q2,-0.45 2.8,-1.4q0.3,-0.35 0.75,-1.2q0.45,-0.9 0.8,-1.25q1.65,-1.55 5.15,0.2q2.05,1.1 3.5,2.1q0.8,0.6 0.7,1.1q-0.05,0.35 -0.5,0.95q-0.2,0.55 0.45,1q0.55,0.4 1.25,0.3q1.2,-0.15 1.35,-0.15q0.75,0 1.15,0.35q0.25,0.2 0.45,0.65l0.3,0.7q0.6,1.25 2.45,1.9q0.25,0.1 3.3,0.8q2.9,0.8 5.15,2.65q1.65,1.55 2.5,1.85q0.65,0.25 1.9,0.2q1.4,-0.05 1.9,0.05q2.35,0.4 4.5,3.25q0.55,0.75 1.6,2.3q1,1.35 1.9,2.1q0.2,0.15 1.8,1.3q1.1,0.75 1.65,1.45q0.95,1.1 1.7,4.25l1.55,7.3q0.6,2.9 -0.15,4.25q-0.15,0.25 -0.6,0.85q-0.4,0.45 -0.55,0.8q-0.45,1.1 0.3,2.8q1,2.4 1.1,2.95q0.15,1 -0.25,2.35q-0.25,0.75 -0.85,2.25q-1.2,2.95 0.15,4.55q0.35,0.4 1.2,0.9q0.85,0.55 1.15,0.9q1.1,1.2 0.55,4.5q-0.55,3.35 0.3,4.6q0.3,0.35 0.95,0.9q0.7,0.6 0.95,0.9q0.7,0.8 1.2,2.85l1.3,5.05q1.05,4 1.55,7.05q0.4,2.25 0.35,4.2q0,0.55 0.25,0.65q0.33984,0.15098 0.5,-0.2q1.57637,3.66113 3.15,9.5q2.15,8.15 3.3,11.1q1.2,3 4.2,8.8q2.9,5.35 4.6,7.6q0.35,0.45 1.7,2.1q1.1,1.3 1.65,2.15q0.45,0.7 1.25,2.05q0.75,1.2 1.5,1.9q0.4,0.4 1.2,1.1q0.75,0.65 1,1.25q0.4,0.95 0.1,2.3q-0.05,0.1 -0.85,2.35q-0.85,2.45 -0.55,5.25q0.05,0.4 0.15,1.1q0.05,0.6 -0.15,1.05q-0.25,0.6 -0.2,0.8q0.1,0.45 0.65,0.4l0.05,0q0.01543,0.09609 0.05,0.2q1.15,3.55 1.45,7q0.2,2.2 0.2,7.5q0,4.75 0.4,7.45q0.15,1.1 0.6,3.45q0.45,2.25 0.6,3.45q0.3,3.2 -0.4,6.45q-0.45,1.9 -1.15,2.85q-0.35,0.5 -2.25,2.15q-0.65,0.6 -4.15,4.35q-2.5,2.7 -4.55,3.8q-1.75,0.95 -6.05,1.9q-4.1,0.85 -5.95,2.05q-1.6,1.05 -4.2,4.15q-4.9,5.95 -7.45,9.65q-1.65,2.4 -4.25,6.6l-5.05,8.2q-1.4,2.3 -1.9,3.5q-0.9,2.05 -0.9,3.8q0,1.4 0.6,2.2q0.4,0.5 1,0.65q0.6,0.2 1.1,-0.1q0.45,0.7 0.85,2.3q0.85,1.9 3.9,2.65q0.2,0.05 2.4,0.4q1.45,0.25 2.35,0.6q0.85,0.35 2.95,1.7q1.85,1.15 3.05,1.45q1.6,0.35 5.05,-0.5q0.4,2.95 1.7,3.75q0.45,0.3 2.05,0.65q1.3,0.3 1.75,0.95q0.25,0.45 0.55,1.4q0.3,0.65 1.4,1.55l3.6,3q-0.29453,0.15508 -0.25,0.6q0,0.55 0.4,0.45q1.95,1.85 2.25,4.65q0.05,0.4 0.1,1.25q0.1,0.7 0.35,1.15q0.2,0.35 0.65,1.05q0.2,0.65 -0.25,1.45q-0.65,0.9 -0.95,1.35q-0.95,1.3 -1.45,4.75l-0.5,3.95q-0.35,2.55 -0.35,3.85q-0.05,2.15 0.5,3.8q0.2,0.45 0.55,1.35q0.3,0.8 0.25,1.45q0,2 -3.25,4.05q-3.25,2.1 -3.2,4.15q0,0.65 0.4,1.55q0.45,1.25 0.55,1.55q0.3,1.15 -0.25,4.1q-0.45,2.55 0.25,3.85q0.35,0.6 1.15,1.75q0.35,0.7 0.35,2.6q0,3.4 0.65,6.45q0.2,1.15 0.75,1.55q0.4,0.25 1.3,0.25q1,-0.05 1.4,0.15q0.7,0.35 1,1.55q0.45,1.9 0.5,2.05q0.8,1.75 4.45,2.25q-0.85,0.75 -1,1.95q-0.2,1.2 0.45,2.15q0.3,0.4 0.9,1.05q0.5,0.65 0.55,1.15q0,0.6 -0.9,1.85q-1.5,1.9 -2.2,4.35q-0.65,2.4 -0.4,4.85q0.4,3.35 2.5,3.95q0.25,0.1 0.85,0.2q0.55,0.05 0.8,0.2q0.9,0.4 1.45,1.9q0.75,2.1 1,2.45q0.4,0.65 1.55,1.45q1.25,0.85 1.65,1.3q0.6,0.6 1.3,1.9q0.75,1.6 1.1,2.05q0.85,1.3 2.55,2.3q1.1,0.65 3.25,1.55q-1.9,2 -1.55,3.35q0.2,0.9 1.4,1.8q1.65,1.2 1.95,1.55q0.75,0.95 1.15,3.05l0.7,3.5q0.5,2.45 1.2,3.45q0.35,0.5 1.6,1.65q1.05,1 1.45,1.75q0.35,0.7 0.8,2.15q0.45,0.95 1.75,1.8q0.75,0.5 2.3,1.35q1.2,0.7 1.5,1.55q0.05,0.1 0.15,0.65q0.1,0.4 0.25,0.6q0.25,0.45 1.35,0.9l5.05,1.8q-3.4,0.45 -6.35,2.35q-1.3,0.9 -2.05,1.05q-1.4,0 -2.1,0.15q-1.15,0.2 -1.9,1.35q-0.65,1.1 -0.65,2.4q-0.05,1.3 0.6,2.35q0.7,1.15 1.8,1.3q1.15,0.1 1.35,0.45q0.15,0.2 0.05,0.55q-0.05,0.2 -0.2,0.55q-0.45,1.25 0.3,2.5q0.75,1.25 2.05,1.45q0.55,0.1 1.6,0.05q0.9,0.05 1.4,0.45q-1.25,3.6 0.55,4.7q0.85,0.5 0.95,0.75q0.15,0.35 -0.05,1.15q-0.05,0.65 0.6,1.1q0.03848,0.02578 0.05,0.05q-0.04102,0.08184 -0.1,0.2l-0.1,0.65q-0.05,0.65 -0.35,1.6q-0.2,0.55 -0.55,1.6q-0.35,1.4 -0.35,4q0.05,2.8 -0.2,4l-0.3,1.15q-0.3,1.25 -0.7,1.9q-0.2,0.35 -0.9,1.1q-0.6,0.65 -0.85,1.1l-1.05,1.8l-1.3,4.35q-0.07871,0.34121 -0.1,0.6q-0.30996,-0.02012 -0.55,0.1q-0.5,0.25 -0.95,1.1q0.25,0.65 0.1,1.35q-0.2,0.7 -0.75,1.15q-1.2,0.4 -3.1,0.15q-3,-0.4 -3.25,-0.4q-1.8,-0.05 -3.95,0.75q-1.3,0.45 -3.7,1.65q-3.1,1.55 -3.85,3.15q-0.15,0.35 -0.45,1.45q-0.25,0.9 -0.55,1.35q-0.35,0.6 -1.15,1.15q-0.9,0.65 -1.35,1q-1.05,0.85 -2.2,2.75q-1.4,2.3 -2,2.95q-1.1,1.2 -3.65,2.8q-2.7,1.7 -3.7,2.7q-1.25,1.25 -2.45,3.45q-1.3,2.6 -2.05,3.85q-1.45,2.5 -4.3,5.6q-3.3,3.5 -4.85,5.3q-1.75,2.2 -4.15,5.55q-7.13574,10.18711 -13.45,20.95q-0.23125,0.13125 -0.5,0.4q-0.55,0.6 -1.25,1.65q-0.7,1.2 -1.1,1.8q-0.75,1.1 -2.45,3.05q-1.75,1.95 -2.5,3q-0.4,0.6 -1.9,3.3l-2.15,4.15q-1.1,2.1 -1.55,3.2q-0.5,1.25 -1.35,3.75l-1.25,2.55q-0.5,1.25 -1.3,3.85l-1.2,2.85q-0.8,1.65 -1.4,2.5q-0.52637,0.69258 -1.15,1.15q-0.45059,-0.06035 -1,0.1q-1.2,0.35 -1.8,1.35q-1.1,1.8 -0.2,4.4q0.55,1.4 2.15,4q1.4,2.45 2.95,7.35q1.2,3.75 1.35,5.35q0.25,2.25 -0.45,6.85q-0.7,4.6 -0.45,6.9q0.45,4.4 3.75,7.8q3.25,3.4 7.65,4.05l1.15,8.3q0.3,2.05 1,2.8q0.4,0.4 1.3,1.15q0.7,0.65 0.6,1.3q-2.7,-0.6 -4.75,-2.5q-0.7,-0.7 -1.05,-1q-0.65,-0.6 -1.2,-0.9q-1.25,-0.65 -4.35,-0.3q-3,0.35 -4.3,-0.4q-0.9,-0.55 -2.45,-2.85q-1.4,-2.1 -3,-2.1q-0.5,0 -1.6,0.4q-1.05,0.35 -1.65,0.25q-0.65,-0.1 -1.4,-0.75l-1.3,-1.05q-1.15,-0.8 -3.6,-1.05q-2.8,-0.3 -3.8,-0.7q-2,-1.25 -3.15,-1.45q-0.5,-0.1 -1.3,-0.05q-1.15,0.1 -1.35,0.1q-1.25,0 -3,-0.65q-1.9,-0.8 -2.9,-1.1q-1.05,-0.35 -3.35,-0.65l-5.8,-0.85q-0.95,-0.1 -1.35,0.1q-0.3,0.2 -0.4,0.55q-0.1,0.4 0.15,0.6q0.25,0.2 0.9,0.1q2.6,-0.45 6.6,0.45q1.3,0.3 3.4,0.95q2.65,0.85 3.25,1.05q1.9,0.45 3.4,0.4q1.4,-0.1 1.85,0q0.35,0.1 0.85,0.4q0.3,0.2 0.85,0.55q1.2,0.75 4.75,1.15q3.15,0.35 4.45,1.55q0.3,0.25 0.8,0.8q0.45,0.5 0.9,0.65q0.7,0.2 2,-0.3q1.35,-0.5 1.95,-0.4q0.75,0.15 1.4,0.9q0.3,0.3 1.05,1.45q1.6,2.5 3.85,3.05q1,0.25 3.75,-0.1q2.4,-0.3 3.6,0.3q0.55,0.25 1.2,0.9q0.4,0.35 1.15,1.1q1.05,0.9 3.1,1.95q1.55,0.9 2.4,0.3q0.5,-0.4 0.4,-1.2q-0.1,-0.75 -0.6,-1.3q-1.45,-1.2 -1.9,-2q-0.3,-0.6 -0.4,-1.65l-0.8,-6.5q-0.1,-1.2 -0.55,-1.85q-0.35,-0.5 -1.95,-1.2q-5.45,-2.05 -7.55,-5.3q-2.05,-3.2 -1.6,-9.1q0.35,-3.1 0.55,-4.65q0.3,-2.8 0.2,-4.7q-0.2,-3.05 -1.7,-7.25q-1.35,-3.85 -3.4,-7.45q-1.05,-1.9 -1.35,-2.95q-0.5,-1.7 0.05,-2.95q0.25684,-0.57402 0.65,-1q0.1998,0.09297 0.6,-0.05q1.8,-0.45 2.9,-2.05q0.3,-0.5 0.95,-1.95l3.95,-9.9q1.3,-3.3 2.05,-4.9q0.95,-2.1 3.5,-6.9q1.6,-2.85 2.45,-3.9q0.85,-1 2.65,-2.85q0.25,-0.3 1.8,-2.7q1.1,-1.7 2.1,-2.45q0.5,-0.4 0.5,-0.7q0,-0.09043 -0.05,-0.2q5.88477,-9.89785 12.25,-19.25q3.3,-4.75 5.3,-7.05q0.75,-0.85 2.55,-2.7q1.65,-1.7 2.5,-2.7q2.2,-2.45 4.3,-6q0.65,-1.15 1.9,-3.45q1.1,-1.95 2.3,-3.1q1,-0.95 4.25,-3q2.75,-1.75 3.85,-3.3q0.3,-0.4 1.35,-2.35q0.8,-1.45 1.6,-2.15q0.25,-0.25 1.55,-1.1q1,-0.7 1.4,-1.3q0.35,-0.5 0.65,-1.7q0.3,-1.2 0.6,-1.7q0.65,-1.25 3.2,-2.45q2.55,-1.25 4.05,-1.7q2.35,-0.7 4.3,-0.45q0.75,0.1 2.25,0.45q1.3,0.25 2.2,0.05q2.05,-0.55 3.45,-3.8q0.27266,0.15918 0.6,0.05q0.4,-0.1 0.4,-0.4q0.05,-0.2 -0.2,-0.4q-0.2,-0.15 -0.45,-0.15q0.95,-2.5 1.25,-4.85q0.55,0 0.75,-0.6q0.15,-0.65 0.3,-1q0.3,-0.75 1.7,-1.85q0.5,-0.65 0.9,-2.25l0.3,-1.25q0.3,-1.3 0.35,-2l-0.05,-2.8q0,-2.45 0.4,-3.4q0.3,-0.75 0.35,-1.15q0.15,-0.65 0.25,-0.75q0.15,-0.1 0.45,-0.25q0.1,-0.1 0.1,-0.45l-0.1,-1.15q-0.03437,-0.27539 -0.1,-0.45q0.1498,-0.03184 0.3,-0.1q0.05,-0.45 -0.2,-0.8q-0.25,-0.4 -0.7,-0.5q0.55,-0.2 0.45,-0.9q-0.05,-0.65 -0.55,-1.1q-0.7,-0.5 -1,-0.75q-0.6,-0.45 -0.75,-0.9q-0.15,-0.55 0.3,-1.75q0.45,-1.1 0.15,-1.7q-0.3,-0.65 -1.25,-0.75q-1.2,0 -1.75,-0.05q-2.05,-0.1 -2.4,-1.65q-0.1,-0.4 0.15,-1.85q0.2,-1.1 -0.3,-1.6q-0.25,-0.2 -0.7,-0.3q-0.5,-0.1 -0.75,-0.2q-0.85,-0.25 -1.45,-1.05q-0.6,-0.8 -0.6,-1.75q0.05,-0.9 0.65,-1.7q0.65,-0.75 1.55,-0.95q0.65,-0.1 2,-0.15q0.65,-0.1 2.15,-1.2q2.3,-1.5 4.95,-1.8q1.5,-0.25 1.7,-0.75q0.3,-0.6 -0.3,-1.25q-0.5,-0.55 -1.35,-0.8l-4.75,-1.7q0.25,-1.85 -2.35,-3.4q-1.85,-1 -1.95,-1.05q-1.1,-0.7 -1.55,-1.55q-0.2,-0.4 -0.45,-1.3q-0.2,-0.85 -0.45,-1.3q-0.4,-0.65 -1.5,-1.55q-1.2,-0.95 -1.55,-1.55q-0.35,-0.6 -0.55,-1.75q-0.25,-1.35 -0.45,-1.8q-0.55,-1.15 -0.75,-1.75q-0.15,-0.5 -0.15,-1.6q0.05,-1.1 -0.15,-1.6q-0.25,-0.9 -1.15,-1.7q-0.4,-0.35 -1.7,-1.25q-1.35,-0.95 -1.35,-1.85q0,-0.55 1,-1.75q0.85,-1 0.5,-1.65q-0.25,-0.45 -1.45,-0.8q-2.9,-0.9 -4.45,-3.3q-1.25,-2.55 -2.15,-3.55q-0.45,-0.45 -1.8,-1.45q-1.25,-0.9 -1.7,-1.6q-0.15,-0.25 -1.1,-2.7q-0.6,-1.6 -1.65,-2q-0.3,-0.1 -1.1,-0.2q-0.75,-0.05 -1.1,-0.2q-1.25,-0.6 -1.35,-3.2q-0.2,-4.05 0.8,-5.95q0.55,-0.95 1.9,-2.7q1.05,-1.75 0.5,-3.05q-0.1,-0.2 -1.2,-1.7q-0.75,-1 -0.45,-1.7q0.1,-0.25 0.65,-0.85q0.4,-0.45 0.45,-0.85q0.05,-0.55 -0.45,-0.95q-0.45,-0.35 -1.05,-0.4q-0.75,-0.05 -1.15,-0.1q-0.7,-0.05 -1.1,-0.3q-0.65,-0.4 -0.95,-1.5q-0.25,-1.3 -0.5,-1.9q-0.5,-1.15 -1.7,-1.8q-1.2,-0.65 -2.4,-0.35q-0.85,-3.25 -0.85,-6.45q0,-2.8 -0.55,-3.9q-0.85,-1.2 -1.15,-1.9q-0.5,-1.15 0.05,-3.5q0.55,-2.55 0.3,-3.65q-0.1,-0.35 -0.55,-1.45q-0.35,-0.9 -0.4,-1.5q-0.1,-1.9 2.7,-3.7q1.6,-1 2.05,-1.35q1.05,-0.85 1.4,-1.85q0.4,-1.1 0,-2.65q-0.6,-1.8 -0.85,-2.7q-0.75,-2.5 -0.25,-5.2q0.1,-0.4 0.6,-2.4q0.4,-1.5 0.45,-2.45q-0.1,-1.25 -0.1,-1.9q-0.05,-1.15 0.3,-1.9q0.15,-0.35 1.6,-2.05q1,-1.2 0.75,-2.15q-0.55,-0.95 -0.8,-1.45q-0.2,-0.4 -0.45,-2.1q-0.25684,-2.35469 -1.5,-4.3q0.04766,0.04258 0.1,0.05q0.4,0.05 0.45,-0.25q0,-0.35 -0.35,-0.55l-4.85,-4.3q-1.05,-0.85 -1.4,-1.55q-0.45,-1.15 -0.8,-1.65q-0.5,-0.6 -2.4,-1.05q-1.7,-0.4 -2.05,-1.25q-0.15,-0.3 -0.2,-1q-0.05,-0.7 -0.15,-1q-0.3,-0.6 -1.05,-0.85q-0.7,-0.25 -1.45,-0.15q-1.9,0.5 -2.85,0.5q-1,0 -2.15,-0.6q-0.2,-0.1 -2,-1.2q-2.7,-1.65 -5.75,-2.15q-2.1,-0.4 -2.8,-0.65q-1.5,-0.6 -2,-1.7q-0.35,-1.15 -0.5,-1.7q-0.35,-0.95 -1,-1.1q-0.2,-0.05 -0.6,-0.05q-0.35,0.05 -0.55,-0.05q-0.5,-0.2 -0.7,-1q-0.35,-1.7 0.4,-3.65q0.5,-1.4 1.8,-3.4l9.2,-14.75q1.6,-2.6 2.55,-3.85q0.7,-0.9 2.25,-2.6q1.55,-1.7 2.25,-2.6q0.65,-0.8 1.9,-2.4q1.1,-1.4 2.1,-2.15q1.8,-1.35 5.45,-2.1q4.45,-0.95 5.75,-1.5q2.7,-1.2 5.85,-4.45q4.95,-5.1 5.25,-5.35q1.75,-1.5 2.15,-2.3q0.45,-0.8 0.65,-2.25q0.5,-2.9 0.55,-4.35q0.05,-1.85 -0.4,-4.55q-0.55,-3 -0.8,-4.5q-0.2,-1.6 -0.55,-12.25q-0.18164,-6.72129 -1.75,-11q0.08203,-0.43008 -0.1,-1.45q-0.6,-2.4 0.05,-4.95q0.8,-2.25 1.05,-3.35q0.5,-1.95 -0.15,-3.25q-0.3,-0.65 -1.1,-1.35q-0.9,-0.8 -1.3,-1.25q-0.65,-0.65 -1.4,-1.8q-0.75,-1.3 -1.2,-1.95q-0.5,-0.8 -1.5,-2q-1.2,-1.5 -1.55,-1.95q-2.1,-2.7 -5.3,-8.8q-2.45,-4.55 -3.3,-6.65q-1.5,-3.55 -3.55,-11.4q-2,-7.6 -3.7,-11.35q-0.03301,-0.08789 -0.1,-0.2q0.00723,-0.27051 -0.05,-0.6q-0.05,-0.5 -0.45,-2.05q-0.55,-2.8 -0.85,-4.2q-0.5,-3 -2,-8.4q-0.7,-2.55 -1.6,-3.55q-0.7,-0.65 -1.05,-0.95q-0.6,-0.6 -0.85,-1.15q-0.35,-0.8 -0.1,-2.05q0.4,-1.45 0.5,-2.2q0.25,-1.4 -0.3,-2.75q-0.5,-1.4 -1.6,-2.25q-1.1,-0.75 -1.5,-1.3q-1,-1.4 0.05,-3.8q0.55,-1.2 0.8,-1.8q0.45,-1.1 0.4,-1.9q0,-0.85 -1.05,-3.45q-0.8,-2.1 -0.2,-3.25q0.15,-0.3 0.65,-0.85q0.45,-0.55 0.6,-0.9q0.4,-0.85 0,-2.8l-2.15,-10.1q-0.5,-2.3 -1.25,-3.25q-0.5,-0.6 -1.45,-1.2q-1.1,-0.65 -1.65,-1.05q-1.1,-0.85 -2.35,-2.45q-1.35,-1.85 -2.05,-2.75q-2.65,-3.4 -5.6,-3.55m-129.95,560.5q-0.2,1.05 1.5,2q1.6,0.95 1.5,1.95q-0.1,1 -1.8,1.5l-1.75,0.55q-1.5,0.2 -2.2,0.45q-0.9,0.35 -2.05,1.5q-0.9,0.9 -1,1.7q-0.05,0.5 0.4,1.8q0.4,1.15 0.15,1.8q-1.2,-0.5 -2.25,-0.65q-0.75,-0.1 -1.1,0.1q-0.2,0.1 -0.4,0.45q-0.25,0.35 -0.4,0.45q-0.7,0.75 -1.55,0.25q0.4,-0.1 0.6,-0.6q0.2,-0.45 0.1,-0.95l-0.3,-0.9q-0.15,-0.5 -0.15,-0.9q0.25,-1.45 0.05,-2.15q-0.45,-1.2 -2.9,-1.3q-0.6832,0 -1.1,0.15q-0.39902,-0.2498 -1.05,-0.35q-1.35,0 -2,-0.05q-1.85,-0.05 -3.4,-1.35q-1.5,-1.3 -1.9,-3.1q-0.25,-1.5 -0.45,-1.95q-0.45,-0.8 -1.5,-1.4q-1,-0.7 -1.7,-0.55q-0.45,0.15 -1,0.9l-1.5,2.05q-5.9,-0.55 -11.55,1.45q-1.6,0.5 -2.2,0.6q-1.25,0.25 -2.1,-0.2q-1.05,-0.75 -1.65,-0.85q-0.4,-0.1 -1.5,0.25q-1.45,0.35 -2.2,0.5q-1.3,0.3 -2.1,0.7q-1.05,0.55 -1.6,1.6q-0.6,1.1 -0.2,2.1q0.1,0.25 0.75,1.1q0.45,0.65 0.5,1.15q-0.7,-0.3 -2.5,0.05q-1.65,0.3 -2.35,-0.3q-0.35,-0.35 -0.55,-0.4q-0.1666,0 -0.3,0.05q-0.0418,-0.0959 -0.15,-0.15q-0.45,-0.2 -0.95,-0.05q-1.45,0.45 -2.25,2.7q-0.45,1.5 -0.55,1.75q-0.4,1 -0.9,1.55q-1.15,0.95 -1.65,1.5q-1.05,1.25 -0.7,3.35q0.2,1.15 1.3,3.25q-0.45,-0.1 -1,0.4q-0.8,0.65 -1,0.75q-0.3,0.15 -1.7,0.15q-0.65,0 -2.15,0.35q-1.35,0.35 -2.1,0.2q-1,-0.15 -2.05,-1.15q-1.15,-1.25 -1.75,-1.85q-0.95,-1 -2.05,-1.45q-1.35,-0.45 -2.25,0.2q-0.15,0.1 -1.15,1.25q-0.7,0.75 -1.35,0.7q-0.95,-1.35 -2.6,-1.95q-1.7,-0.6 -3.3,-0.1q-0.85,0.2 -1.05,0.2q-0.65,0.05 -0.9,-0.35l2.95,-7.4q0.5,-1.3 0.35,-2q-0.1,-0.55 -0.65,-1.25q-0.85,-1 -0.9,-1.1q-0.5,-0.75 -0.8,-2.1q-0.2,-1.55 -0.4,-2.3q-0.35,-1.2 -1.1,-2.05q-0.9,-0.95 -1.95,-0.8q-1,0.3 -1.5,0.4q-0.75,0.15 -1.75,-0.15q-2.15,-0.6 -3.8,-1.4q0.6,-0.35 0.55,-1.15q-0.05,-0.75 -0.55,-1.3q-0.35,-0.45 -1.05,-0.95q-0.95,-0.65 -1.15,-0.8q-0.8,-0.7 -1.9,-2.9q-1,-2.05 -2,-2.75q-0.33437,-0.20898 -0.55,-0.15q-0.12891,-0.64707 -0.55,-1.7q-0.6,-1.4 -0.55,-2.25q0,-0.1 0.25,-1.4q0.15,-0.85 -0.05,-1.4q-0.2,-0.65 -1.1,-1.25q-1.3,-0.85 -1.5,-1.05q-0.9,-1.4 -1.6,-1.8q-0.7,-0.3 -1.95,0q-3.85,0.95 -6.3,3.95q-0.9,1.2 -1.4,1.8q-0.9,0.95 -1.75,1.35q-0.45,0.2 -1.35,0.3q-0.95,0.15 -1.35,0.3q-1.55,0.55 -2.55,2.2q-0.85,1.5 -1.05,3.4q-0.1,1.35 -0.45,1.9q-0.05,0.1 -1.15,1.05q-1.7,1.45 -1.6,3.65q0,0.25 0.2,1.35q0.1,0.85 0.05,1.35q-0.05,0.7 -0.45,1.25q-0.45,0.6 -1.1,0.6q-0.75,0.05 -1.55,-0.85q-1.1,-1.3 -1.75,-1.85q-1.05,-1 -2.1,-1.15q-0.75,-0.1 -1.75,0.3q-1.15,0.5 -1.7,0.75q-2.2,1.1 -3.5,0.35q-0.85,-0.5 -1.35,-1.95q-1.1,-3.05 -0.5,-6.35q0.2,-1.2 0.05,-1.7q-0.6,-1.55 -3.6,-1q-0.75,-0.65 -0.2,-2.65q0.55,-2.1 -0.1,-2.8q-0.25,-0.3 -0.75,-0.45q-0.6,-0.15 -0.9,-0.25q-1.55,-0.4 -2.75,-1.6q-1.2,-1.25 -1.6,-2.85q0,-0.35 0.4,-1q0.45,-0.65 0.4,-1.05q-0.05,-0.45 -0.55,-0.85q-0.6,-0.45 -0.85,-0.7q-0.7,-0.7 -1,-2.4q-0.3,-1.9 -0.7,-2.55q-0.45,-0.85 -1.2,-0.7q-0.15,0.05 -0.95,0.85q-0.4,0.4 -1.05,0.35q-0.6,-0.05 -1,-0.45q-0.3,-0.35 -0.45,-0.5q-0.20449,-0.20449 -0.4,-0.25q-0.13516,-0.25391 -1,-0.35q-0.75,-0.15 -1.7,-1.2q-1.05,-1.25 -1.55,-1.55q-0.4,-0.2 -0.6,-0.35q-0.35,-0.2 -0.5,-0.45q-0.15,-0.35 0.05,-0.9q0.35,-0.8 0.35,-0.95q0.1,-0.65 -0.45,-1.6l-1.25,-2.4q-0.7,-1.55 -0.8,-1.95q-0.05,-1.35 -0.1,-2q-0.05,-2.5 -2.05,-4.3q-0.6,-0.6 -0.6,-0.95q0,-0.1 0.25,-0.6q1.05,-1.9 0.95,-3.9q0,-0.75 -0.4,-1.15q-0.35,-0.35 -1,-0.35q-0.8,0 -2.6,0.45q-1.65,0.4 -2.6,0.25q0.35,-0.1 0.4,-0.55q0.05,-0.4 -0.25,-0.7q-0.3,-0.3 -1.35,-0.75q-0.75,-0.35 -1.5,-1q-0.65,-0.65 -0.75,-0.7q-0.25,-0.1 -0.5,-0.05q-0.3,0.1 -0.4,0.3q-0.25,0.5 0.65,1.05l3,1.8q-0.4,0.2 -0.35,0.7q0.05,0.55 0.45,0.8q0.55,0.3 1.8,0.1l4.3,-0.75q0.5,1.95 -0.6,3.55q-0.55,0.9 -0.6,1.3q-0.05,0.5 0.4,1.1q0.25,0.3 0.85,0.9q1.35,1.35 1.6,3.4q0.05,0.75 0.1,2.2q0.15,0.95 0.85,2.2q0.35,0.7 1.15,2.05q0.4,1 0.35,1.55q0,0.15 -0.25,1.15q-0.2,0.7 0,1.1q0.2,0.35 1.05,0.9q0.55,0.35 1.95,1.8q1.1,1.15 2.05,1.5q0.45508,0.16543 0.75,0.1q0.10645,0.34844 0.4,0.6q0.95,0.8 2.25,0.75q1.3,-0.05 2.2,-0.85q0.1,3.1 2.1,5.35q0.55,0.65 0.5,1q-0.05,0.4 -0.65,1q-0.25,0.65 0.35,1.55q1.05,1.85 1.9,2.8q1.25,1.4 2.75,1.65q0.95,0.1 1.2,0.4q0.3,0.35 0.1,1.45q-0.45,1.3 -0.4,2.25q0.1,1.45 1.15,1.9q0.45,0.2 1.5,0.15q1,-0.1 1.45,0.1q-0.7,3.65 0.15,7.2q0.8,3.6 3.15,4.05q1.15,0.2 3.5,-0.9q2.25,-1 3.45,-0.6q0.7,0.25 1.35,0.9q0.2,0.2 1.1,1.3q1.45,1.75 2.8,1.5q1.05,-0.15 1.6,-1.35q0.45,-1 0.4,-2.35q-0.05,-2.25 -0.05,-2.35q0.1,-1.35 0.75,-2.1q0.25,-0.25 1.1,-0.9q0.7,-0.55 0.95,-1q0.2,-0.4 0.2,-1.1q0,-0.75 0,-1.1q0.05,-1.6 1,-2.9q0.95,-1.3 2.4,-1.8q0.35,-0.1 1.55,-0.4q0.95,-0.2 1.5,-0.5q0.75,-0.4 1.45,-1.25q0.4,-0.5 1.15,-1.6q2.3,-2.9 6.05,-3.8q0.95,-0.2 1.5,0.1q0.5,0.3 1.1,1.35q0.25,0.3 1.1,0.8q0.75,0.45 1,0.9q0.3,0.55 0.2,2.05q-0.1,1.95 1.1,5.55q0.1,0.35 0.25,0.4q0.25,0.15 0.5,-0.15q0.09531,-0.14297 0.1,-0.3l2.1,3.25q1.7,2.75 3.15,3.55q0.95,0.6 0.9,1.05q-0.05,0.35 -0.45,0.85q-0.25,0.6 0.4,1.2q0.5,0.45 1.3,0.7l3.25,1.05q1.3,0.4 1.9,0.15q0.4,-0.15 1.1,-0.5q0.75,-0.15 1.4,0.6q0.75,0.85 1.05,3.05q0.35,2.25 0.95,3.1q0.25,0.3 0.8,0.85q0.45,0.5 0.55,0.95q0.2,0.7 -0.3,1.75l-2.6,6.5q-0.6,1.35 -0.15,2.05q0.5,0.7 1.65,0.6q0.55,-0.1 1.7,-0.45q2.35,-0.5 3.95,1.25q0.75,0.75 1,0.85q0.9,0.4 2.05,-0.75q1.25,-1.25 1.8,-1.4q1.15,-0.3 2.25,0.8q0.6,0.6 1.6,1.95q0.95,1.05 2.35,1.5q1.4,0.5 2.8,0.25q0.15,0 1.65,-0.35q1,-0.25 1.65,-0.15q0.25,0.05 0.8,0.1q0.45,0 0.7,-0.2q0.3,-0.2 0.65,-0.9q0.2,-0.15 0.65,-0.3q0.45,-0.1 0.65,-0.3q0.5,-0.5 -0.2,-1.85q-0.65,-1.1 -0.9,-2.75q-0.1,-1.3 0.35,-1.9q0.4,-0.5 1.6,-1.15q0.6,-0.5 1,-1.45q0.15,-0.45 0.5,-1.8q0.65,-2.4 2.1,-2.7l0.55,-0.25q0.13828,0.23828 0.4,0.5q0.75,0.55 2.3,0.45q2.15,-0.2 2.55,-0.15q0.7,0.1 1.05,0q0.45,-0.2 0.5,-0.85q0.05,-0.65 -0.25,-1.15q-0.45,-0.6 -0.65,-0.95q-0.4,-0.5 -0.45,-0.95q-0.1,-0.85 0.6,-1.55q0.6,-0.6 1.5,-0.85q0.4,-0.1 1.75,-0.3q1.1,-0.15 1.7,-0.4q0.6,-0.3 0.9,-0.3q0.25,0 1.1,0.5q1.8,1.1 5.65,-0.15q4.75,-1.55 7.55,-1.5q2.25,0.15 2.75,0.1q0.75,0 1.05,-0.15q0.65,-0.3 1.3,-1.3q0.7,-1.15 1.1,-1.45q1.5,-0.05 2.25,1.75q0.4,0.9 0.9,2.9q1.1,2.65 3.9,3.3q0.7,0.15 2.2,0.3q1.3,0.15 1.95,0.7q0.65,0.55 1,0.4q0.25,-0.05 0.3,-0.4q0.01836,-0.09219 0,-0.2q0.59121,-0.3 1.25,-0.3q0.9,0.1 1.15,0.85q0.05,0.3 -0.05,0.9q-0.1,1 0.2,1.75q0.25,0.8 0.15,1.05q-0.05,0.1 -0.45,0.65q-0.35,0.55 0,1.3q0.35,0.7 1,0.75q0.7,0.05 2,-0.9q1.2,-0.9 1.9,-0.65q0.2,0.05 0.85,0.55q0.5,0.35 0.85,0.25q0.45,-0.1 0.75,-0.85q0.3,-0.85 0.05,-1.9q-0.4,-1.05 -0.45,-1.6q-0.05,-1.5 1.65,-2.35q0.65,-0.35 2.9,-0.8q0.7,-0.15 2,-0.65q1.85,-0.7 2.1,-1.9q0.3,-1 -0.55,-2.05q-0.5,-0.7 -1.75,-1.35q-0.6,-0.5 -0.55,-0.8q0.15,-0.3 0.6,-0.5q2.5,-1.05 3.85,-0.6q0.8,0.2 2.15,1.15q1.4,0.8 2.35,0.1q0.35,-0.25 0.6,-0.75q0.25,-0.65 0.35,-0.95q0.55,-1.6 1.7,-2.15q0.55,-0.25 1.8,-0.25q2.4,0 3.55,0.15q1.7,0.2 2.15,0.2q1.15,-0.05 1.85,-0.6q0.26484,0.64297 0.5,0.95q-0.08594,0.08477 -0.15,0.2q-0.15,0.25 -0.1,0.55q0.1,0.3 0.35,0.4q0.25,0.1 0.5,-0.05q0.25,-0.2 0.2,-0.45q0.8,-0.2 2.2,0.45q1.55,0.75 2.3,0.75q0.95,-0.05 1.8,-0.85q0.65,-0.45 1.8,-1.55q1.1,-0.9 2.05,-1q0.3,0 1.9,0.25q0.45,0.05 1.25,0.1q0.75,0 1.25,0.2q0.6,0.2 1.5,0.85q1,0.7 1.45,0.9q0.55,0.2 1.55,0.35q1.1,0.1 1.55,0.25q2.45,0.65 3.75,3.45q0.55,1.1 0.9,1.4q0.85,0.7 2,0.15q1.1,-0.5 1.4,-1.6q0.15,-0.55 0.2,-0.85q0.2,-0.45 0.5,-0.6q0.55,-0.35 1.55,0.25q8.4,4.5 14.5,11.75q0.85,1.05 0.95,1.75q0.1,0.5 -0.1,1.25q-0.1,0.4 -0.35,1.2q-0.2,1.3 0.45,2.5q0.7,1.2 1.9,1.65q0.35,0.15 1.1,0.35q0.65,0.2 0.95,0.5q0.45,0.45 0.6,1.4q0.1,0.55 0.2,1.65q0.15,0.6 0.55,0.55q0.35,-0.05 0.35,-0.75q-0.1,-2.4 -0.95,-3.3q-0.45,-0.5 -2.35,-1.4q-1.55,-0.75 -1.8,-1.75q-0.15,-0.6 0.15,-1.65q0.4,-1.25 0.4,-1.7q-0.05,-1 -0.95,-2.25q-2.35,-3.45 -7.6,-7.6q-4.2,-3.4 -7.3,-4.9q-2.05,-1 -3.1,-0.15q-0.35,0.3 -0.55,0.95q-0.15,0.35 -0.4,1.05q-0.25,0.55 -0.8,0.85q-0.55,0.25 -0.95,-0.05q-0.5,-1.7 -1.75,-3.05q-1.25,-1.35 -2.95,-1.9q-2.15,-0.45 -3.2,-0.8q-1.75,-0.85 -2.6,-1.25q-2,-0.85 -4.05,-1q-2,-0.1 -3.05,0.65q-0.4,0.25 -1.6,1.5q-0.95,0.95 -1.8,1.1q-0.8,0.15 -2.45,-0.55q-1.18809,-0.51992 -2,-0.55q-0.01445,-0.20254 -0.2,-0.45q-0.75,-0.95 -1.25,-1.05q-0.35,-0.05 -0.8,0.15l-0.85,0.3q-0.6,0.2 -2.2,-0.05q-1.9,-0.3 -3.6,-0.25q-1.2,0 -2,0.25q-1.9,0.65 -2.75,2.9q-0.4,1.05 -0.9,1.25q-0.4,0.15 -1,-0.15q-0.15,-0.1 -0.95,-0.7q-2.15,-1.6 -5.75,-0.05q-1.2,0.5 -1.4,1.3m-99.9,-582.95q0.4,-0.6 0.4,-0.95q-0.05,-0.3 -0.25,-0.5q-0.25,-0.2 -0.5,-0.1q-0.15,0.05 -0.4,0.5q-2.4,4.85 -8.3,9.85l-4.5,3.6q-3.9,3.15 -6.55,4.65q-2.75,1.55 -4.85,1.75q-0.75,0.1 -1.95,0.05q-1.75,-0.1 -2,-0.1q-1.3,0.05 -3.9,0.6q-2.6,0.55 -3.95,0.6q-1.25,0.05 -3.7,-0.25q-2.55,-0.3 -3.75,-0.3q-0.90879,0.06738 -1.4,0.35q-0.04063,0.01582 -0.1,0q-0.85,-0.25 -2.1,0.1q-1.4,0.5 -2.1,0.6q-1.35,0.2 -3.9,-0.5q-3.15,-0.85 -4.75,-1.8q-1.4,-0.85 -2.1,-1.2q-1.2,-0.6 -2.2,-0.45q-0.95,0.1 -1.15,0q-0.35,-0.2 -0.55,-1.05q-0.5,-1.65 -2,-2.65q-1.5,-1.05 -3.25,-0.9q0,-0.7 -0.75,-1.55q-1.1,-1.15 -1.25,-1.4q-0.45,-0.7 -0.55,-2.15q-0.15,-1.65 -0.35,-2.2q-0.65,-1.15 -0.9,-1.75q-0.25,-1.15 -0.45,-1.7q-0.25,-0.75 -1.3,-1.9q0.35,-0.3 1.75,-0.8q1.25,-0.5 1.25,-1.35q0,-0.35 -0.45,-1.05q-2.1,-2.85 -2.2,-3q-1.15,-1.8 -1.15,-3.4q0,-1.05 -0.15,-1.35q-0.65,-1.25 -3.05,-0.5q0.75,-0.4 0.55,-1.6l-0.2,-0.9q-0.15,-0.55 -0.1,-0.9q0,-0.35 0.15,-0.9q0.2,-0.7 0.25,-0.9q0.2,-0.95 -0.2,-2q-0.4,-0.9 -1.2,-1.6q-1.4,-1.2 -3.75,-1.55q0.15,-0.7 0.7,-1.55q0.9,-1.35 0.95,-1.5q0.45,-0.85 0.45,-1.65q0.02246,-0.425 -0.1,-0.8q6.5041,4.46484 10.15,6q2.2,1 2.8,1.75q0.25,0.4 0.75,1.25q0.45,0.6 1.7,1.15q1.35,0.65 1.8,1.05q0.7,0.65 1.3,1.85l0.8,1.6q0.7,1.3 1.2,1.85q0.2,0.2 0.9,0.85q0.6,0.5 0.85,0.85q0.55,0.75 1.25,2.5q0.4,0.65 1.05,1q0.7,0.35 1.3,0.05q0.65,-0.3 0.7,-1.2q0.1,-0.8 -0.3,-1.5q-0.2,-0.35 -0.9,-1.25q-0.6,-0.75 -0.8,-1.3q-0.2,-0.55 -0.35,-2.15q-0.15,-1.4 -0.65,-2.05q-0.3,-0.4 -1.15,-0.95q-0.95,-0.55 -1.25,-0.9q-0.2,-0.2 -0.7,-1q-0.45,-0.65 -0.8,-0.95q-0.45,-0.35 -1.35,-0.55q-1.4,-0.25 -1.5,-0.3q-1.2,-0.35 -2.7,-1.8q-1.85,-1.7 -2.6,-2.15q-0.6,-0.35 -1.6,-0.7q-1.15,-0.35 -1.75,-0.55q-1.6,-0.65 -4,-2.4q-2.75,-2.05 -3.85,-2.65q-1.75,-0.8 -2.6,-1.25q-1.5,-0.75 -2.35,-1.55q-0.6,-0.6 -0.9,-0.9q-0.55,-0.5 -1,-0.65q-0.5,-0.2 -1.55,-0.2l-6.65,0.1q-0.18457,0 -0.35,0l0,0q-0.4,-0.35 -1.3,-0.35q-5.5,-0.25 -12.3,0.75q-4.15,0.55 -12.2,2.2q-3.75,0.75 -5.5,1.25q-3,0.85 -5.2,2.05q-1.35,0.85 -2.05,1.25q-1.2,0.65 -2.15,0.95q-1.05,0.35 -2.45,0.4q-0.6,0 -2.45,-0.05l-6.65,-0.25q-4.3,-0.2 -6.2,0.7q-0.8,0.35 -1.9,1.15q-1.5,1.05 -1.85,1.3q-1.15,0.7 -3.25,1.5q-2.5,0.9 -3.3,1.3q-1.45,0.75 -4.45,3q-3.2,2.45 -4.7,4.25q-0.7,1.05 -1.1,1.55q-0.7,0.8 -1.4,1.2q-0.55,0.3 -2.75,0.65q-3.2,0.45 -6.15,1.95q-2.65,1.4 -3.6,1.6q-1.1,0.25 -2.6,0.1q-1.7,-0.25 -2.6,-0.4q-4.1,-0.55 -6.55,0.45q-1.75,0.7 -3.45,2.35q-0.95,0.95 -2.85,3.25q-1.25,1.55 -2.4,1.9q-1.2,0.2 -1.8,0.45q-0.8,0.4 -1.6,1.95l-6.95,13.25q-1.6,3.25 -3.45,3.95q-0.45,0.15 -1.25,0.3q-1,0.15 -1.25,0.2q-1.35,0.35 -3.85,2.35q-2.3,1.85 -3.9,2.05q-0.85,0.1 -2.55,-0.1q-1.75,-0.2 -2.6,-0.05q-0.75,0.15 -2.05,0.75q-1.4,0.65 -2.1,0.8q-1.75,0.2 -2.6,0.4q-0.8,0.2 -1.75,0.75q-1.1,0.75 -1.65,1.05q-3.15,1.9 -7.75,2.65q-2.35,0.35 -8.35,0.75q-2.45,0.2 -3.45,0.85q-0.35,0.25 -1.1,0.95q-0.7,0.65 -1.15,0.9q-1.25,0.75 -3.8,0.35q-3.05,-0.45 -4.1,-0.25q-0.75,0.15 -2.7,1.15q-1.11934,0.57656 -2,0.75q-0.00605,-0.14043 -0.1,-0.25q-0.37051,-0.46309 -1,0.3q-0.1918,0.0418 -0.25,0.1q-0.19434,0.1457 -0.15,0.4q-1.7248,2.1 -4.75,3.2q-2.2,0.85 -6.05,1.5l-5.4,0.95q-2.45,0.5 -2.95,0.65q-0.9,0.3 -2.9,1.3q-1.85,0.95 -2.95,1.25q-1.6,0.45 -4,0.5q-2.7,0 -4.05,0l-3.85,0.3q-1.8,0.2 -2.05,1.2q-0.3,1.05 1.1,1.65q0.65,0.3 2.1,0.55q-0.32188,0.14297 -0.55,0.3l0,0q-0.3,-0.25 -0.8,0.15q-1.05,0.8 -1.6,1.15q0,-0.4 -0.5,-0.5q-0.35,0 -0.55,0.4q-0.16816,0.33633 -0.15,0.65q-0.32305,0.13086 -0.65,0.15q-0.5,0 -2,-0.35q-2.05,-0.35 -4.65,0.5q-1.25,0.4 -4.4,1.9q-0.95,0.4 -1.15,0.9q-0.1,0.55 -0.25,0.75q-0.15,0.35 -0.8,0.45q-3.45,0.2 -5,0.9q-0.15,0.1 -2.2,1.35q-0.1502,0.08906 -0.3,0.15q0.26699,-0.34121 0.55,-0.75q0.25,-0.4 0.2,-0.6q-0.05,-0.35 -0.55,-0.45l-0.7,0.05q-2.3,0.6 -3.45,0.75l-1.35,0.2l-1.45,0.4q-0.35,0.1 -0.5,0q-0.2,-0.05 -0.3,-0.4q-0.5,-1.2 -2.3,-3.2q-0.45,-0.55 -0.9,-0.8q-0.6,-0.35 -0.8,-0.6l-0.35,-0.6q-0.25,-0.25 -1,-0.25q-0.35,-0.1 -0.55,0.05q-0.4,0.2 -0.3,0.5q0.0293,0.11699 0.2,0.2q-0.07734,0.03945 -0.15,0.1q-0.3,0.2 -0.25,0.5q0.05,0.1 0.55,0.6q0.55,0.45 0.7,1.45q0.05,0.5 0,1.7q-0.4,4.8 1.75,6.7q0.10352,0.07754 0.4,0.25q0.03145,0.16289 0.1,0.3q0.2,0.25 0.95,0.8q0.54941,0.34492 1.1,0.7q0.52598,0.80547 0.75,2q0.2,0.95 0.35,2.85q0.1,0.85 0.55,2.6q0.4,1.75 0.55,2.65q0.38438,2.7332 -0.65,4.5q-0.33477,0.14727 -0.9,0.25q-1,0.2 -1.35,0.6q-0.25,0.3 -0.15,0.75q0.1,0.5 0.5,0.45q0.2,-0.05 0.5,-0.35q0.06973,-0.06094 0.15,-0.15q-0.4541,0.60234 -0.65,1.05q-0.4,1.05 0.3,3.2l2.7,7.85q0.75,1.95 0.8,3.25q0,0.65 -0.15,1.6q-0.1,0.55 -0.3,1.6q-0.9,4.65 0.7,10.25q0.45,1.45 1.4,4.3q0.7,2.55 0.75,4.45q0,0.7 -0.15,2.7q-0.1,1.7 0,2.75q0.15,1.55 0.95,4.55q0.7,4.7 -2.45,8.8q-1.2,1.4 -1.75,2.15q-0.95,1.25 -1.15,2.4q-0.25,1.25 0.25,3.15q0.8,2.7 0.85,3.15q0.35,2.55 -1.05,5.5q-1,2.05 -3.3,4.85q-1.8,2.1 -3.05,2.7q-0.9,0.4 -4.25,0.75q-2.65,0.25 -3.65,1.45q-0.8,1 -1,2.9q-0.1,1.2 0.15,3.55q0.2,2.35 0.15,3.5q-0.15,3.2 -1.8,6.5q-0.75,1.5 -0.25,2.2q0.4,0.5 1.85,0.5q5.3,0.05 10.2,4.05q3.35,2.7 7.3,8.45q2,3 2.4,4.7q0.15,0.5 0.35,1.45q0.25,0.8 0.7,1.25q0.3,0.3 1,0.6q0.75,0.4 1.05,0.6q0.45,0.3 1,1.05q0.6,0.8 0.95,1.1q0.7,0.6 2.35,1.1q1.85,0.5 2.5,0.95q1.7,1.2 1.9,3.8q0.05,1.7 -0.8,4.25q-0.95,2.95 -0.35,4.3q0.45,0.75 0.5,1q0.1,0.7 -0.5,1.8l-1.4,2.7q-0.65,1.2 -0.45,1.85l0.05,0.1q-0.02832,0.03281 -0.05,0.05q-0.5,0.45 -2.1,0.9q-1.5,0.4 -2,1.05q-0.7,0.85 -0.5,2.95l0.3,3.95q0.2,1.7 0.55,2.25q0.1,0.2 0.6,0.8q0.4,0.45 0.5,0.75q0.35,0.8 -0.2,2.3q-0.65,1.7 -0.55,2.4q0.1,0.85 0.9,1.55q0.7,0.6 1.65,0.9q0.5,0.15 1.85,0.45q1.15,0.25 1.8,0.5q0.95,0.35 1.5,1.1q0.65,0.8 0.55,1.7q-0.1,0.7 -1.1,2q-0.9,1.2 -0.9,2q0,0.55 0.6,1.7q0.55,1.05 0.45,1.65q-0.15,0.8 -1.25,2q-1.1,1.85 0.55,4.6q0.45,0.7 1.4,2.05q0.8,1.2 1.05,2.15q0.35,1.15 0.25,3.6l-0.15,3.05q0,0.6 -0.25,0.9q-0.2,0.3 -0.6,0.4q-0.55,0.15 -0.8,0.25q-0.8,0.3 -1.25,1.2q-0.4,0.8 -0.4,1.8q0,0.65 0.2,1.85q0.25,1.25 0.25,1.8q0.05,2.2 -1.4,4.55q-1,1.6 -3.2,3.9q-2.25,2.4 -3.2,3.9q-1.45,2.35 -1.4,4.55q0.1,1.1 0.65,1.45q0.3,0.2 1.1,0.35q0.7,0.3 1.15,1.35q0.35,0.8 0.8,2.65q0.45,1.75 0.85,2.6q0.6,1.15 2,2.5q2.15,2.1 2.3,2.3q2.35,2.8 2.5,5.85q0.1,1.7 -0.5,3.2q-0.65,1.6 -1.85,2.6q-0.25,0.25 -0.75,0.65q-0.45,0.4 -0.65,0.75q-0.35,0.7 -0.05,2.1q0.5,2.8 1.85,3.75q0.55,0.4 1.9,0.8q1.35,0.35 1.9,0.8q0.5,0.45 1.15,1.7q0.6,1.2 1.1,1.65q0.6,0.6 1.65,0.85q0.35,0.1 1.9,0.35q4.1,0.7 5.45,2.9q1.2,1.8 0.6,5.05q-0.15,0.9 -0.6,2.6q-0.35,1.5 -0.4,2.55q-0.15,2.85 1.35,5.3q-0.25,0 -0.4,0.25q-0.15,0.25 -0.1,0.45q-0.05,0.4 0.35,0.6q0.33066,0.16543 0.6,0.05q0.87949,0.42188 1.4,1.5q0.6,1.3 0.3,2.8q-0.2,1 -0.9,2.65q-0.85,1.85 -1.05,2.6q-0.25,0.85 -0.45,2.35q-0.2,1.7 -0.35,2.35q-0.1,0.6 -0.6,2.25q-0.4,1.4 -0.5,2.25q-0.15,1.15 -0.2,3.35q-0.2,2.05 -1.15,4.4q-0.6,1.45 -2,4.15l-2.1,4.1q-2.2,4.05 -2.9,5.15q-1.3,2.1 -2.6,3.25q-0.4,0.4 -1.25,1.1q-0.7,0.6 -1.05,1.2q-0.7,1.35 -0.2,4.35q0.3,1.65 1.15,2q1,0.4 2.1,-0.8q1.3,-1.3 1.85,-1.45q0.95,-0.25 2.25,0.65q1.75,1.25 2.2,1.4q1.2,0.45 2.45,-0.2q1.2,-0.6 1.7,-1.85q1.05,-2.25 -0.55,-4.9q-0.55,-1.05 -0.5,-1.45q0.1,-0.55 0.9,-1.05q0.95,-0.6 1.15,-0.9q0.35,-0.5 0.25,-1.25q-0.05,-0.25 -0.3,-1.35q-0.8,-3.2 0.95,-6.05q2.25,0.4 3.85,1.15q-0.65,1.8 -0.5,2.7q0.1,0.7 0.6,1.25q0.55,0.55 1.2,0.5q0.8,-0.05 1.4,-0.95q0.25,-0.4 0.85,-1.75q0.6,-1.5 1.75,-2.8l-0.6,3.65q-0.2,0.55 0.05,0.85q0.2,0.3 0.95,0.3q2.3,-0.15 4.1,-1.85q0.1,3.25 1.65,3.8l-0.9,3.7q-0.3,0.9 0.05,1.4q0.35,0.5 1.65,0.4q1.3,-0.1 1.65,0.35q-2.05,3 -1.2,4.7q0.3,0.55 1.15,1.3q0.95,0.85 1.25,1.3q0.45,0.6 1,2.1q0.7,1.15 2.1,1.6q1.35,0.4 2.6,-0.15q-0.4,0.4 -0.1,1.05q0.3,0.6 0.9,0.7q0.95,0.2 2.2,-0.8q1.3,-1.05 2,-1.25q0.3,0.3 0,1q-0.35,0.85 -0.35,1.15q0,0.65 0.8,0.85q0.75,0.15 1.45,-0.2q0.8,-0.55 1.2,-0.8q0.75,-0.45 1.3,-0.45q0.05,0.55 -0.05,1.65q-0.05,1 0.35,1.5q0.6,0.8 2.4,0.7q2.1,-0.15 2.8,0.2q0.55,0.3 1.4,1.5q0.75,1.1 1.4,1.35q0.25,0.1 0.7,0.25q0.4,0.1 0.6,0.35q0.2,0.25 0.2,0.8q0.05,0.6 0.2,0.8q0.4,0.65 1.5,0.2q1.25,-0.5 1.55,-0.5q0.25,0 0.95,0.35q0.55,0.25 0.9,0.15q0.9,-0.2 1.1,-1.9l3.65,1l-1.15,2.7q-0.07715,0.2207 -0.1,0.4l-0.05,0q-0.6,0.1 -0.6,0.55q0,0.75 1.1,0.75q1.15,0 1.4,0.2q0.6,0.4 0.3,1.5q-0.15,0.5 -0.55,1.55q-0.2,1.35 0.95,2q1.1,0.75 2.2,0q0.4,-0.3 1.05,-1.15q0.55,-0.8 1,-1.1q0.7,-0.45 1.6,-0.2q0.85,0.2 1.5,0.85q0.9,0.95 1.55,3.05q-0.8,0.65 -0.9,1.85q-0.1,1.1 0.4,2.15q0.5,1 1.4,1.55q0.95,0.65 1.95,0.45q1.05,-0.15 2.35,-1.55q2.15,-2.15 3.7,-4.1q0.5,-0.6 0.95,-0.65q0.55,-0.1 0.95,0.5q0.4,0.55 0.45,2.05q0.05,1.4 0.55,1.95q0.65,0.65 2.35,0.55q2.8,-0.3 3.8,-1.65q0.4,-0.55 0.65,-1.45q0.25,-1.05 0.35,-1.6q0.65,-2.1 1.9,-2.4q0.8,-0.2 1.6,0.25q0.7,0.4 1.2,1.2q0.35,0.55 0.65,1.55l0.55,1.6q1,2.45 3.35,3.75q0.75,0.45 2.3,1.3q1.2,0.85 1.3,1.9q0.15,1.65 -1.95,2.95q-0.95,0.65 -1.15,1.15q-0.2,0.55 -0.15,1.65q-0.2,0.75 -1.3,1.35q-1.7,0.95 -1.85,1.05q-0.7,0.65 -0.95,1.65q-0.2,1 0.25,1.8q-1.75,-0.65 -3.7,-0.05q-1.9,0.6 -3,2.15q-0.2,0.3 -0.55,0.85q-0.35,0.5 -0.7,0.7q-0.4,0.3 -2.15,0.65q-1.45,0.2 -1.8,1.2q-0.25,0.8 0.6,1.95q1.75,2.4 4.15,4.15q0.7,0.55 1.35,0.6q0.65,0.05 1.95,-0.75q1.2,-0.75 1.9,-0.55q0.6,0.2 1,0.95q0.15,0.3 0.5,1.4q0.75,2.2 2.5,3.8q0.6,0.55 1.95,1.55q1.1,0.95 1.4,1.9q0.15,0.45 0.2,1.4q0.1,1 0.2,1.4q0.45,1.8 3.45,3.55q3.3,1.95 4.05,3.25q0.55,0.95 0.85,3q0.35,2.15 0.8,3.05q0.6,1.1 2.65,2.85q1.56797,1.29355 2.25,2.35q-0.07617,0.01309 -0.15,0.05q-0.3,0.15 -0.3,0.4q0.6,0.35 1.15,1.15q0.15,0.2 0.85,1.4q1.1,1.9 2.4,1.95q1.1,0.05 2.1,-1.05q0.95,-1 1.8,-2.85q0.8,-2.15 1.3,-3.2q0.8,-1.75 2,-2.85q1.45,-1.25 3.05,-1.15q0.05,0 1.45,0.3q0.9,0.2 1.5,0.05q0.7,-0.15 1.4,-0.85q0.15,-0.15 1.15,-1.35q1.55,-1.85 2.95,-1.2q0.15,0.1 0.75,0.5q0.45,0.3 0.8,0.35q0.9,0.15 1.3,-1q0.15,-0.4 0.15,-1.75q-0.05,-2.35 0.6,-4.6q0.6,-2 0.65,-2.55q0.1,-1.65 -1,-2.3q-0.3,-0.2 -0.95,-0.4q-0.7,-0.2 -1,-0.35q-0.85,-0.5 -1.2,-1.85q-0.25,-1.6 -0.4,-2.4q-0.35,-1.6 -1.45,-2.95q-1.1,-1.3 -2.65,-1.9q2.1,-0.75 4.3,-0.75q0.75,1.9 1.75,2.6q0.95,0.65 3.6,0.75q2.45,0.2 3.2,1.55q0.1,0.2 0.35,0.8q0.2,0.5 0.4,0.75q0.4,0.4 1.4,0.6q2.3,0.35 2.85,0.55q1.7,0.55 2.2,1.8q0.05,0.2 0.25,1.45q0.1,0.9 0.5,1.3q0.4,0.4 1.1,0.55q0.1,0 1.25,0.15q1.55,0.15 2.7,0.8q1.35,0.8 1.7,2.1q0.1,0.4 0.2,1.65q0,1.05 0.3,1.6q-0.95,0.3 -1.15,0.75q-0.15,0.35 0.05,0.7q0.2,0.35 0.55,0.25q0.15,-0.05 0.55,-0.6q0.15195,-0.08555 0.25,-0.2q0.11797,0.23066 0.4,0.45q0.7,0.45 1.95,0.75q1.75,0.45 2.1,0.6q0.55,0.2 1.6,0.7q0.95,0.35 1.7,0.35q0.9,0.05 2.15,-0.55q1.85,-0.85 2.15,-0.95q1.05,-0.3 3.25,-0.35q2.2,0 3.25,-0.35q0.9,-0.25 2.65,-1.05q1.6,-0.55 2.65,-0.1q0.3,0.15 1.25,0.9q0.75,0.65 1.3,0.75q-1.3,1.8 -3.35,2.7q-2.15,0.9 -4.3,0.55q-1.3,-0.25 -1.65,-0.2q-1.1,0.1 -1.45,0.8q-0.25,0.5 0,1.1q0.25,0.55 0.75,0.9q0.65,0.5 2.15,1q1.4,0.7 1.45,1.7q0.05,0.3 0,0.9q0.1,1.25 1.65,1.75q0.85,0.25 2.5,0.5q1.6,0.5 3.6,2.7q0.9,1 1.1,1.65l0.3,1.5q0.25,0.95 1.75,2.85q1.3,1.7 1.8,3.2q0.3,0.95 0.4,1.15q0.3,0.6 0.75,0.8q0.65,0.3 2,-0.35q1.4,-0.7 2.05,-0.5q-0.1,3.25 2.05,5.75q-0.3,-0.25 -0.7,-0.05q-0.45,0.2 -0.3,0.55q0.2,0.25 0.6,0.25l0.65,0.1q-0.3375,0.46445 -0.05,0.8q0.25,0.3 0.7,0.15q0.35,-0.15 0.65,-0.5l2.45,-2.45q1.3,-1.3 2.2,-1.3q0.15,0 0.65,0.05q0.4,0.05 0.65,-0.05q0.8,-0.15 1,-1.2q0.05,-0.75 -0.2,-1.7q1.15,0.15 1.65,1.15q0.35,0.85 0.65,0.95q0.45,0.15 0.95,-0.45q0.75,-0.8 1.35,-1.8q0.55,-0.95 1.1,-0.7q0.35,0.5 0.25,1.8q-0.1,1.25 0.35,1.7q0.5,0.5 1.95,0.25q1.45,-0.25 1.95,0.2q-0.55,1.65 0.05,2.35q0.45,0.55 1.55,0.45q1.2,-0.05 2.15,-0.95q0.95,-0.9 1.15,-2.1q0.6,0.2 0.8,1.1q0.1,1.15 0.25,1.4q0.45,1 2.15,1.1q0.6,0 0.85,0.15q0.35,0.25 0.45,1l0.4,2.5q0.2,1.3 0.8,1.75q0.5,0.35 1.85,0.15q0.55,-0.1 0.8,-0.4l0.3,-0.75q0.4,-0.7 1.6,-0.7q1.3,0 1.75,-0.35q0.05,-0.05 0.7,-0.95q0.85,-1.05 2.15,-0.8q0.25,0.2 0.2,0.95q-0.1,0.75 0.2,0.95q0.3,0.2 0.6,-0.15q0.3,-0.3 0.3,-0.7q0,-1.25 -1.1,-1.85q-1.15,-0.6 -2.15,0.15q-0.25,0.2 -0.7,0.7q-0.4,0.5 -0.7,0.7q-0.4,0.25 -1.1,0.35q-0.8,0.1 -1.2,0.15q-0.65,0.1 -1.1,0.55q-0.5,0.45 -0.45,1q-0.9,0.3 -1.25,0.1q-0.35,-0.15 -0.45,-0.8l-0.55,-3q-0.2,-1.05 -0.6,-1.35q-0.35,-0.25 -1.45,-0.3q-1,-0.05 -1.35,-0.5q-0.2,-0.25 -0.25,-0.7q-0.15,-0.75 -0.15,-0.8q-0.15,-0.65 -0.65,-1.1q-0.55,-0.45 -1.2,-0.55q-0.9,-0.1 -0.95,0.45q0,0.1 0.1,0.6q0.15,0.85 -0.7,1.4q-0.45,0.35 -1.45,0.55q-0.65,0.2 -0.85,-0.1q-0.1,-0.15 0.15,-0.95q0.15,-0.45 -0.1,-1q-0.3,-0.45 -0.75,-0.7q-0.8,-0.35 -2.05,-0.2q-0.7,0.2 -1.1,-0.05q-0.35,-0.25 -0.25,-1.4q0.2,-1.75 -0.95,-2.25q-0.65,-0.3 -1.4,0.25q-0.65,0.45 -0.95,1.25q-0.35,0.8 -0.7,0.9q-0.5,0.15 -1.1,-0.65q-1.2,-1.4 -2.1,-0.8q-0.7,0.4 -0.5,1.9q0.1,0.5 -0.05,0.65q-0.15,0.15 -0.85,0.15q-1.45,-0.2 -3,1.45q-0.4,0.4 -1.2,1.25q-0.36699,0.36699 -0.7,0.65q-0.10234,-0.10605 -0.25,-0.2q-1.65,-1.15 -2,-1.95q-0.2,-0.45 -0.25,-1.2q-0.05,-0.8 -0.1,-1.2q-0.1,-1.6 -1.15,-2q-0.7,-0.25 -1.85,0.25q-1.35,0.65 -1.9,0.65q-0.8,-2.45 -2.45,-4.75q-1.5,-1.95 -1.65,-2.8q-0.1,-1.05 -0.25,-1.5q-0.25,-0.8 -1.05,-1.6q-2.15,-2.45 -4.1,-3.1q-1.35,-0.3 -2,-0.45q-1.15,-0.35 -1.7,-0.95q0.25,-1 -0.2,-2q-0.45,-1 -1.35,-1.4q-1.3,-0.35 -1.85,-0.65q-1.25,-0.6 -0.95,-1.55q2.8,1 5.8,0.05q3,-0.95 4.7,-3.35q0.3,-0.4 0.3,-0.7q0,-0.35 -0.65,-0.9q-1.4,-0.95 -2.15,-1.35q-1.25,-0.6 -2.35,-0.5q-0.75,0.05 -1.85,0.5q-1.6,0.7 -1.75,0.75q-1.1,0.35 -3.35,0.4q-2.3,0.1 -3.35,0.4q-0.25,0.1 -1.95,0.85q-1.1,0.5 -1.95,0.55q-1,0.1 -2.7,-0.45q-1.4,-0.45 -4.2,-1.65q-0.24531,-0.14023 -0.5,-0.15q0.06465,-0.0791 0.1,-0.15q0.15,-0.3 -0.2,-1.2q-0.1,-0.4 -0.15,-1.1q0,-0.85 -0.05,-1.1q-0.3,-2.2 -2.8,-3.3q-1.4,-0.65 -4.45,-0.95q-0.1,-2.2 -0.7,-3.1q-0.4,-0.5 -1.1,-1.05q-1.55,-1.05 -5.4,-1.65q-0.05,-1.7 -1.75,-2.65q-1.25,-0.7 -3.15,-0.8q-1.35,-0.05 -1.85,-0.15q-1.05,-0.25 -1.5,-0.9q-0.15,-0.2 -0.45,-1.2q-0.25,-0.8 -0.7,-1.05q-0.4,-0.2 -1.35,-0.1l-2.55,0.4q-1.95,0.35 -1.8,1.45q0.05,0.55 1.3,1.25q1.95,1.05 2.6,3.15q0.35,1 0.6,3.2q0.45,2 1.95,2.5q0.15,0.05 0.65,0.15q0.4,0.05 0.65,0.2q1.15,0.65 0.45,3.15q-0.95,3.7 -1.05,7.5q-0.75,-0.9 -2,-1.05q-1.25,-0.2 -2.25,0.45q-0.45,0.3 -1.4,1.5q-0.85,1 -1.55,1.3q-0.75,0.3 -2.1,0.2q-1.7,-0.2 -2.15,-0.15q-2.95,0.35 -4.75,4.4q-0.45,1.05 -1.3,3.2q-0.85,1.75 -1.85,2.75q-0.7,0.7 -1.4,0.6q-0.4,-0.1 -0.95,-0.85l-1.2,-1.8q0.18008,-0.07012 0.3,-0.25q0.45,-0.75 -0.65,-1.75q-2,-1.55 -2.95,-2.35q-1.7,-1.4 -2.4,-2.8q-0.4,-0.85 -0.8,-3.3q-0.4,-2.2 -1.1,-3.2q-0.75,-1.1 -3.8,-2.75q-2.65,-1.5 -3.2,-3.1q-0.15,-0.5 -0.25,-1.65q-0.1,-1.1 -0.3,-1.65q-0.45,-1.15 -2.2,-2.4q-2,-1.45 -2.55,-2.25q-0.2,-0.3 -1.25,-2.95q-0.75,-1.8 -1.9,-2.2q-1.55,-0.6 -4,1.15q-2.9,-1.55 -4.85,-4.25q-0.55,-0.85 -0.25,-1.3q0.25,-0.4 1.6,-0.4q1.35,-0.05 3.05,-2.3q1.75,-2.2 3.05,-2.3q0.75,-0.05 2.1,0.35q0.6,0.1 1.1,-0.1q0.55,-0.25 0.7,-0.75q0.1,-0.3 0,-0.8q-0.15,-0.6 -0.15,-0.8q0.05,-0.95 1.55,-1.75q1.75,-0.95 2.1,-1.6q0.2,-0.3 0.35,-0.9q0.15,-0.75 0.25,-0.95q0.2,-0.5 1.45,-1.85q1,-1.1 1.4,-2.35q0.4,-1.45 -0.3,-2.5q-0.4,-0.6 -1.3,-1.05q-1.05,-0.5 -1.55,-0.75q-2.35,-1.15 -3.55,-3.55q-0.75,-1.9 -1.2,-2.85q-0.7,-1.65 -1.8,-2.25q-1.05,-0.6 -2.3,-0.25q-1.25,0.3 -1.9,1.35q-0.35,0.55 -0.7,2.3q-0.3,1.5 -0.9,2.15q-0.9,1.05 -3.4,1.15q-0.8,0 -1.1,-0.2q-0.35,-0.25 -0.35,-1.55q0,-1.4 -0.85,-2.5q-0.65,-0.95 -1.5,-0.9q-0.65,0.05 -1.35,0.95l-2.6,3q-1.35,1.6 -2.2,2q-0.65,0.4 -1.4,0.4q-0.85,0.05 -1.45,-0.4q-0.6,-0.45 -0.8,-1.2q-0.2,-0.75 0.05,-1.5q0.4,-1.3 1.95,-2.2q-0.8,-0.15 -1.45,-1.1q-0.7,-1.15 -1.1,-1.7q-1.1,-1.55 -2.6,-1.75q-0.8,-0.15 -1.6,0.1q-0.8,0.3 -1.3,0.9q-0.3,0.4 -0.9,1.3q-0.55,0.7 -1.15,0.55q-0.5,-0.15 -0.7,-0.75q-0.1,-0.55 0.05,-1.15q0.3,-0.75 0.4,-1.1q0.2,-0.65 0.1,-1.1q-0.2,-1 -2.25,-1.75q-0.04375,-0.01309 -0.1,-0.05l1.2,-2.35q0.35,-0.65 0.35,-1.25q-0.05,-0.75 -0.6,-0.85q-0.2,-0.05 -0.5,0l-0.55,0.15q-0.45,0.05 -1.2,-0.35q-0.9,-0.45 -1.25,-0.5q-0.75,-0.1 -1.4,0.45q-0.6,0.6 -0.55,1.35q-1,-0.4 -2.1,-0.35q-1.15,0.1 -2.1,0.65q0.3,-0.4 0.1,-1q-0.15,-0.55 -0.65,-0.85q-1.35,-0.65 -1.85,-1.15q-0.6,-0.85 -0.95,-1.25q-0.85,-1 -2.9,-1.2q-2.9,-0.3 -3.4,-0.45q-0.25,-0.5 0.1,-1.9q0.35,-1.4 -0.45,-1.75q-0.35,-0.15 -1.25,0.2l-3.05,1.45q0.9,-1.85 0.1,-2.65q-0.4,-0.45 -1.15,-0.35q-0.65,0.1 -1.3,0.55q-0.35,0.25 -1,0.85q-0.65,0.5 -1.15,0.65q-0.2,-0.2 -0.3,-0.65q-0.1,-0.55 -0.2,-0.7q-0.3,-0.55 -1.35,-0.45q-1.55,0.2 -1.8,0.15q-0.8,-0.2 -1.4,-1.35l-0.95,-2q-0.15,-0.2 -1.6,-1.6q-1,-0.95 -1,-1.8q0,-0.5 0.35,-1.1q0.45,-0.65 0.65,-1q0.85,-1.35 0.15,-2.15q-0.4,-0.5 -1.45,-0.45q-1.4,0.1 -1.75,0l1.1,-4q0.1,-0.8 -0.05,-1.05q-0.6,-0.3 -0.85,-0.5q-0.5,-0.35 -0.55,-1.6q-0.05,-1.35 -0.5,-1.75q-0.45,-0.4 -1.15,-0.15q-0.65,0.2 -1.2,0.7q-1.5,1.2 -2.35,0.8q-0.2,-0.5 -0.05,-1.1q0.05,-0.05 0.4,-1.1q0.6,-1.5 -0.2,-2.15q-0.35,-0.3 -0.9,-0.2q-0.55,0.1 -0.9,0.5q-0.45,0.4 -0.9,1.75q-0.9,2.95 -2.75,3.2l0.35,-3.95q0.1,-0.6 -0.15,-0.85q-0.2,-0.15 -1.1,-0.05q-0.55,0.05 -1.8,-0.5q-1.15,-0.45 -1.8,-0.2q-0.65,0.25 -1.15,1.25q-1.35,2.75 -0.55,5.7q0.35,1.4 0.15,1.85q-0.2,0.45 -0.95,0.9q-0.85,0.5 -1.1,0.85q-0.55,0.75 -0.05,1.95q0.3,0.7 1.05,2.05q0.7,1.7 -0.05,3.05q-0.4,0.7 -1.1,1.1q-0.7,0.4 -1.5,0.3q-0.6,-0.1 -1.3,-0.55q-0.8,-0.55 -1.25,-0.85q-1,-0.6 -2.05,-0.7q-1.15,-0.05 -1.95,0.6q-0.4,0.35 -1.1,1.2q-0.3,0.3 -0.75,0.35q-0.45,0.1 -0.75,-0.15q0.25,-0.65 -0.05,-1.95q-0.35,-1.4 -0.2,-2.05q0.2,-0.9 1.65,-2.25q2.4,-2.2 4.3,-5.1q1.1,-1.7 2.9,-5.4l1.55,-3.15q1.3,-2.7 1.75,-3.85q0.85,-2.2 1.15,-4q0.15,-0.8 0.3,-2.45q0.1,-1.65 0.25,-2.45l0.75,-3.3q0.8,-4.2 0.95,-4.65q0.2,-0.55 1,-2.65q0.6,-1.6 0.8,-2.65q0.35,-1.45 0,-2.8q-0.35,-1.5 -1.4,-2.3q-0.27695,-0.18457 -0.6,-0.25q0.0957,-0.34551 0,-0.8q-0.1,-0.3 -0.7,-1.4q-1.1,-2.15 -0.1,-7q1,-4.95 -0.05,-7.05q-1.65,-3.2 -7.2,-4q-1.55,-0.2 -2.1,-0.7q-0.4,-0.3 -0.7,-0.95q-0.55,-1.05 -0.6,-1.1q-0.55,-0.9 -1.8,-1.6q-1.5,-0.75 -2.25,-1.15q-1.25,-0.7 -2,-1.65q-0.85,-1.1 -0.6,-2.25q0.15,-0.65 0.75,-1.4q0.8,-0.8 1.15,-1.25q2.05,-2.3 2.05,-5.65q0,-3.25 -1.9,-5.8q-0.4,-0.55 -2.8,-2.95q-1.8,-1.8 -2.4,-3.25q-0.3,-0.7 -0.6,-2.05q-0.3,-1.45 -0.55,-2.1q-0.4,-1.1 -1.15,-1.85q-0.85,-0.85 -1.85,-0.85q-0.15,-2.3 1.4,-4.8q1,-1.6 3.35,-4.05q2.25,-2.4 3.3,-4.15q1.45,-2.55 1.15,-4.85q-0.5,-1.8 -0.55,-2.7q-0.2,-1.75 0.95,-2.45q0.25,-0.15 1.05,-0.4q0.7,-0.2 1,-0.5q0.5,-0.5 0.5,-1.4q0,-0.1 -0.15,-1.55q-0.1,-0.75 0.1,-2.85q0.2,-1.8 -0.1,-2.85q-0.25,-0.85 -0.95,-1.85q-0.8,-1.1 -1.25,-1.7q-1.55,-2.25 -1.15,-3.9q0.1,-0.4 1.1,-2.15q0.75,-1.25 0.45,-2.1q-0.1,-0.3 -0.55,-0.9q-0.35,-0.55 -0.45,-0.9q-0.2,-0.75 0.6,-1.75q1.1,-1.5 1.2,-1.7q0.5,-1.05 -0.05,-2.3q-0.5,-1.2 -1.55,-1.9q-0.85,-0.6 -2.2,-0.95q-0.15,-0.05 -2.4,-0.55q-1.3,-0.3 -1.7,-0.9q-0.45,-0.7 -0.05,-1.9q0.65,-1.85 0.7,-2.1q0.1,-0.8 -0.35,-1.8q-0.6,-1.1 -0.85,-1.7q-0.85,-1.9 -0.95,-5.7q0,-1.55 0.45,-2.1q0.4,-0.45 1.9,-0.9q0.98945,-0.28262 1.8,-0.8q0.01777,0.11113 0,0.2q0,0.25 -0.15,0.7q0.1,0.35 0.5,0.3q0.45,0 0.6,-0.35q0.2,-0.4 -0.05,-1.4q-0.00586,-0.0332 0,-0.1q0.26094,-0.21719 0.15,-0.55q-0.08066,-0.1748 -0.25,-0.25q-0.01367,-2.07246 1.6,-4.1q0.8,-0.9 0.8,-1.55q-0.05,-0.4 -0.45,-1q-0.5,-0.7 -0.6,-0.95q-0.25,-0.6 0.3,-2.25q0.85,-2.25 1,-4.5q0.2,-2.2 -0.45,-3.6q-0.9,-2.05 -3.2,-2.85q-1.2,-0.35 -1.8,-0.55q-1.05,-0.35 -1.6,-0.85q-0.3,-0.25 -0.75,-0.9q-0.5,-0.65 -0.8,-0.9q-1.2,-0.7 -1.75,-1.15q-0.55,-0.5 -1.3,-2.15q-3.6,-8.1 -8.45,-12.6q-2.9,-2.7 -6.3,-4.2q-3.7,-1.65 -7.4,-1.65q2.75,-4.85 2.3,-10.45q-0.2,-1.55 -0.25,-2.3q-0.1,-1.3 0,-2.3q0.15,-1.2 0.85,-2.15q0.7,-1 1.75,-1.3q1,-0.3 3.05,-0.05q2.05,-0.05 4,-1.65q1.4,-1.15 3.05,-3.45q2,-2.7 2.85,-4.55q1.2,-2.65 0.85,-5q-0.05,-0.35 -0.9,-3.25q-0.55,-2 -0.2,-3.25q0.2,-0.9 1,-1.9q0.45,-0.55 1.4,-1.7q1.7,-2.1 2.5,-4.7q0.75,-2.7 0.35,-5.3q-0.7,-2.7 -0.85,-4.05q-0.15,-1 -0.05,-2.65q0.05,-2.15 0.05,-2.65q-0.05,-2.55 -1.95,-8.8q-1.65,-5.55 -1.2,-8.85q0.05,-0.5 0.45,-2.6q0.35,-1.6 0.3,-2.6q-0.05,-1.6 -1.1,-4.25l-2.15,-5.9q-0.7,-1.9 -0.5,-2.95q0.15,-0.6 0.7,-1.35q0.34395,-0.44219 0.95,-1.3q0.44766,-0.16875 0.65,-0.4q0.45,-0.55 0.7,-0.65q0.25,-0.05 0.6,0.1q2.3,0.85 3.75,2.75l1.55,2.2q0.95,1.15 2.4,2.05q0.9,0.55 2.85,1.45q2,1.2 3.15,3q0.85,1.3 0.9,2.25q0.1,0.75 -0.05,2.25q0.05,1.3 1.2,3.9q1.7,4 2.55,8.45q0.4,2.05 -0.3,3q-1.05,0.85 -1.3,1.45q-0.4,0.9 0.7,2.4l1.35,1.9q0.9,1.3 1.65,1.55q0.6,0.25 1.15,-0.05q0.65,-0.25 0.7,-0.8q0.05,-0.2 -0.05,-0.65q-0.1,-0.4 -0.1,-0.65q0.05,-0.3 0.5,-1q0.5,-0.8 0.55,-1.85q0,-0.40664 -0.1,-0.8q0.70918,0.08906 1.2,-0.5q0.45,-0.65 0.25,-1.3q-0.05,-0.3 -0.6,-1.1q-0.45,-0.65 -0.35,-1.1q0.05,-0.3 0.45,-0.7q0.45,-0.45 0.55,-0.65q0.35,-0.75 -0.4,-2q-1.85,-3.5 -4.45,-7.4q-2.25,-3.3 -1.55,-5.2q0.7,-1.3 1,-1.9q0.55,-1.1 0.15,-1.85q-0.5,-1 -2.6,-1q-1.1,0 -1.4,-0.4q-0.45,-0.5 -0.15,-1.35q0.2,-0.75 0.95,-1.95q0.8,-1.3 1,-1.9q0.7,-1.85 0.1,-5.5q1.5,0.2 2.3,-0.1q1.35,-0.45 1.45,-1.65q0.05,-0.75 -0.95,-2.1q-0.95,-1.3 -0.8,-2.1q0.09629,-0.54531 0.65,-1q0.1207,-0.02363 0.2,-0.05q0.25859,-0.07383 0.5,-0.4q0.04395,-0.02188 0.1,-0.05q1.8,-0.85 2.1,-1.15q0.65,-0.6 0.95,-1.8q0.3,-1.45 0.5,-2.15q0.4,-1.55 2.2,-4q0.95,-1.3 1.6,-1.65q0.25,-0.15 1.05,-0.4q0.65,-0.2 1,-0.45q0.85,-0.65 0.95,-2.2q0.1,-1.9 -1.15,-3.2q-0.04316,-0.04492 -0.1,-0.1q0.0498,-0.10039 0,-0.25l-0.25,-0.4l-0.3,-0.25q-0.2,-0.15 -0.55,-0.15l-0.05,0.05q-0.15684,0 -0.35,0.1q-0.34277,-0.0834 -0.75,-0.1q0.66426,-0.43438 1.4,-1.05q0.09805,-0.07695 0.15,-0.15q0.06914,0.11738 0.2,0.15q0.3,0.15 0.9,-0.35q0.75,-0.6 1.55,-0.6q1,-0.1 1,-0.55q-0.05,-0.35 -0.6,-0.45q-0.35,-0.1 -2.4,-0.4q-1.5,-0.2 -2.25,-0.75q0.55,-0.6 2.3,-0.7l5.6,-0.05q3.4,-0.1 4.65,-0.4q1.25,-0.3 3.1,-1.15q2.55,-1.15 3.1,-1.35q2.1,-0.8 5.4,-1.35q1.85,-0.3 5.5,-0.95q6.40254,-1.29902 9.2,-4.65q0.19922,0.03086 0.4,0q0.95,-0.15 2.8,-1.1q1.75,-0.9 2.8,-1q1.35,-0.15 4,0.55q2.3,0.15 4.25,-1.1q0.6,-0.45 1.85,-1.4q1.35,-0.75 4.45,-0.85q4.9,-0.25 7.9,-0.8q4.25,-0.85 7.25,-2.75q2.05,-1.25 2.75,-1.5q0.8,-0.25 2.5,-0.45q0.65,-0.15 2.35,-0.85q1.4,-0.65 2.3,-0.75q0.85,-0.1 2.6,0.15q1.7,0.25 2.6,0.1q1.5,-0.3 3.7,-2.15q2.35,-1.9 3.7,-2.3q0.35,-0.1 1.25,-0.2q0.75,-0.1 1.2,-0.25q1.45,-0.45 2.65,-1.95q0.8,-0.95 1.8,-2.9l6.7,-12.85q0.6,-1.25 1.25,-1.55q0.45,-0.2 1.5,-0.35q1.2,-0.3 2.3,-1.6q0.65,-0.75 1.8,-2.4q1.75,-2.2 4.4,-3.4q2.7,-1.15 5.5,-0.9q0.3,0 3.2,0.5q1.9,0.3 3.15,0.05q0.95,-0.2 2.15,-0.8q0.65,-0.35 2,-1.1q3,-1.45 6.2,-1.75q1.9,-0.1 2.6,-0.5q0.5,-0.3 1,-0.9q0.3,-0.35 0.85,-1.1q1.45,-2 5.4,-5.15q2.5,-2.05 4.15,-2.85q0.95,-0.5 2.8,-1.2q1.9,-0.7 2.75,-1.15q0.65,-0.35 2.6,-1.6q1.6,-1 2.7,-1.45q2.65,-1 6.7,-0.75q1.9,0.15 5.7,0.5q3.3,0.15 5.5,-0.7q1.7,-0.65 4.85,-2.6q1.95,-0.95 6.35,-1.95q8.35,-1.85 12.7,-2.55q7.1,-1.15 12.85,-1.1q1.4,0 2,0.3q0.75,0.3 1,0.2q0.1041,-0.03477 0.15,-0.1q0.10605,0 0.2,0l5.5,-0.15q1.8,0 2.4,0.25q0.6,0.25 2.25,1.65q1.15,0.9 4.85,2.85q3.15,1.65 4.5,3.25q-0.95,-0.15 -2.45,-1.45q-1.5,-1.3 -2.45,-1.45q-0.53926,-0.12441 -0.65,0.2q-0.07285,-0.01934 -0.15,0q-0.45,0.1 0.05,1.35q0.35,0.95 -1.1,2.75q-1.4,1.8 -0.6,2.85q0.25,0.35 0.85,0.55q0.35,0.1 1.05,0.25q1.3,0.3 2.2,1.35q0.95,1.15 0.75,2.4q-0.05,0.2 -0.35,1.1q-0.25,0.65 -0.2,1.1q0,0.2 0.2,0.85q0.15,0.55 0.1,0.85q0,0.15 -0.4,1.2q-0.3,0.65 0,1.05q0.35,0.45 1.45,0.05q1.2,-0.45 1.65,-0.2q0.25,4.95 3.85,8.35q-0.3,0.5 -1.65,0.95q-1.25,0.4 -1.4,1.1q-0.1,0.55 0.5,1.2q0.85,0.9 0.95,1.2q0.25,0.55 0.4,1.75q0.1,0.35 0.5,0.95q0.45,0.6 0.55,0.95q0.2,0.55 0.15,1.65q-0.05,1.2 0.1,1.7q0.2,0.7 0.95,1.6q1,1.15 1.2,1.5q0.6,1.1 0.9,1.25q0.3,0.2 1.35,0.2q1.15,0.1 2.05,0.8q0.9,0.7 1.25,1.8q0.1,0.35 0.3,1q0.2,0.6 0.55,0.85q0.4,0.25 1.1,0.2q0.4,-0.05 1.2,-0.15q1,0.05 2.45,1.15q1.65,1.25 2.4,1.45q0.85,0.25 2.5,0.25q0.6,0.1 2.35,0.85q1.45,0.65 2.35,0.55q0.5,-0.05 1.85,-0.6q1.1,-0.45 1.8,-0.3q1.5,0.25 1.6,-0.3q0.03672,-0.13437 0,-0.25l0.85,0.1q3.65,0.45 5.7,0.5q3.2,0.1 5.7,-0.4q3.65,-0.8 4.25,-0.8q0.6,0 1.95,0.1q1.25,0.15 1.95,0.1q1.5,-0.1 4,-1.4q2.2,-1.2 3.65,-2.2q1.6,-1.1 4.6,-3.4q3.55,-2.85 4.35,-3.5q4.75,-4.2 8.1,-9.35m-59.55,-15.55q0.6,0.45 0.75,0.95q0.1,0.3 0.15,0.95l0.2,1l0.05,0.85q0.05,0.35 0.35,0.85q0.8,1.45 1.15,1.9q0.85,0.95 0.75,1.45q-0.25,0.25 -0.65,0.2q-0.35,-0.05 -0.65,-0.3q-0.35,-0.45 -0.55,-1.25l-0.45,-1.35q-0.3,-0.5 -0.9,-0.85l-1,-0.6q-0.6,-0.6 -0.75,-1.25l-0.2,-0.65q-0.1,-0.25 -0.4,-0.5q-0.35,-0.3 -0.5,-0.45q-0.2,-0.3 -0.55,-1.3q-0.55,-1.55 -1.9,-2.2l-0.95,-0.5l-0.6,-0.45l-0.9,-0.3q-0.35,-0.25 -0.7,-0.85l-0.8,-1.25q0.5,0.25 1.5,1.05q0.9,0.75 1.5,0.95q0.3,0.1 1.55,0.3q0.9,0.15 1.35,0.5l0.9,1.2q0.5,0.8 1.15,1.2q0.35,0.25 1.1,0.7m-13.15,-8.65l1.05,0.25q0.9,0.35 2.25,1.7l-2.15,-0.75q-0.95,-0.3 -1.7,-0.85l-0.6,-0.4q-0.55,-0.1 -0.6,-0.35q0.45,-0.05 1.75,0.4m-1.95,-0.6q-0.5,0 -0.9,-0.3l-1,-0.8l0.45,0.05l0.5,0.35q0.15,0.05 0.45,0.4q0.3,0.25 0.5,0.3m-248.25,79l0.15,0.05l0.05,-0.05q0.53848,0.27363 0.95,0.85q0.7,1 0.65,2.2q0,0.7 -0.25,1.05q-0.2,0.35 -1.55,1.1q-0.98867,0.48691 -1.8,1.2q-0.01816,-0.1584 -0.05,-0.35q-0.3,-3.05 0.3,-4.35q0.5,-1 0.5,-1.3q0,-0.1668 -0.1,-0.5q0.22363,-0.00391 0.5,-0.05q0.28945,-0.01387 0.55,0.05l0.1,0.1m-5.5,10.9q0.2,-0.7 1.1,-1.25q0.18398,-0.14316 0.45,-0.35q-0.45137,0.9668 -0.8,2.1q-0.5,1.9 -0.65,2.25q-0.5,1.2 -1.3,1.8q1.02422,-1.88594 1.1,-3.25q0,-0.9 0.1,-1.3m-19.1,-6.15q-0.4,0.6 -1,1q-0.25,0.125 -0.4,0.25q-0.55,0 -1.35,-0.25q-0.76113,-0.22207 -1.1,-0.35q0.30898,-0.01172 0.75,-0.05q1.45,-0.2 3.1,-0.6m21.3,-4.95q0.4959,0 1.05,-0.2q0.19687,0.41875 0.15,0.7q0,0.6 -0.65,1.75q-0.15,0.45 -0.15,1.45l0.1,2.35q0,0.85 -0.15,1.25q-0.2,0.45 -0.7,0.85q-1.1,0.75 -1.6,1.15q-0.95,0.65 -1.2,1.4q-0.1,0.45 -0.1,1.4q-0.15,1.25 -0.7,2.6q-0.55,1.2 -0.95,1.55q-0.9,0.75 -1.7,0.3q-0.4,-0.25 -0.95,-1.3q-0.9,-1.85 -2.45,-2.25q-0.65,-0.2 -2.05,-0.1l-4.25,0.35q0.95,-1.25 1.45,-2.65q0.25,-0.6 0,-0.75l-0.4,-0.1q-1.7,-0.1 -3.05,0.05q-0.85,0.1 -1.2,0.45q-0.4,0.45 -0.2,1.6q0.45,1.9 1.7,3.35q-1.2,0.7 -2.55,0.75q-0.45,0 -0.6,0.15q-0.2,0.2 -0.05,0.5q0.15,0.25 0.4,0.35q0.55,0.2 1.55,-0.2l1.45,-0.55q1,-0.35 1,-0.9q0.05,-0.4 -0.55,-1q-1.05,-1.05 -1.45,-2.65q-0.1,-0.35 0.05,-0.65q0.1,-0.15 0.65,-0.25l2.1,-0.1q-0.15,0.85 -0.75,1.5q-0.85,0.95 -0.65,1.45q0.2,0.6 1.45,0.6l5.1,-0.35q1.25,0.15 2.05,1.1q0.3,0.45 0.8,1.5q0.65,0.95 1.25,1.05q0.09316,0.02324 0.3,0q-0.63535,1.125 0.25,2.65q0.15,0.35 0.7,1.25q0.5,0.75 0.65,1.2q0.05,0.45 -0.45,0.7q-0.4,0.25 -0.95,0.25q-0.65,-0.05 -1,0q-0.55,0 -0.85,0.25q-0.45,0.4 -0.45,1.35q0,0.45 0.2,1.85q0.1,1.1 0,1.75q-0.15,0.85 -1.3,2.8q-1.1,1.8 -1.1,2.9q0,0.8 0.45,1.45q0.5,0.75 1.25,0.8q0.45,0.05 1.45,-0.05q0.85,-0.05 1.1,0.45q0.25,0.4 -0.05,1q-0.05,0.05 -0.65,0.95q-1.25,1.85 -0.25,4.35q0.4,1.1 2.3,3.9q1.95,2.75 3.55,6.1q0.35,0.8 0.25,1.1q-0.1,0.4 -0.55,1q-0.75,1.25 0.65,3.7q-1.15,0.1 -1.65,-0.85q-0.35,0.6 0.05,1.3q0.09141,0.16973 0.2,0.3q-0.09395,0.41348 -0.05,1.05q0.2,1.45 -0.6,1.7q-0.5,0.05 -0.75,0.1q-0.2,0 -0.35,0.15q-0.2,0.1 -0.15,0.3q0,0.2 0.4,0.5q0.7,0.55 0.55,1.45q-0.8,0.3 -1.65,-1l-1.7,-2.5q-0.35,-0.55 -0.3,-0.85q0.05,-0.35 0.9,-1.1q1.4,-1.25 0.65,-4.6q-0.75,-3.6 -2.1,-6.85q-1.1,-2.9 -1.25,-3.7q-0.1,-0.45 -0.25,-2.8q-0.15,-1.7 -0.6,-2.7q-0.85,-2 -4,-3.85q-3.65,-2 -4.75,-3.1q-0.5,-0.5 -1.5,-1.9q-0.9,-1.3 -1.55,-1.9q-0.8,-0.65 -2.6,-1.65q-0.85,-0.5 -1.4,-0.35q-0.13965,0.04648 -0.3,0.15q0.30664,-1.46719 0.05,-3.35q-0.1,-0.9 -0.55,-2.7q-0.4,-1.8 -0.55,-2.75q-0.2,-2.2 -0.45,-3.25q-0.01309,-0.05879 -0.05,-0.15q0.83965,0.69746 1.65,1.45q1.15,1.05 1.7,1.25q1.35,0.4 1.9,-0.55q0.6,-1 -0.65,-2.15q-0.65,-0.45 -0.95,-0.7q-0.6,-0.45 -0.9,-0.85q-0.1,-0.15 -0.6,-1.25l-1.6,-4.35q0.5,-0.8 1.55,-0.6q0.05,0 1.7,0.45q0.46953,0.08809 0.9,0.1q0.18516,0.2 0.55,0.2q0.0793,0 0.4,-0.25q0.57305,-0.08535 1.1,-0.3q0.85,-0.4 2.5,-1.45q1.4,-0.7 3.7,-0.9q2.5,-0.2 3.15,-1.2q0.2,-0.3 0.55,-0.95q0.2,-0.2 0.8,-0.5q2.45,-1.2 4,-1.65q2.25,-0.7 4.15,-0.4l1.95,0.3m-33.35,0.25l0.05,0l0.6,0.6q0.15,0.15 1.1,0.9q0.3,0.25 1.25,1.3l0.8,1.1l0.6,1.15q0.35,0.65 0.9,0.85q0.15039,0.0502 0.3,0.05q-0.04688,0.12266 -0.1,0.25q-0.25,0.55 0.2,1.85l1.45,3.75q0.5,1.4 1.05,1.9q0.25,0.2 0.9,0.6q0.65,0.35 0.9,0.6q0.3,0.3 0.25,0.65q-0.15,0.4 -0.65,0.3q-0.3,-0.05 -0.65,-0.4l-3.85,-3.15q-0.30801,-0.46387 -0.7,-0.8q-0.61172,-0.34961 -1.1,-0.65l-0.1,-0.1q0.1,-0.3 -0.2,-0.45q-0.3043,-0.17383 -0.55,-0.05q-0.01777,-0.02305 -0.05,-0.05q-1.5,-1.3 -1.5,-4.6q0.05,-1.65 0,-2.5q-0.05,-1.45 -0.45,-2.45q-0.17168,-0.42949 -0.45,-0.65z" fill="#ffffff"/>
  </g>
 </defs>
 <g>
  <title>Layer 1</title>
  <g stroke="null" id="svg_2">
   <use stroke="null" transform="matrix(0.898894 0 0 0.898894 0 -1.92845e-7)" x="-87.0357" y="-19.32505" id="svg_3" xlink:href="#Layer0_0_FILL"/>
  </g>
 </g>
</svg>