<svg width="1000" height="600" xmlns="http://www.w3.org/2000/svg" xmlns:xlink="http://www.w3.org/1999/xlink" preserveAspectRatio="none" version="1.1">
 <defs>
  <g id="Layer0_0_FILL">
   <path id="svg_1" d="m730.7,92.3q3.65,5.65 8.1,6.05q1.8,0.25 2,0.95q0.1,0.55 -0.5,1.45q-1.15,1.65 -1.55,3.8q-0.25,1.4 -0.1,5.1q0.15,3.25 -0.45,5q-0.75,2.15 -0.8,2.5q-0.1,1.5 1,2.5q0.3,0.3 1.1,0.8q0.75,0.5 1.1,0.9q1.2,1.5 -0.15,4.45q-0.8,1.8 -0.95,2.25q-0.4,1.3 -0.15,2.25q0.5,1.9 2.85,2.55q1.4,0.4 3.95,0q3.65,-0.65 7.2,-2.4q-1.95,4.85 -0.9,10.4q1,5.4 4.55,9.45q0.6,0.7 1.85,2.05q1,1.2 1.45,2.25q0.45,1 0.75,2.85q0.3,2.1 0.55,2.9q0.3,0.95 1.35,2.85q1.05,1.85 1.35,2.9q0.35,1.2 0.65,3.75q0.25,1.2 0.85,3.65q0.45,2.1 0.15,3.6q-1.8,-0.85 -2.65,-0.3q-0.55,0.7 -0.85,0.95q-0.45,0.4 -1.65,0.6q-2.2,0.35 -3.45,0.3q-1.9,-0.05 -3.2,-0.8q-1.4,-1.1 -2.2,-1.45q-0.65,-0.3 -1.3,-0.25q-0.75,0.05 -1.15,0.5q0.25,1.05 2.2,1.7q2.2,0.7 2.75,1.4l0.6,1.05q0.4,0.6 1.1,0.85q0.7,0.25 1.4,0.1q-0.2,0.55 0.4,0.95q0.5,0.4 1.1,0.3q0.8,-0.2 2.15,-1.05q0.9,-0.35 1.9,-0.05q1,0.35 1.5,1.15q-0.25,4.35 1.15,8.55l0.75,2.1q0.4,1.25 0.6,2.1q0.15,0.65 0.3,2.15q0.15,1.4 0.35,2.15q0.2,0.85 0.8,2.5q0.36621,1.22051 0.35,2.1q-0.06348,0.03516 -0.15,0.1q-0.1168,0.07793 -0.2,0.2q-0.12148,0.03848 -0.3,0.15q-0.4,0.25 -0.35,0.6q0.1,0.35 0.45,0.55q0.08867,0.05059 0.15,0.05q-0.05996,1.15664 -0.5,2.55q-0.3,1.1 -1.05,3.25q-1.35,4.7 0.2,9.45q0.6,1.65 1.35,3.15q1.2,2.45 1.8,3.55q1.15,1.95 2.4,3.2q0.45,0.45 2,1.75q1.25,1.05 1.9,1.85q0.85,1 2.3,3.25q0.6,0.7 2.55,2.2q4.15,2.95 6.1,3.8q2.85,1.15 8.55,1.65q-0.25,0.15 -0.15,0.55q0.05,0.4 0.4,0.45q0.65,0.15 1.05,-0.6q0.4,-0.7 -0.05,-1.1q-0.3,-0.3 -0.95,-0.3q-0.08828,-0.00469 -0.2,0q0.19473,-0.09473 0.4,-0.3q0.35,-0.05 0.65,0.35l4.2,4.65q0.55,0.65 0.6,1q0.15,0.6 -0.4,1.3q-0.45,0.65 -1.55,1.65q-1.15,1.05 -1.6,1.6q-0.9,1.15 -1.3,3q-0.25,1.15 -0.4,3.35q-0.1,2.35 0.1,3.2q0.5,1.8 0.45,2.15q-0.05,0.5 -0.25,1.5q0.1,1.1 1.8,2.2q2.9,1.95 4.75,1.7q0.95,-0.15 2.75,-1q2.35,-0.8 6.65,0.15q2.05,0.5 6.15,1.5q3.55,0.8 6.15,1.15q1.55,0.2 4.45,0.4q1.7,0.2 2.4,-0.5q1.15,-1.1 -0.25,-3.4q-0.8,-1.3 -1,-2q-0.4,-1.2 0.05,-2.05l0.55,-0.8q0.35,-0.45 0.35,-0.85q-0.05,-0.9 -1.45,-1.2q-1,-0.25 -2.6,-0.3l-2.65,0q-2.3,-0.15 -5,-1.2q-1.65,-0.6 -4.7,-2.15q-1.95,-1 -2.45,-2q-0.25,-0.5 -0.4,-1.7q-0.15,-1.2 -0.45,-1.75q-0.5,-0.85 -2.65,-1.8q-2,-0.9 -2.2,-2.2q0,-0.85 -0.15,-1.25q-0.25,-0.65 -1.35,-1.05q-1.45,-0.45 -2.15,-0.7q-1.3,-0.45 -2,-1.05q-0.4,-0.3 -1.1,-1.15q-0.7,-0.8 -1.15,-1.15q-0.6,-0.35 -0.9,-0.6q-0.5,-0.35 -0.65,-0.8q-0.15,-0.5 -0.3,-0.55q-0.35,-0.15 -0.55,0.3l-1.1,1.4q-0.2,0.3 -0.25,0.65q0,0.18301 0.05,0.25q-3.45566,-0.23145 -6.9,-1.15q-1.8,-0.55 -2.3,-0.85q-0.55,-0.3 -1.25,-0.9q-1.1,-0.9 -1.2,-1q-0.35,-0.25 -2.1,-1.35q-1.35,-0.8 -2,-1.5q-0.5,-0.55 -1.2,-1.55q-0.8,-1.2 -1.1,-1.6q-0.45,-0.55 -3.05,-3.05q-3,-2.85 -4.85,-6.6q-1.95,-3.75 -2.45,-7.8q-0.2,-1.85 -0.05,-2.75q0.1,-0.8 1.05,-3.55q0.86543,-2.4998 1.15,-5.2q0.65176,-0.65234 0.3,-2.45l-1.35,-5.65q-1.5,-6.2 -2.35,-9.25q-0.55,-1.9 -0.6,-3.05q-0.15,-1.7 0.6,-2.85q0.75,-1.2 0.1,-1.45q-0.2,-0.05 -0.5,0.1q-0.35,0.25 -0.5,0.25q-0.4,0.1 -1.3,-0.6q-1.75,-1.15 -5.2,1q0.15,-0.5 -0.35,-0.9q-0.45,-0.35 -1.15,-0.5q-1.75,-0.25 -1.7,-1.2q1.2,0.25 2.8,0.15q0.75,-0.05 2.8,-0.25q1.75,-0.2 2.25,-1q0.55,-0.8 0.7,-0.85q0.25,-0.05 0.6,0.15q0.2,0.15 0.6,0.4q0.45,0.2 0.95,-0.05q0.5,-0.25 0.7,-0.75q0.3,-0.65 0.1,-2.05q-0.5,-3.9 -0.9,-5.75q-0.6,-3.15 -1.65,-5.5q-0.8,-1.55 -1.15,-2.35q-0.65,-1.4 -0.95,-2.4q-0.35,-3.05 -0.85,-4.45q-0.45,-1.4 -1.8,-3q-1.6,-1.8 -2.35,-2.75q-3.25,-3.95 -4.1,-9.05q-0.85,-5.25 1.3,-9.65q0.55,-1.05 0,-1.35q-0.3,-0.2 -0.95,0.1q-5.2,2.5 -8.8,2.85q-3.35,0.4 -4.3,-1.6q-0.45,-0.85 -0.1,-2.05q0.15,-0.7 0.85,-2.1q1.9,-4.15 -0.15,-6q-0.25,-0.2 -1.35,-0.85q-0.85,-0.5 -1.15,-1q-0.3,-0.65 -0.1,-1.65q0.4,-1.1 0.55,-1.65q0.6,-1.75 0.5,-4.85q-0.15,-3.65 0.05,-4.9q0.4,-2.3 1.5,-4.05q0.9,-1.45 0.8,-2.15q-0.15,-1 -1.45,-1.5q-0.05,0 -2.2,-0.45q-4.1,-0.85 -7.55,-6.75q-2.4,-4.05 -2.75,-4.55q-1.65,-2.5 -3.55,-3.75q-1.05,-0.65 -1.8,-0.5q-0.35,0.1 -1.35,0.9q-0.8,0.65 -1.35,0.4q-0.65,-3 0.1,-6.8q0.45,-2.3 1.9,-6.65q1.35,-4.15 2.35,-6.25q0.6,-1.25 0.85,-1.85q0.5,-1.1 0.65,-1.9l0.25,-1.5q0.1,-0.95 0.35,-1.5q0.5,-1 0.6,-1.3q0.3,-0.85 -0.25,-1.3q-0.25,-0.25 -0.65,-0.15q-0.4,0.1 -0.5,0.45q-0.05,0.35 0.35,1q0.1,0.45 -0.35,1q-0.55,0.75 -0.65,1q-0.15,0.45 0.05,1.45q0,0.85 -0.65,2.15q-2.8,6.15 -4,10q-1.75,5.7 -1.6,10.55q0,1.25 0.4,1.9q0.25,0.45 0.75,0.7q0.45,0.25 0.9,0.1q0.35,-0.1 0.8,-0.55q0.5,-0.5 0.75,-0.6q1.05,-0.5 2.5,0.85q1.55,1.45 3.2,4.05q0.9,1.5 2.7,4.5m67.9,152.85q0.55,0.15 1.05,0.8q0.3,0.35 0.85,1.05q0.85,0.9 2.85,1.55q2.35,0.8 3.1,1.3q-0.25,0.7 0.05,1.5q0.25,0.75 0.9,1.3q0.45,0.45 2.7,1.55q0.95,0.35 1.25,0.95q0.25,0.35 0.35,1.55q0.1,1.55 0.75,2.45q0.55,0.75 2.25,1.6q3.45,1.8 5.45,2.55q3.1,1.15 5.75,1.15q0.85,0 2.6,-0.05q1.55,0.1 2.45,0.7q-0.75,0.5 -1.05,1.5q-0.25,0.9 0,1.85q0.15,0.8 0.65,1.75q0.25,0.6 0.85,1.7q0.4,0.65 0.2,1.1q-0.25,0.55 -1.4,0.55q-3.3,-0.1 -4.9,-0.3q-1.35,-0.2 -4.2,-0.9l-3.65,-0.85q-5,-1.2 -7.5,-1.45q-2.85,-0.25 -4.55,0.45l-1.8,0.75q-1.6,0.4 -4.15,-1.35q-1.05,-0.6 -1.2,-1.25q-0.05,-0.2 0.1,-1.55q0.05,-0.6 -0.2,-1.35q-0.25,-0.9 -0.35,-1.35q-0.35,-1.65 0.15,-4.45q0.4,-2.65 1.1,-3.75q0.45,-0.75 1.75,-1.9q1.3,-1.2 1.75,-1.9q0.55,-1.05 0.45,-1.8q-0.1,-0.65 -1,-1.65l-3.4,-3.8m49.2,25.65q-3.85,-0.95 -5.8,-1.5q-4.85,-1.35 -9.15,-4.15q-0.15,-0.15 -0.4,-0.15q-0.4,-0.05 -0.4,0.5q-0.05,0.45 0.15,0.9q1.65,3.5 1.4,7.2q-0.1,1.95 0.65,2.4q0.3,0.2 1.1,0.2q3.4,0.15 5.15,0.45q2.85,0.45 4.85,1.5q1.2,0.65 1.75,1.4q0.4,0.55 0.9,1.75q0.35,1.05 0.9,2.15q0.5,1.1 0.9,1.55q0.5,0.65 1.8,1.6q0.7,0.7 1.5,2.1q1,1.8 1.3,2.25q1.95,2.75 5.45,3.15q1.4,0.15 4.9,-0.5q3.15,-0.6 4.85,-0.15q0.9,0.2 2.25,0.9q1.6,0.85 2.25,1.05q0.6,0.3 1,0.05q0.45,-0.2 0.45,-1.45q-0.1,-1.5 0.5,-4.6l2,-10q1.3,-6.5 2.8,-9.6q0.7,-1.65 0,-2.1q-0.75,-0.45 -1.9,0.8q-5.25,6.25 -11,7.35q-4.3,0.75 -10.3,-1.35q-1,-0.35 -4.9,-1.95q-3,-1.2 -4.95,-1.75m-14.05,-3.85q5,2.7 10.55,4.05q1.35,0.35 4,1q0.55,0.15 8.7,3.3q5.15,2 8.8,1.8q7.45,-0.4 14.35,-8.3q-2.25,5.1 -3.05,10.3l-0.55,3.4q-0.35,2 -1.4,5.9q-0.75,3.5 -0.5,5.95q-0.75,-0.05 -1.7,-0.5q-1.1,-0.55 -1.65,-0.8q-2.3,-1.05 -4.9,-0.8q-0.7,0.05 -1.9,0.3q-1.3,0.3 -1.85,0.35q-2.2,0.35 -4.2,-0.25q-2.15,-0.65 -3.35,-2.25q-0.4,-0.5 -1.2,-2.25q-0.7,-1.45 -1.4,-2.1q-1.25,-0.85 -1.75,-1.35q-0.4,-0.5 -1.05,-2.1q-0.65,-1.6 -1.65,-3.05q-1,-1.4 -1.7,-1.9q-1.25,-0.95 -3.35,-1.5q-3.15,-0.8 -8.3,-1q0,-4.25 -0.95,-8.2m254.4,-48.55q-0.3,-0.5 -1.25,0.1q-3.75,2.4 -10.45,8.05q-6.85,5.65 -10.5,8.05q-1.05,0.65 -5.1,3.05q-3.15,1.85 -5,3.2q-1.75,1.4 -2.65,2.1q-1.6,1.25 -2.85,1.9q-1.65,0.95 -4.85,2q-7.5,2.5 -11.25,3.8q-6.5,2.25 -11,4.4q-2.3,1.1 -3.45,1.6q-2,0.95 -3.5,1.4q-1.7,0.55 -4.95,1.15q-3.5,0.6 -5,1.05q-1.65,0.5 -4.2,1.6q-3.25,1.4 -4.15,1.75q-1.75,0.65 -5.2,1.55q-3.6,0.95 -5.25,1.5q-1.7,0.55 -4.75,1.95q-3.25,1.4 -4.8,1.95q-6,2.1 -15.45,2.3q-10.6,-0.05 -15.85,0.35q-7.7,0.65 -19.9,3.7q-4.7,1.2 -7.1,1.15q-1.75,-0.05 -5.8,-1.1q-3.75,-0.95 -5.85,-0.85q-1.15,0.05 -2.95,0.5q-2.5,0.6 -2.9,0.65q-1.35,0.25 -3.2,0.35q-0.6,0.05 -3.2,0.1q-3.3,0 -4.75,-0.8q-1.3,-0.7 -3,-3.3q-1.7,-2.55 -3.05,-3.25q-0.45,-0.25 -1,-0.1q-0.55,0.15 -0.4,0.6q0.1,0.25 0.7,0.5q1.5,0.5 3.05,2.85q1.75,2.65 2.75,3.35q1,0.7 2.55,0.95q0.9,0.15 2.75,0.2q4.55,0 6.35,-0.3q0.05,0 4.15,-0.9q2.5,-0.55 4.2,-0.45q1.45,0.1 4,0.9q2.75,0.85 3.95,1.05q2.3,0.35 5.2,-0.2q1.15,-0.25 5.15,-1.3q12.4,-3.25 25.2,-3.55q3.6,-0.05 10.75,-0.05q6.2,-0.2 10.6,-1.4q2.4,-0.65 6,-2.1q5,-2.1 5.85,-2.4q1.7,-0.6 4.9,-1.55q3.4,-1 4.85,-1.5q0.6,-0.2 4.65,-1.75q2.8,-1.05 4.65,-1.6q1.7,-0.5 6,-1.5q3.9,-0.85 6,-1.6q1.8,-0.65 4.35,-1.85q1.4,-0.65 4.25,-2q2.8,-1.25 10.75,-4l9.3,-3.15q3,-0.95 4.4,-1.8q0.9,-0.5 2.05,-1.35q0.65,-0.5 1.9,-1.55q2.2,-1.75 6.2,-4.1q4.95,-3 6.4,-3.95q2.65,-1.75 6.1,-4.6q2,-1.65 5.9,-4.9q3.9,-3.2 7.3,-5.3q-0.95,2.2 0.05,4.25q-1.5,0.9 -3.45,2.45q-2.2,1.75 -3.35,2.6q-3.65,2.8 -10.55,6.9l-6.15,3.75q-18.6,11.3 -28.15,16.5q-5,2.75 -5.7,3.15q-3.2,1.85 -5.45,3.55q-1.9,1.45 -2.85,2.15q-1.7,1.3 -3,1.95q-1.8,0.95 -5.45,2q-3.8,1.1 -5.45,1.9q-3.5,2.15 -5.4,2.8q-1.9,0.6 -4.5,0.6q-0.85,-0.05 -4.65,-0.35q-6.1,-0.45 -9.85,0.6q-1.65,0.5 -5.15,2.15q-6.35,2.95 -13.7,5.65q-0.95,0.4 -1.35,-0.05q-0.25,-0.4 -0.4,-0.6q-0.1,-0.1 -0.35,-0.1q-0.2,0 -0.25,0.15q0.16621,0.77539 0.5,1.4q-0.01113,0.06113 -0.05,0.1q-0.25,0.25 -0.1,0.45q0.1,0.1 0.6,0.25q0.07109,0.01094 0.15,0q0.0709,0.1166 0.15,0.2l0.15,-0.1q0.50645,0.25801 1.15,0.8q1,0.9 1.55,1.05q0.4,0.1 1.05,0.1l1.05,-0.1q1.45,-0.1 1.85,0.8q0.2,0.5 -0.1,1.45q-0.3,1.05 -0.25,1.45q0.15,0.7 0.95,1.25q0.45,0.3 1.45,0.85q1.25,0.85 1.55,2.35q0.25,1.05 -0.25,2q-0.3,0.55 -1.45,1.6q-2.75,2.45 -2.2,4.7q0.15,0.6 1.55,2.55q1,1.45 0.65,2.5q-0.05,0.2 -0.35,0.7q-0.25,0.45 -0.3,0.75q-0.2,0.85 0.7,2q1.45,1.95 3.55,3.5q0.65,0.45 1.9,1.25q1.1,0.75 1.8,1.4q1.25,1.25 2.7,4.25q2.3,4.5 3.4,7.25q0.9,2.3 1.7,3.25q0.4,0.5 1.35,1.35q0.95,0.8 1.35,1.3q1.15,1.45 1.45,4.15q0.2,1.5 0.5,4.6q0.15,1 0.7,2.8q0.55,1.9 0.7,2.75q0.55,3.6 -1.05,5.5q-1.1,1.3 -3.05,1.65q-1.75,0.3 -3.6,-0.2q-2.05,-0.45 -2.8,-0.15q-0.75,0.3 -1.35,1.4q-0.6,1.3 -0.95,1.85q-1.25,2.15 -6,3.9q-4.75,1.8 -6,3.85q-1,1.55 -0.35,2.9q0.4,0.8 2.25,1.7q1.7,0.9 2.05,1.8q0.25,0.7 -0.2,2.25l-2.55,8.85q-0.55,1.85 -1,2.75q-0.75,1.5 -1.85,2.15q-0.8,0.5 -2.4,0.8q-1.95,0.35 -2.55,0.55q-0.9,0.35 -1.15,0.95q-0.45,1.15 1.3,2.35q1.1,0.75 3.25,2.25q1.8,1.35 2.8,2.7q0.25,0.4 1.05,1.65q0.6,1.05 1.1,1.6q0.55,0.65 1.8,1.9q1,1.1 1.1,2.15q0.1,0.95 -0.55,1.3q-0.3,0.2 -0.85,0.1q-0.6,-0.15 -0.95,-0.2q-1.8,-0.25 -3.3,2.05q-0.7,1.2 -1.05,1.8q-0.65,1 -1.35,1.5q-1.55,0.8 -2.2,1.3q-0.55,0.45 -0.75,1.05q-0.25,0.7 0.05,1.2q0.35,0.45 1.05,0.6q0.3,0.1 1.3,0.15q4.55,0.25 8.75,4.65q2,2.2 3.35,2.6q0.35,0.1 1,0.25q0.55,0.1 0.9,0.35q0.65,0.45 1,2q0.4,1.55 1,1.95q-1.9,0 -3.1,0.7q-0.7,0.45 -1.05,1.25q-0.35,0.8 -0.1,1.5q-0.4,0.35 -1.8,0.25q-0.5,-0.05 -0.9,0.2q-0.5,0.25 -0.5,0.7q0,0.3 0.55,0.85l2,1.85q1,0.9 1.25,1.55q0.15,0.5 0.25,1.5q0.15,0.75 0.7,1.7q0.3,0.5 0.95,1.55q0.9,1.75 1.25,2.2q0.85,1.15 1.9,1.1q1,-0.05 1.6,-1.1q0.55,-1 0.4,-2.1q-0.2,-1.45 0.05,-1.85q0.4,-0.6 1.75,-0.7l5.1,-0.35q0.45,0.45 1.15,1.9q0.65,1.25 1.3,1.75q0.55,0.4 1.5,0.65q0.55,0.1 1.65,0.3q2.27285,0.64941 3.55,2.35q-0.58379,-0.01113 -1.2,0.75q-0.25,0.35 -0.25,0.55q0.05,0.25 0.3,0.4q0.2,0.15 0.45,0.05q0.4,-0.05 0.8,-0.55q0.3,1.05 1.15,1.75q0.8,0.75 1.85,0.85q0.3,0.05 1.4,0q0.85,0 1.35,0.15q0.7,0.2 1.45,1q1.15,1.1 1.35,1.25q2.4,1.7 7.45,-0.4q-0.35,1.5 -2.3,2.55q-2.2,0.9 -3.15,1.6q-1.45,1.05 -2.65,3.7q-1.55,3.5 -2.05,4.2q-1,1.3 -1.45,1.95q-0.8,1.15 -0.9,2.1q-0.1,1.2 0.85,2.85q1.25,2.2 1.4,2.8q0.4,1.4 -0.05,3.65q-0.7,3.35 -0.75,3.75q-0.2,2.45 1.25,3.35q0.75,0.55 2.5,0.45l3.7,-0.1q1.35,0 1.85,0.4q0.35,0.25 0.7,0.95q0.4,0.75 0.65,1q0.8,0.75 2.85,0.55q5.35,-0.7 8.6,-2.15q0.7,-0.3 4.9,-2.6q0.6,-0.35 5.8,-2.85q2.4,-1.1 3.8,-1.25q1.6,-0.15 4.5,0.8q3.05,0.95 4.55,0.9q1.45,-0.05 4.3,-0.8q1.65,-0.2 4.95,0.05q3.3,0 6.45,-1.3l3.05,7.15q-0.9,1.2 -3,1.75q-2.5,0.5 -3.65,0.9q-1.05,0.4 -1.2,0.95q-0.2,0.5 0.35,1.8q0.6,1.6 0.2,5q-0.7,5.6 -1.85,8.4q-0.75,1.85 -2.6,4.75l-3.3,5.05q-2.45,3.6 -3.55,5.7q-1.8,3.2 -2.45,6.1q-0.3,1.3 -0.8,3.85q-0.55,1.75 -1.35,3.2q-2.05,3.85 -5.55,6.45q-1.2,0.9 -1.55,1.3q-0.8,0.8 -0.9,1.7q-0.05,0.85 0.7,2.1q1.5,2.15 3.9,3q1.25,0.45 1.35,1q0.05,0.5 -0.6,1.25l-3.85,3.8q-2.35,2.25 -2.9,3.95q-0.4,1.2 -0.05,2.45q0.4,1.3 1.45,1.85q-2.1,-0.25 -3.75,-1.7q-1.7,-1.4 -2.3,-3.4q-0.35,-2.15 -0.6,-3.2q-0.35,-1.9 -1.35,-2.75q-0.8,-0.7 -2.2,-0.95q-1.65,-0.25 -2.45,-0.4q-2.2,-0.4 -6.85,-2.8q-4.2,-2.2 -6.85,-2.3q-0.4,0 -3.25,0.2q-1.95,0.15 -3.15,-0.2q-0.75,-0.25 -2.05,-0.95q-1.4,-0.75 -2.05,-1q-1.75,-0.6 -3.8,-0.1q-1.9,0.45 -3.5,1.7q-2.1,1.6 -5,5.9q-0.9,1.35 -1.2,2.3q-0.35,1.55 0.55,2.45q-2.05,1.25 -3.1,3.55q-1.05,2.35 -0.6,4.7q0.05,0.3 0.5,2q0.35,1.2 0.35,2q0,0.4 -0.15,1.45q-0.15,0.95 -0.1,1.45q0.1,0.75 0.6,1.35q0.55,0.6 1.25,0.55q0.4,-0.4 0.1,-1.05q-0.35,-0.6 -0.9,-0.5q0.35,-1.45 0.05,-3.55q-0.45,-2.35 -0.65,-3.55q-0.7,-4.8 1.9,-6.55q0.35,-0.2 1.1,-0.65q0.55,-0.45 0.6,-0.95q0.05,-0.35 -0.15,-0.95q-0.3,-0.7 -0.3,-0.95q-0.1,-0.7 0.6,-1.9q2.55,-4.2 4.4,-5.75q1.45,-1.25 3.15,-1.85q1.85,-0.6 3.55,-0.2q0.95,0.2 2.95,1.25q1.8,0.9 2.9,1.05q1.5,0.2 4.45,-0.3q2.8,-0.1 7.3,2.2q4.95,2.6 7.2,2.9q0.75,0.15 2.3,0.3q1.35,0.3 2,1q0.65,0.65 0.85,1.9q0.15,0.7 0.3,2.15q0.5,2.75 2.8,4.85q2.1,2 5,2.75q0.55,0.2 0.95,0q0.3,-0.2 0.3,-0.65q-0.05,-0.45 -0.3,-0.7q-0.85,-0.6 -1.25,-0.95q-0.6,-0.55 -0.75,-1.45q-0.2,-0.85 0.05,-1.65q0.4,-1.2 1.8,-2.8q1.3,-1.5 3.35,-3.2q1.7,-1.35 2.05,-2.25q0.55,-1.1 -0.05,-1.95q-0.25,-0.35 -1.45,-0.95q-2.1,-0.95 -3.6,-2.7q-0.85,-0.95 -0.65,-1.7q0.1,-0.55 1.15,-1.3q4.2,-2.95 7.3,-8.5q0.65,-1.15 1,-2.25q0.15,-0.6 0.4,-2.85q0.4,-2.9 2.1,-6.15q1.05,-2 3.45,-5.55l3.1,-4.7q2.5,-3.8 3.35,-5.95q1.35,-3.25 2.1,-9.15q0.3,-2.1 0.2,-3.4q-0.05,-1.9 -0.85,-3.2q3.7,-0.45 6.85,-2.3q0.9,-0.6 1.1,-1.05q0.25,-0.7 -0.35,-1.9l-2.15,-4.7q-0.6,-1.25 -1.25,-1.65q-0.75,-0.4 -1.8,-0.1q-1.2,0.45 -1.8,0.65q-1.45,0.5 -4,0.3q-3.05,-0.2 -4.05,-0.05q-2.65,0.65 -4,0.75q-1.6,0.1 -4.7,-0.8q-3.15,-0.9 -4.75,-0.8q-1.75,0.1 -4.3,1.35q-1.4,0.65 -4.95,2.55q-3.1,1.65 -5,2.5q-6,2.65 -10.75,2.45q-0.05,-0.95 -0.8,-1.75q-0.7,-0.7 -1.75,-0.95q-1,-0.25 -3.95,-0.05q-2.6,0.1 -3.85,-0.8q-0.15,-1.25 0.1,-3.05q0.35,-2 0.45,-3.05q0.55,-3.85 -0.95,-5.95q-1.05,-1.3 -1.15,-1.7q-0.2,-0.75 0.55,-2.25l3.15,-6.05q1.3,-2.6 2.45,-3.65q0.75,-0.7 2.9,-2q1.75,-1.05 5.05,-3.45q0.6,-0.35 0.45,-0.75q-0.05,-0.3 -0.6,-0.4q-1,-0.2 -2.35,0.1l-2.35,0.7q-3,1 -4.65,-0.15q-0.35,-0.25 -1.2,-1.2q-0.7,-0.75 -1.25,-1.05q-0.65,-0.3 -2.75,-0.3q-1.39453,0 -2.05,-0.5q0.07734,-0.05918 0.15,-0.15q0.25,-0.3 0.2,-0.65q-0.05,-0.4 -0.6,-1.05q-1.4,-1.65 -2.35,-2.4q-1.4,-1.2 -2.85,-1.5q-1.1,-0.15 -1.6,-0.25q-0.9,-0.2 -1.35,-0.65q-0.3,-0.4 -0.6,-1.2q-0.3,-0.9 -0.5,-1.25q-0.85,-1.35 -3.6,-1.25q-2.1,0.1 -4.2,0.6q-1.1,0.3 -1.5,0.8q-0.35,0.45 -0.35,1.2q0,0.05 0.15,1.35q0.1,0.75 -0.15,1.35q-0.25,0.7 -0.85,0.8q-0.95,0.2 -1.55,-1q-0.4,-1.25 -0.7,-1.85q-0.15,-0.25 -0.9,-1.15q-0.6,-0.7 -0.7,-1.25q0.05,-1.05 0,-1.55q-0.15,-0.7 -1.1,-1.75l-2.5,-2.45q1.15,0.05 1.95,-0.25q0.95,-0.4 1,-1.2q-0.1,-0.7 -0.05,-1.05q0.15,-1.05 1.5,-1.15q0.7,-0.05 2.05,0.05q0.55,-0.1 0.75,-0.4q0.15,-0.25 -0.1,-0.85l-1.1,-2.4q-0.8,-1.85 -1.7,-2.4q-0.35,-0.25 -0.9,-0.45q-0.65,-0.15 -1,-0.3q-1.25,-0.5 -2.85,-2.1q-2.05,-2 -2.9,-2.65q-1.7,-1.35 -3.4,-1.8q-1.7,-0.3 -2.6,-0.45q-1.5,-0.25 -2.3,-0.95q2.4,-0.85 3.9,-2.9q0.15,-0.25 0.9,-1.45q0.6,-0.9 1.05,-1.4q0.6,-0.7 1.4,-1q0.9,-0.4 1.7,-0.1q0.3,0.1 0.85,0.35q0.45,0.2 0.8,0q0.55,-0.2 0.55,-1.45q-0.1,-2.2 -0.55,-3q-0.25,-0.55 -1.8,-2.1q-0.8,-0.8 -2.9,-3.75q-1.7,-2.4 -3.15,-3.4q-1.55,-0.9 -2.25,-1.35q-1.3,-0.85 -1.8,-1.8q0.75,-0.3 3.15,-0.8q1.95,-0.45 2.95,-1.15q1.8,-1.3 2.9,-5.25l2.55,-8.65q0.7,-2.2 0.2,-3.4q-0.45,-1 -2,-1.85q-2.15,-1.1 -2.5,-1.4q0,-1.6 1.3,-2.95q1.15,-1.2 2.9,-1.9q0.1,-0.05 3.25,-1.15q1.95,-0.7 3,-1.5q1.6,-1.25 2.5,-3.25q0.7,-1.45 1.2,-1.75q0.45,-0.25 1.15,-0.2q0.35,0.05 1.2,0.25q1.95,0.55 3.75,0.3q2.05,-0.3 3.3,-1.5q2.6,-2.4 1.75,-7.35q-0.2,-0.95 -1,-3.85q-0.65,-2.35 -0.8,-3.85q-0.05,-1.55 -0.1,-2.35q-0.1,-1.45 -0.45,-2.35q-0.45,-1.1 -1.7,-2.45l-2.05,-2.2q-1.05,-1.4 -2.2,-4.05l-2.7,-5.85q-1.5,-3.3 -2.85,-4.65q-0.75,-0.75 -2.1,-1.6q-2.1,-1.4 -2.25,-1.5q-2.4,-1.8 -3.7,-4.35q0.7,-0.25 1,-1.05q0.25,-0.75 0.05,-1.55q-0.2,-0.7 -1.45,-2.65q-1.15,-1.55 -0.9,-2.8q0.2,-1.1 1.9,-2.55q1.75,-1.55 2,-2.55q0.35,-1.25 -0.9,-3.65q-0.85,-1.55 -1.6,-1.85q-0.55,-0.15 -0.8,-0.25q-0.45,-0.2 -0.6,-0.5q-0.2,-0.4 0.05,-1.05q0.45,-1 0.45,-1.1q0.15,-0.85 -0.6,-1.55q-0.65,-0.65 -1.6,-0.85q-2.5,-0.1 -3.55,-0.7l-1.05,-0.75l14,-5.95q3.75,-1.7 6.15,-2.25q2.55,-0.6 5.9,-0.55q2,0 5.9,0.35q3.1,0.3 4.6,-0.05q1.1,-0.25 2.5,-0.95q0.75,-0.4 2.3,-1.3q2.8,-1.55 6.05,-2.55q0.9,-0.25 2.75,-0.75q1.65,-0.5 2.75,-0.95q1.75,-0.75 5.95,-3.65q5.15,-3.6 15.3,-9.5l7.35,-4.3q14.1,-8.2 24.3,-14.3q6.55,-3.95 9.9,-6.45q0.8,-0.6 3.65,-2.85q2.25,-1.75 3.7,-2.75q0.75,-0.55 0.8,-0.95q0,-0.25 -0.45,-1.05q-0.4,-0.75 -0.1,-1.85q0.1,-0.3 0.75,-1.95q0.25,-0.55 0,-0.85m-123.35,380.75q0.75,-1.5 1.2,-2.25q1.7,-2.8 6.25,-6.35q5.1,-4 6.75,-6.1q1.75,-2.25 2.65,-5q0.05,-0.15 1.1,-3.95q0.65,-2.35 1.55,-3.7q0.6,-0.95 0.5,-1.35q-0.05,-0.35 -0.4,-0.6q-0.3,-0.25 -0.75,-0.25q-0.5,-0.05 -1.5,0.35q-0.5,0.2 -0.55,0.55q-0.05,0.3 0.35,0.4q0.35,0.1 0.7,0q0.9,-0.45 1.25,-0.25q-1.25,1.75 -2.25,5.2q-1.15,4.15 -1.8,5.5q-1.65,3.4 -7.6,8q-6,4.7 -7.7,8q-1.2,2.95 -2.05,4.3q-0.7,1 -1.05,1.45q-0.6,0.9 -0.85,1.55q-0.5,1.2 -0.4,3.85q0.15,2.6 0.45,4.05q0.5,2.25 1.65,3.6q-0.35,-0.25 -0.85,-0.1q-0.5,0.1 -0.85,0.45q-0.45,0.6 -0.75,1.7q-1.85,6.25 -2.05,9.9q-0.1,1.6 -0.3,2.35q-0.35,1.25 -1.2,1.7q-0.25,-1.05 -1.55,-1.15q-0.65,-0.05 -1.95,0.5q-4.6,2.1 -8.1,5.75q-2.2,2.3 -3.05,2.9q-0.55,0.45 -1.6,0.95q-1.3,0.65 -1.65,0.9q-1.55,1.1 -3.05,3.2q-1.7,2.6 -2.15,5.45q-0.45,3.15 0.8,5.6q-6.25,-1.45 -9.2,-1.5q-1.5,0.05 -2.25,0.05q-1.35,0 -2.3,-0.2q-0.8,-0.15 -2.15,-0.7q-1.55,-0.6 -2.2,-0.75q-2.9,-0.75 -9.75,0.55q-6.35,1.2 -9.5,-0.15q-2,-0.9 -2.4,-0.95q-1.65,-0.35 -2.35,0.75q-0.15,0.25 -0.3,0.8q-0.15,0.6 -0.25,0.85q-0.3,0.8 -1.15,1.35q-0.85,0.45 -1.8,0.5q-0.8,0.05 -1.85,-0.2q-1.2,-0.35 -1.8,-0.5q-1.7,-0.4 -2.6,-0.3q0.45,1.1 2.65,1.5q3.35,0.7 4.95,0.2q1.3,-0.35 2.1,-1.35q0.9,-1.1 0.7,-2.3q0.85,-0.5 2.2,-0.1q0.05,0.05 2.25,0.95q1.8,0.75 4.35,0.65q1.05,-0.05 7.85,-1.2q4.75,-0.8 7.65,0.2l1.7,0.75q1.05,0.4 1.75,0.6q1.2,0.3 3.2,0.15q2.6,-0.2 3.25,-0.15q1.45,0.05 3.35,0.6q1.1,0.3 3.3,1q1.15,0.25 1.45,-0.25q0.25,-0.35 -0.05,-1.2q-1.15,-3.25 -0.15,-6.8q1,-3.55 3.7,-5.7q0.5,-0.4 3.05,-2.05q1.95,-1.25 3.6,-2.85q0.65,-0.65 1.95,-1.95q1.1,-1.15 2.05,-1.8q1.8,-1.3 5.65,-2.8q0.3,0.9 1.45,0.95q1.1,0.05 1.75,-0.7q0.55,-0.65 0.75,-1.75q0.1,-0.4 0.2,-2q0.3,-6.05 2.7,-11.45q0.15,0.4 0.65,0.4q0.5,0.05 0.8,-0.3q0.6,-0.6 0.2,-1.65q-0.1,-0.2 -0.85,-1.5q-0.95,-1.65 -1.15,-4.5q-0.25,-2.35 0.2,-3.85q0.3,-0.95 1,-2.15q0.4,-0.65 1.25,-2q0.45,-0.7 1.2,-2.3m-162.2,4.45q0.1,-0.1 0.85,-1q1.2,-1.3 2.2,-1.05q-1.6,2.05 -1.05,3.25q0.4,0.9 1.95,1.25q2.15,0.45 2.5,0.6q-0.3,0.55 0.2,1.15q0.5,0.55 1.15,0.55q0.8,0.05 2.45,-0.95q1.55,-0.85 2.5,-0.5q0.45,0.2 1.3,0.9q0.95,0.6 2.15,0.25q1.15,-0.35 1.65,-1.35q0.05,-0.1 0.4,-1.1q0.25,-0.7 0.6,-1q0.45,-0.35 1.75,-0.45q1.95,-0.15 3.35,-0.7q1.25,-0.45 2.05,-1.25q0.95,-1 0.8,-2.05l1.85,0.6q-0.2,-0.75 1.1,-1.1l0,-0.05q-2.01094,5.61523 -5.35,10.25q-3.75,4.65 -5.35,7.2q-2.85,4.45 -2.65,8.4q0.1,1.45 0.65,3.3q0.3,1.05 1,3.15q0.35,1.05 1.95,7.35q1.15,4.5 2.45,7.15q0.8,1.55 1.7,1.9q0.85,0.35 2.1,-0.25q0.65,-0.3 2.05,-1.05q1.45,-0.6 3.55,-0.25q0.7,0.15 3.6,1q2.6,0.7 6.15,1.15q3.55,0.45 5.7,0.35q2.2,-0.2 3.1,0.1q0.6,0.2 1.3,0.75q0.4,0.3 1.15,0.9q2.45,1.8 5.45,1.35q0.9,-0.1 2.7,-0.5q1.55,-0.2 2.4,0.5q0.7,0.55 1.2,2.05q0.4,1 0.45,1.6q0.05,0.8 -0.35,1.85q-0.2,0.65 -0.7,1.85q-0.3,1 -0.05,1.95q0.25,1.05 1.1,1.35q0.8,0.25 1.6,-0.3q0.75,-0.5 1.05,-1.4q0.25,-0.5 0.5,-1.65q0.25,-1.1 0.45,-1.65q0.5,-1.2 1.6,-2q1.1,-0.75 2.35,-0.85q0.8,-0.05 2.45,0.25q1.6,0.35 2.45,0.25q0.75,-0.1 1.05,-0.5q0.65,-0.95 -0.95,-2.2q-0.25,-0.05 -0.4,0.2q-0.15,0.2 -0.1,0.45q0.05,0.3 0.55,0.8q-0.95,0.3 -2.45,0.05q-2,-0.35 -2.45,-0.35q-1.9,0.05 -3.4,1.4q-1.5,1.3 -1.9,3.2l-0.2,1.15q-0.15,0.7 -0.4,1.1q-0.3,0.55 -0.9,0.8q-0.6,0.3 -1.05,0.05q-0.25,-1.05 0.45,-2.85q0.8,-2.05 0.8,-2.9q0,-0.65 -0.4,-1.85q-0.8,-2.45 -2,-3.1q-1.1,-0.65 -2.9,-0.25q-2.1,0.55 -3.15,0.6q-2.15,0.15 -4.05,-1.1q-1.6,-1.3 -2.55,-1.75q-0.95,-0.4 -2.3,-0.5q-0.5,0 -2.45,0.05q-5.35,0.15 -10.55,-1.35q-3.3,-0.9 -4,-1q-2.35,-0.4 -3.95,0.3q-1.3,0.7 -1.95,0.95q-1.2,0.5 -2,0.2q-2.05,-4.9 -5,-15.45q-0.85,-3.25 -1.1,-4.75q-0.45,-2.7 -0.05,-4.8q0.6,-3.1 3.45,-6.8q1.6,-2.05 4.9,-6.2q1.5,-2.25 3.65,-6.9q0.88809,-1.97344 0.05,-2.75q0.47188,-0.17187 0.75,-0.45q0.35,-0.35 0.15,-0.7q-0.3,-0.6 -1.6,0.1q-1.75,0.45 -2.55,0.9q-0.65,0.3 -0.95,0.95q-0.4,0.65 -0.1,1.2q-2.45,1.2 -5.25,1.5q-1.65,0.2 -2.15,0.65q-0.4,0.4 -0.9,1.9q-0.45,1.25 -1.15,1.45q-0.7,0.25 -1.8,-0.5q-1.3,-0.9 -1.85,-1q-0.85,-0.1 -2.55,0.95q-1.6,1 -2.45,0.6q0.2,-0.45 -0.15,-0.95q-0.3,-0.45 -0.85,-0.65q-0.4,-0.15 -1.05,-0.2q-0.8,-0.1 -1.05,-0.15q-0.55,-0.1 -1,-0.5q-0.45,-0.4 -0.4,-0.9q0.05,-0.4 0.55,-1.15q0.55,-0.7 0.55,-1.15q0,-0.55 -0.55,-0.85q-0.5,-0.3 -1.1,-0.2q-0.8,0.15 -1.8,1.25q-1.05,1.15 -1.75,1.35q-0.7,0.25 -1.85,0q-1.45,-0.35 -1.85,-0.35q-1.15,0 -2.35,0.85q-0.7,0.5 -1.95,1.8q-2.95,3.25 -3.75,5.3q-0.45,1.2 -1,1.4q-0.4,0.15 -1.2,-0.1q-0.85,-0.25 -1.25,-0.15q-0.25,0.05 -0.6,0.3l-0.6,0.45q-0.95,0.7 -3.4,0.8q-3.15,0.15 -6.4,1q0.5,-0.35 0.3,-1.05q-0.15,-0.7 -0.75,-0.95q-0.85,-0.4 -2.4,0q-2.75,0.6 -3.85,1.55q-1.1,0.9 -0.95,1.9q0.1,0.75 1.25,1.8l4.25,3.6q-0.9,0.5 -2.25,0.7q-0.1,0.05 -2.45,0.25q-2.7,0.25 -8.1,1.45q-1.05,0.3 -1.35,0.65q-0.25,0.3 -0.2,0.75q0,0.4 0.35,0.55q0.6,-0.7 2.3,-1.1q3.35,-0.8 6.3,-1.1q1.05,-0.1 3.15,-0.35q1.8,-0.3 3,-0.8q0.55,-0.2 0.65,-0.5q0.15,-0.45 -0.6,-1.1l-4.35,-3.6q-0.95,-0.75 -0.95,-1.45q0.05,-0.9 1.65,-1.45q2,-0.65 4.25,-0.95q-0.55,0.5 -0.15,1.3q0.4,0.8 1.15,0.9q0.8,0.15 2.9,-0.6q1.95,-0.7 3.95,-0.55q0.55,0.05 1.65,0.1q0.95,-0.05 1.45,-0.5q0.2,-0.15 0.5,-0.5q0.3,-0.35 0.6,-0.4q0.5,-0.15 1.6,0.3q0.9,0.1 1.65,-0.85q0.35,-0.5 1.05,-1.95q0.85,-1.8 3.65,-4.6q2.05,-2.15 3.6,-2.1q0.45,0 1.75,0.4q1.1,0.3 1.75,0.15q0.55,-0.15 1.05,-0.65m-143.45,-29.55q0.85,0.3 1.1,1q0.25,0.65 0.05,1.7l-0.45,2.75q-0.2,1.35 0.4,1.85q0.55,0.45 1.8,-0.1q3,-1.2 5.6,-2.45q-0.6,0.85 -0.35,1.9q0.25,1.1 1.15,1.6q0.9,0.5 2.2,0.25q0.8,-0.15 2.2,-0.75q4.05,-1.6 5.75,0.25q0.45,0.5 0.75,1.3q0.2,0.45 0.5,1.4q0.7,1.9 1.95,2.15q-0.75,0.95 -0.4,2.3q0.4,1.35 1.55,1.8q-2.5,2.2 -5.65,3.2q-1.85,0.5 -2.2,1.45q-0.3,0.9 1,2.3q1.45,1.55 1.4,2.4q-1.3,0.3 -2.3,1.35q-0.4,0.3 -0.25,0.65q0.25,0.45 0.8,0l0.6,-0.65q0.3,-0.2 1.2,-0.2q0.1334,0 0.25,0q0.41621,0.28789 1.45,0.1q1.55,-0.2 4.75,0l7.05,0.5q2,0.2 4.65,0.8q1.55,0.35 4.65,1.1q9.4,2.2 18.95,2.85q4.35,0.3 6.65,-0.3q-0.35,2.35 0.9,2.8q0.75,0.25 2,-0.55l6.45,-4.35q-0.55,0.425 -0.55,1.2q0,0.8 0.55,1.35q1.1,1 2.7,0.55q1.15,-0.3 2,-1.2q0.85,-0.9 1.1,-2.05l0.15,-1.05q0.1,-0.65 0.3,-1.05q0.5,-0.8 1.65,-0.95q0.95,-0.15 2.05,0.15q1.75,0.45 2,0.5q1.15,0.2 1.95,-0.15q0.4,-0.2 1.15,-0.85q0.75,-0.65 1.2,-0.85q1,-0.4 2.15,0.2q1.05,0.55 1.6,1.6q0.7,1.35 0.15,2.4q-0.35,0.6 -2.05,1.4q-1.55,0.75 -1.5,1.8q0.05,0.45 0.5,1.2q0.55,0.8 0.6,1.2q0.05,0.25 0.05,0.85q0.05,0.5 0.3,0.7q0.3,0.25 1,0q0.8,-0.25 1.1,-0.2q0.85,0.15 0.85,1.4q-0.05,0.6 -0.25,1.75q-0.05,1.65 1.85,3.1q0.55,0.35 1.6,1q0.95,0.6 1.5,1.1q0.5,0.4 0.45,0.85q0,0.4 -0.6,0.9l-3.05,2.35q-0.2,-0.15 -0.5,-0.05q-0.3,0.05 -0.45,0.3q-0.3,0.3 -0.3,1q-0.1,0.7 0.1,0.95q0.25,0.35 0.75,0.2q0.5,-0.1 0.75,-0.5q0.35,-0.5 0.75,-1.65q0.3,-0.5 1,-0.95q0.4,-0.2 1.25,-0.65q1.7,-0.95 1.45,-2.15q-0.1,-0.65 -1.25,-1.5l-2.5,-1.85q-1.35,-0.95 -1.6,-1.7q-0.2,-0.55 -0.1,-1.8q0.15,-1.25 -0.1,-1.85q-0.3,-0.85 -1.25,-1.2q-0.95,-0.35 -1.75,0.15q-0.25,-1.7 -1.2,-3.05q0.35,-0.4 2.15,-1.5q1.4,-0.85 1.7,-1.8q0.45,-1.4 -1.25,-3.6q-1.1,-1.55 -2.15,-1.7q-0.95,-0.15 -2.25,0.7q-1.75,1.1 -2.2,1.25q-0.85,0.25 -1.95,0.1q-1.3,-0.25 -1.95,-0.4q-2.55,-0.6 -3.75,0.55q-0.65,0.65 -1,2.3q-0.35,1.8 -0.85,2.45q-0.6,0.75 -1.65,0.9q-1.1,0.15 -1.9,-0.4q-0.05,-0.4 0.6,-1.35q0.55,-0.8 0.25,-1.25q-0.5,-0.75 -1.75,0.05q-3.35,1.85 -6.5,4.35q-0.8,0.65 -1.3,0.35q-0.35,-0.25 -0.15,-1.1q0.2,-0.95 0,-1.25q-0.35,-0.6 -1.65,-0.4q-3.55,0.6 -7.75,0.35q-3.4,-0.25 -7.75,-1.05l-14.8,-3.15q-2.65,-0.6 -4.15,-0.75q-1.25,-0.15 -2.6,-0.15l-9.6,-0.45q-0.03555,-0.18828 -0.15,-0.45q-1.1,-2.3 -2.6,-4q3.65,-1.25 7.35,-3.75q1.1,-0.75 0.85,-1.5q-0.15,-0.35 -0.75,-0.65q-0.65,-0.35 -0.85,-0.6q-0.35,-0.45 0,-1.6q0.3,-1.15 0.05,-1.6q-0.15,-0.2 -0.5,-0.45q-0.45,-0.3 -0.6,-0.45q-0.35,-0.3 -0.95,-1.8q-0.6,-1.65 -2.1,-2.7q-1.55,-1.05 -3.2,-0.85q-0.6,0.1 -2.75,1.05q-1.75,0.8 -2.9,0.5q-0.75,-0.2 -1.2,-0.85q-0.45,-0.7 -0.25,-1.4q0.5,-0.75 0.65,-1.15q0.35,-1 -0.35,-1.15q-0.4,-0.1 -0.95,0.35q-2.75,2.3 -6.45,3.25q-0.3,-0.95 0.15,-3.45q0.4,-2.2 -0.3,-3.2q-0.8,-1.15 -2.45,-1q-1.6,0.1 -2.7,1.2q-0.85,0.85 -1.55,2.45q-0.4,0.9 -1.2,2.7q-0.4,-0.4 -3.1,-1.95q-1.9,-1.1 -2.35,-2.4q-0.15,-0.45 -0.15,-1.4q-0.05,-1 -0.15,-1.4q-0.15,-0.95 -1.15,-2.45q-1.45,-2.05 -2.5,-2.55q-2.2,-1 -5.45,1.45q-2.1,1.5 -2.45,1.75q-1.5,0.85 -2.8,0.8q0,-0.4 0.55,-1.95q0.4,-1.1 -0.1,-1.7q-0.35,-0.45 -1.55,-0.55q-1.95,-0.1 -2.75,-0.3q-1.45,-0.35 -2.2,-1.3q-0.3,-0.55 -0.5,-0.8q-0.3,-0.45 -0.7,-0.6q-0.65,-0.35 -1.75,0.25q-2.6,1.4 -4.75,5.5q-1.1,2 -1.4,3.55q-0.15,0.7 -0.3,2.2q-0.2,0.75 -1.5,3.1q-1.35,2.45 -2.15,5.35q-0.55,2.1 -1.35,2.7q-0.55,0.45 -2.35,0.55l-5.05,0.1q-5,0.1 -7.2,-1.3q-0.7,-0.45 -2.35,-2.15q-1.4,-1.45 -2.5,-1.95q-1.7,-0.55 -2.5,-0.85q-1.4,-0.5 -1.8,-1.45q-0.2,-0.4 -0.2,-1q-0.05,-0.7 -0.1,-1.05q-0.1,-1.35 -0.95,-1.7q-0.75,-0.25 -1.95,0.7q-1.3,1 -1.95,1q-2.1,-1.25 -3.45,-1.65q-2.05,-0.6 -3.5,0.15q-0.4,0.2 -1.15,0.75q-0.7,0.5 -1.15,0.7q-2,0.9 -4.45,-0.8q-0.75,-0.55 -1.75,-1.55q-1.05,-1.2 -1.6,-1.75q-1.65,-1.75 -3.3,-2.05q-1,-0.15 -1.95,0.3q-0.95,0.45 -1.3,1.35q-0.4,1.4 0.8,2.9q0.65,0.85 2.25,2.2q1.6,1.6 2.2,3.8q0.2,0.75 0.45,2.35q0.2,1.6 0.45,2.35q0.35,1.25 1.05,2.2q0.85,1 1.95,1.25q0.1,0 1,0.15q0.6,0.05 0.9,0.25q0.75,0.45 0.85,1.45q0.1,0.9 -0.3,1.75q-0.4,0.85 -1.15,1.3q-0.65,0.4 -1.8,0.6q-1.55,0.3 -1.9,0.4q-1.95,0.55 -3.45,2.65q-1,1.3 -2.3,4.05q-1.85,4 -4.2,4.05q-0.65,0.05 -1.45,-0.2q-0.9,-0.35 -1.35,-0.5q-2.3,-0.65 -4.7,0.1q-2.45,0.8 -3.9,2.65q-0.7,0.95 -1,1.2q-0.65,0.6 -1.3,0.5q-0.55,-0.1 -1.35,-0.9l-6.45,-6.95q-0.6,-0.6 -1,-0.6q-0.55,0 -1.1,0.9q-1,1.6 -2.9,3.6q-1.05,1.1 -3.2,3.35q-3.85,4.35 -4.05,8.15q-0.1,1.7 0.5,5.05q0.27168,2.40703 -0.45,4q-0.33418,-0.19062 -0.7,-0.15q-0.55,0 -1.55,0.7q-0.8,0.55 -0.45,0.95q0.15,0.25 0.5,0.15q0.3,-0.05 0.55,-0.3q0.7,-0.7 1.05,-0.55q-0.4,0.95 -2,1.7q-1.9,0.95 -2.4,1.45q-1.95,1.95 -0.5,6.05q0.8,2.5 0.95,3.15q0.35,1.8 -0.15,3.15q-0.35,0.95 -0.4,1q-0.15,0.6 0.05,1q0.25,0.55 1,0.65q0.7,0.1 1.35,-0.2q0.4,-0.15 1.25,-0.55q0.75,-0.3 1.3,-0.15l0.15,5.6q0.1,0.8 -0.3,1.2q-0.25,0.2 -0.75,0.2q-0.55,-0.05 -0.85,-0.1q-1,-0.05 -3,0.85q-1.9,0.9 -2.95,0.65q-1.55,-0.75 -2.35,-0.7q-0.35,0.05 -0.9,0.3q-0.65,0.35 -0.95,0.4q-1.4,0.4 -2.65,-0.8q-0.65,-0.55 -1.6,-2.35q-0.9,-1.65 -1.8,-1.7q-1.15,-0.1 -2.05,1.8l-2.35,4.65q-1.05,2 -0.45,3.1q0.75,1.2 2.7,1q0.05,0 1.55,-0.15q0.9,-0.1 1.5,0q-0.15,0.7 0.2,2.6q0.35,1.65 -0.2,2.45q-0.8,1.3 -3.35,1q-1.3,-0.1 -2.05,-0.65q-0.5,-0.3 -0.7,-0.85q-0.25,-0.55 -0.1,-1.05q0.75,-1 0.7,-1.55q-0.1,-0.55 -0.85,-0.8q-1,-0.2 -1.45,-0.3q-0.7,-0.15 -1.5,-0.8q-0.15,-0.1 -1.25,-1.15q-1.55,-1.4 -3.95,-2.5q-1.45,-0.7 -4.4,-1.75q-1.7,-0.6 -2.6,-0.5q-1.15,0.15 -2.45,1.4q-1.15,1.15 -3.3,3.75q-2,2.15 -3.95,2.5q-1,0.2 -3.05,-0.1q-2.6,-0.45 -3.5,-1.1q-0.8,-0.5 -1.75,-1.85l-2.85,-3.9q-0.3,-0.4 -0.7,-0.6q-0.03516,-0.01562 -0.1,-0.05q-0.20937,-0.90664 -0.45,-2.35q-0.4,-2.3 -1.3,-3.3q-0.65,-0.8 -2.75,-1.65q-2,-0.7 -3.2,-0.65q-1.2,0.05 -2.65,0.9q-0.8,0.45 -2.4,1.55q-4.2,2.8 -9.4,3.1q-2.4,0.1 -3.15,0.55q-0.8,0.45 -2,2.3q-0.95,1.45 -3.05,4.25q-1.7,2.5 -2.3,4.6q-0.5,1.75 -0.6,5.4l-0.25,8.6q-0.1,3.1 0.2,4.6q0.05,0.15 0.6,2.3q-2.05,0.4 -3.5,2q-1.5,1.65 -1.65,3.7q-0.05,1 0.1,3q0.05,1.8 -0.65,2.8q-0.15,0.25 -0.75,0.8q-0.5,0.5 -0.7,0.85q-0.45,0.75 -0.45,2q0.05,0.7 0.2,2.1q0.1,1.15 -0.4,2.1q-0.5,1.1 -1.5,1.15q-1,0 -1,0.45q0,0.35 0.6,0.45q0.9,0.15 1.8,-0.35q0.85,-0.5 1.2,-1.4q0.35,-0.85 0.15,-2.75q-0.25,-1.9 0.1,-2.8q0.25,-0.55 0.95,-1.4q0.75,-0.9 1,-1.35q0.5,-1 0.35,-2.8q-0.2,-2.35 -0.1,-2.95q0.15,-1.35 1,-2.45q0.85,-1.1 2.15,-1.65q1.2,-0.45 1.45,-0.6q0.7,-0.4 0.75,-1.05q0.05,-0.35 -0.2,-0.75q-0.3,-0.5 -0.45,-0.75q-0.45,-0.95 -0.35,-2.7l0.35,-11.9q0,-2.55 0.4,-4.05q0.5,-2.05 2.15,-4.55q2,-2.75 2.95,-4.15q1.2,-1.65 1.85,-2.05q0.95,-0.55 3.35,-0.55q2.7,-0.1 4.75,-0.9q1.05,-0.4 3.95,-2.25q2.95,-1.8 4.9,-2.15q3.1,-0.6 5.05,1.35q0.85,0.9 1.3,2.4q0.25,0.8 0.55,2.85q0.15,0.7 0.55,1.15q0.3248,0.36094 0.65,0.3q1.97012,2.87695 3.6,5.05q1.05,1.35 1.85,1.6q0.8,0.25 2.45,0.05q0.5,0.05 1.4,0.35q0.95,0.25 1.4,0.3q2.95,0.35 6,-3.3q1.9,-2.2 2.4,-2.7q1.5,-1.45 3,-1.85l2.65,0.9q4,1.4 5.7,2.7q0.95,0.75 2.85,2.4q1.7,1.25 3.2,1.1q-0.7,0.7 -0.65,1.85q0.05,1.05 0.75,1.85q1.3,1.35 3.8,1.35q1.95,0 2.9,-1q1.05,-1.05 0.95,-3.85q0,-3.1 -1.7,-3.55q-0.45,-0.1 -1.1,0q-0.75,0.25 -1.15,0.3q-1.6,0.4 -2.1,-0.55q-0.25,-0.6 0.15,-1.6q1.25,-3.5 3.75,-6.6q1.65,3.15 3.2,4.25q1.15,0.85 2.5,0.9q1.45,0.05 2.4,-0.8q1.2,0.75 2.7,0.8q1.45,0.05 2.65,-0.6q0.65,-0.4 0.95,-0.55q0.5,-0.3 0.95,-0.35q0.35,-0.05 1,0.05q0.65,0.1 0.95,0.1q1,-0.1 1.5,-1.2q0.5,-0.95 0.4,-2.1q-0.25,-1.4 -0.3,-2.1q-0.15,-1.25 0.15,-2.1q0.35,-1.05 0.15,-1.35q-0.25,-0.4 -1.1,-0.3q-2.1,0.15 -4.1,1q0,-0.7 0.4,-2.1q0.4,-1.4 0.35,-2.15q-0.05,-0.75 -0.4,-1.7q-0.5,-1.05 -0.7,-1.6q-0.75,-1.8 -0.7,-3.7q0,-1.35 0.65,-2.05q0.4,-0.4 1.75,-0.95q1.475,-0.64531 2.65,-1.8q0.45,-0.25 0.7,-0.7q1.25,-2.7 0.9,-5.45q-0.55,-2.6 -0.65,-3.95q-0.2,-4.1 3.95,-8.5q2.25,-2.3 3.35,-3.5q2,-2.05 2.95,-3.75q3.45,2.95 6.45,6.7q1.25,1.7 2.4,1.75q0.85,0.05 1.7,-0.75q0.15,-0.1 1.35,-1.55q1.4,-1.6 3.5,-2.3q2.15,-0.65 4.2,-0.1q0.8,0.2 2.45,0.75q1.45,0.3 2.4,-0.15q0.75,-0.35 1.85,-2.1l2.9,-5.1q1.3,-2.3 2.45,-2.95q0.8,-0.45 2.75,-0.75q1.9,-0.25 2.7,-0.85q1.75,-1.35 1.5,-4.15q-0.1,-1.4 -0.9,-1.95q-0.35,-0.25 -1.1,-0.3q-0.95,-0.1 -1.2,-0.15q-1.85,-0.4 -2.6,-3q-0.2,-0.7 -0.35,-2.05q-0.15,-1.45 -0.3,-2.05q-0.5,-2.05 -2.15,-4.2q-1.1,-1.35 -3.4,-3.5q-0.2,-0.9 0.65,-1.55q0.9,-0.65 1.85,-0.4q1.25,0.3 3,2.25q1.75,1.8 3.4,2.95q2.95,2.1 5.1,0.95q0.45,-0.25 1.35,-1.05q0.8,-0.7 1.35,-0.9q0.9,-0.3 2.1,0.1q0.6,0.25 2.05,1q2.75,1.45 4.1,0.1q0.6,-0.65 0.8,-0.8q0.5,-0.35 0.8,-0.05q0.25,0.2 0.15,0.95q-0.1,1.1 0.45,2.15q0.5,1.05 1.45,1.6q0.55,0.35 1.7,0.65q1.25,0.35 1.7,0.55q1.05,0.5 2.5,2q1.55,1.6 2.4,2.1q1.45,0.9 4.65,1.2q3.8,0.3 8.05,0.05q2.1,-0.2 2.85,-0.85q0.85,-0.65 1.5,-3.05q0.8,-2.95 2.05,-5.2q1.3,-2.5 1.55,-3.15q0.25,-0.7 0.45,-1.85q0.25,-1.45 0.35,-1.85q0.65,-2.45 2.25,-4.4q1.65,-2 3.85,-3.05q0.85,1.55 2.55,2.4q1.65,0.9 3.4,0.65q0.9,-0.1 1.2,0.2q0.4,0.35 0.2,1.05q-0.15,0.55 -0.6,1.55q-0.2,1.15 0.5,1.5q0.3,0.15 1.2,0.05q1.7,-0.45 3.15,-1.45q0.4,-0.25 1.45,-1.05q0.9,-0.7 1.5,-1.05q1.95,-1.1 3.45,-0.5q1.15,0.5 2.25,2.4q0.85,1.5 0.95,2.2q0.05,0.35 0.05,1.3q0,0.85 0.15,1.3q0.3,1.25 2.35,2.55l2.9,1.95q0.7,0.5 1.2,0.45q0.65,-0.05 1.15,-1.05q0.75,-2 1.2,-2.95q0.95,-1.8 2.2,-2.25q0.8,-0.25 1.6,0m-393.35,11.3q2.6,2.35 3.45,7.35q0.25,1.4 0.45,4.15q0.2,2.75 0.4,4.1q0.35,2.2 2.75,9.65q1.9,5.9 1.75,9.7q0,0.25 -0.2,2.45q-0.1,1.45 0,2.45q0.05,0.65 0.4,2.25q0.3,1.4 0.35,2.2q0.05,0.85 -0.3,3.1q-0.3,1.9 -0.1,3.05q0.25,1.2 1.25,2.75q1.5,2.35 1.65,2.65q0.5,1 1.4,3.8q0.8,2.45 1.65,3.7q0.5,0.7 1.9,2.1q1.3,1.3 1.85,2.15q0.65,1.05 1.25,3.35q0.6,2.35 1.2,3.35q0.35,0.6 1.15,1.65q0.65,1 0.85,1.8q0.05,0.25 0.05,2.3q-0.05,2.1 1.6,7.1q1.45,4.45 0.9,7.05q-0.1,0.75 0.1,0.9q0.6,0.45 1.2,-0.75q1,-2.05 3,-3.4q1.95,-1.3 4.25,-1.45q2.3,-0.15 4.45,0.95q2.1,1.1 3.35,3q-0.2,0.55 -0.1,1.4q0,0.45 0.15,1.4q0.1,1.85 -0.8,2.5q-0.3,0.2 -1.85,0.6q-1.35,0.3 -1.35,1.25q-0.05,0.75 1.3,1.55q1.45,0.9 1.05,1.7q-0.15,0.35 -0.65,0.95q-0.2,0.55 0.35,1.05q0.55,0.4 1.25,0.45q1.05,0.1 2.95,-0.15q2.05,-0.3 2.95,-0.25q1.4,0.1 4.15,0.8q3.85,0.7 7.4,-1.1q0.95,-0.5 1.15,-1.15q-0.15,-0.9 -0.15,-1.35q0,-0.9 1.2,-1.6q0.65,-0.3 2.05,-0.65q2.1,-0.8 3,-2.8q0.6,-1.65 1.1,-2.35q0.7,-0.95 2,-1.1q1.3,-0.2 2.25,0.5q0.55,0.45 1.55,1.6q1.4,1.25 3.15,0.75q-0.7,1.25 -0.45,2.7q0.94688,-0.94687 1.2,-1.45q0.13418,0.05 0.35,0.05q0.75,0.05 2.3,-0.1q1.3,0 1.85,0.7q0.25,0.3 0.45,1.05q0.25,0.7 0.45,1q0.55,0.75 2.55,0.85q3.45,0 4.75,-0.8q0.4,-0.25 1.2,-0.95q0.7,-0.65 1.15,-0.9q1.65,-1 3.3,-0.35q0.45,0.15 1.65,0.75q0.95,0.55 1.6,0.6q0.7,0.1 1.6,-0.2q0.55,-0.15 1.6,-0.5q3.05,-0.95 5.9,0.4q0.7,0.3 2.1,1q1.2,0.5 2.1,0.3q0.75,-0.15 1.65,-0.95q1.25,-1.05 1.5,-1.2q1.5,-0.95 3.7,-0.75q1.5,0.15 3.85,0.95q1.65,0.6 2.5,1.1q1.25,0.75 1.75,1.8q0.35,0.85 0.45,1.05q0.3,0.55 0.75,0.6q0.4,0.05 1.15,-0.45q0.7,-0.45 1.1,-0.3q0.3,0.7 0.15,1.8q-0.05,0.65 -0.2,1.9q0,0.7 0.15,1q0.55,1.3 2.95,0.95q2.35,-0.45 3.15,0.3q-0.4,1.7 0.4,3.35q0.8,1.7 2.35,2.4q0.65,0.3 2,0.9q1.1,0.6 1.15,1.5q0,0.45 -0.05,1.3q0.2,0.7 1.1,0.75q0.7,0.05 1.55,-0.25l3.45,-1.3q3.5,-1.35 5.15,-0.1q0.55,0.45 0.85,0.35q0.4,-0.1 0.3,-0.55q-0.05,-0.45 -0.4,-0.75q-1.9,-1.55 -5.5,-0.15q-1.75,0.8 -2.65,1.1q-1.6,0.55 -2.8,0.5q0.25,-0.75 -0.15,-1.6q-0.35,-0.8 -1.05,-1.35q-0.5,-0.35 -1.45,-0.8q-1.15,-0.55 -1.55,-0.8q-1.85,-1.05 -1.85,-2.6q0.1,-0.85 0.15,-1.3q0.1,-0.75 -0.2,-1.15q-0.35,-0.45 -1.3,-0.55q-2.55,-0.4 -4.85,-0.4q0.35,-1.55 0.35,-3.35q0,-1.35 -0.55,-1.8q-0.95,-0.85 -2.85,0.5q0.05,-1.9 -1.9,-3.1q-0.7,-0.45 -3.55,-1.4q-2.8,-0.9 -3.8,-1.1q-2.25,-0.35 -3.7,0.5q-0.35,0.2 -1.65,1.35q-1.05,0.9 -1.85,1.05q-1.15,0.25 -2.75,-0.65q-2.15,-1.15 -2.7,-1.3q-1.1,-0.3 -2.55,0q-1.75,0.4 -2.6,0.6q-1.4,0.4 -2.7,0.2q-0.15,-0.05 -2.3,-0.9q-2.65,-1.05 -4.65,0.2q-0.75,0.5 -2.1,1.7q-1.2,0.75 -3.85,0.85q-1.55,0 -2.1,-0.45q-0.35,-0.3 -0.6,-0.95q-0.4,-0.85 -0.5,-1.05q-1.1,-1.65 -4.75,-1q-0.14219,0.02031 -0.25,0.05q0.02383,-0.62441 -0.5,-1.05q-0.35,-0.3 -1.05,-0.35q-0.95,-0.05 -1.2,-0.15q-0.6,-0.15 -1.25,-0.8l-1.1,-1.1q-1.35,-1.15 -3.3,-0.75q-1.95,0.4 -2.75,2q-0.15,0.35 -0.55,1.6q-0.3,0.95 -0.7,1.45q-0.6,0.7 -2.75,1.4q-2,0.6 -2.6,1.55q-0.25,0.4 -0.45,1.35q-0.2,0.9 -0.5,1.3q-0.55,0.95 -2.25,1.35q-1.75,0.35 -4.45,0q-4.15,-0.55 -4.5,-0.55q-1.05,-0.05 -3.25,0.05q-2.1,0.1 -3.25,0q0.6,-0.3 0.75,-1.15q0.1,-0.8 -0.3,-1.45q-0.4,-0.7 -2.15,-2q2.7,-0.4 3.5,-1.55q0.45,-0.65 0.55,-1.7q0,-0.15 0,-1.85q-0.15,-1.85 -0.2,-2.05q-0.25,-0.95 -1.25,-1.95q-1.45,-1.55 -3.55,-2.35q-2.05,-0.8 -4.2,-0.6q-2.15,0.2 -4.1,1.35q-1.9,1.15 -3.05,2.95q0.2,-2.2 -1.05,-6.05q-1.35,-4.15 -1.4,-6.05q0,-1.1 0,-1.65q0,-1 -0.2,-1.65q-0.2,-0.65 -0.7,-1.45q-0.6,-0.85 -0.9,-1.35q-0.65,-1.1 -1.5,-3.9q-0.85,-2.65 -1.65,-3.9q-0.55,-0.8 -2.2,-2.4q-1.5,-1.5 -2.1,-2.5q-0.6,-1.05 -1.15,-3.3q-0.55,-2.35 -1.1,-3.35q-0.25,-0.5 -1.4,-2.05q-0.95,-1.25 -1.25,-2.15q-0.4,-1.25 -0.2,-3.25q0.3,-2.8 0.3,-3.3q0,-0.95 -0.3,-2.5q-0.35,-1.9 -0.4,-2.55q-0.1,-1.25 0.05,-3.45q0.15,-2.5 0.15,-3.45q-0.1,-2.85 -1.6,-7.2q-2,-5.7 -2.3,-7.05q-0.4,-1.8 -0.7,-4.65q-0.4,-4.35 -0.45,-4.7q-0.75,-5.65 -3.15,-8.75q-0.4,-0.5 -0.75,-0.6q-0.25,-0.05 -0.45,0.05q-0.25,0.15 -0.3,0.35m34.25,-82.75q-0.55,0.2 -0.55,0.95q0.05,0.6 0.35,1.3q1.1,2.3 1.15,3.85q0,2.5 -1.75,3.45q-1.1,0.6 -3.2,0.25q-2.5,-0.4 -3.4,-0.25q-0.7,1 -0.85,2.2q-1.3,-0.5 -3.15,-0.45q-0.75,0 -3.3,0.3q-2.25,0.2 -3.35,-0.1q-0.55,-0.15 -1.3,-0.55l-1.25,-0.65q-1.4,-0.75 -2.95,-1.05q-1,-0.2 -1.4,0.05q-0.4,0.25 -0.6,0.85q-0.15,0.35 -0.3,1.1q-0.3,1.2 -1.2,2.05q-0.9,0.9 -2.1,1.15q-1.25,0.3 -1.4,0.35q-0.75,0.25 -0.9,0.85q-0.15,0.55 0.25,1.65q0.15,0.95 -0.8,2.2q-1.1,1.6 -1.25,2.2q-0.3,1.2 0.8,3.25q1.15,2.25 1.1,3.3q-0.05,0.75 -0.85,2.45q-0.75,1.5 -0.6,2.4q0.1,0.8 0.75,1.4q0.6,0.6 1.4,0.65q0.3,0.05 1.3,-0.05q0.85,-0.1 1.3,0.1q0.4,0.2 1.4,1.4q1.75,2.05 4.3,1.9q0.6,0.8 0.75,2.25q0.05,0.8 0.1,2.5q0.25,2.9 2.3,5.2q1,1.05 2.25,1.4q1.4,0.35 2.3,-0.4q0.2,-0.15 0.85,-0.9q0.45,-0.55 0.9,-0.65q0.7,-0.2 1.3,0.5q0.55,0.65 0.45,1.45q-0.05,0.65 -0.45,1.4q-0.25,0.45 -0.8,1.3q-1.4,2.35 -1.3,5.15q0,1.85 -0.35,2.4q-0.35,0.45 -1.5,1q-2.9,1.35 -4.8,4.05q-1,1.5 -1.15,1.65q-0.7,0.95 -1.5,1.35q-0.55,0.25 -1.65,0.45q-1.25,0.2 -1.7,0.4q-0.8,0.35 -1.95,1.45q-1.3,1.2 -1.9,1.55q-0.6,0.35 -1.7,0.75q-1.3,0.5 -1.75,0.7q-0.95,0.5 -1.5,1.25q-0.6,0.8 -0.45,1.7q0.15,0.85 1.15,2.25q0.3,0.6 0.2,1.25q-0.15,0.7 -0.7,0.9q-0.95,0.25 -0.9,0.5q0,0.4 0.55,0.4q1.15,0.05 1.85,-1q0.65,-1.1 0.15,-2.1q-0.15,-0.3 -0.7,-1q-0.5,-0.6 -0.6,-1.05q-0.15,-0.75 0.4,-1.45q0.55,-0.6 1.35,-0.9q0.35,-0.15 1.55,-0.45q0.95,-0.25 1.45,-0.55q0.6,-0.35 1.6,-1.5q0.9,-1.05 1.55,-1.4q0.6,-0.3 1.6,-0.5q1.35,-0.3 1.65,-0.4q1.7,-0.6 3.85,-3.4q2.25,-2.95 3.8,-3.65l1.2,-0.5q0.7,-0.3 1.05,-0.7q0.7,-0.7 0.75,-2.2q-0.1,-1.7 0,-2.55q0.15,-1 1.55,-3.55q1.25,-2.2 1.05,-3.75q-0.15,-1 -0.95,-1.7q-0.85,-0.7 -1.75,-0.5q-0.6,0.15 -1.9,1.25q-1.15,0.95 -1.95,0.75q-0.5,-0.1 -1.25,-0.85q-1.8,-1.8 -2.3,-3.15q-0.2,-0.75 -0.25,-1.85q0.05,-1.3 0,-1.95q-0.2,-2.45 -1.5,-3.3q-0.4,-0.25 -1.35,-0.5q-0.95,-0.25 -1.35,-0.45q-0.45,-0.25 -1,-0.8q-0.85,-0.8 -0.95,-0.9q-0.95,-0.8 -2.2,-1.1q-1.3,-0.25 -2.5,0.1q-0.4,-1.3 0.55,-4.1q0.9,-2.7 0.35,-4.05q-0.15,-0.35 -1.2,-1.8q-0.8,-1.1 -0.7,-1.9q0.05,-0.55 0.55,-1.2q0.55,-0.7 0.8,-1.1q1.35,-2 0.45,-4.2q2.25,-0.05 4.05,-1.7q1.85,-1.65 2.05,-3.85q1.3,-0.1 3.2,0.85q2.5,1.25 3.15,1.4q1.2,0.3 2.9,0.2q1,-0.05 2.95,-0.3q1.7,-0.2 2.55,0.05q1.3,0.35 1.65,0.3q1.05,-0.3 1.25,-2.3q3.1,0.6 4.7,0.4q2.8,-0.45 3.75,-2.55q0.55,-1.25 0.15,-3.4q-0.45,-2.5 -1.75,-4.9m517.2,-395.2q-2.65,-1.65 -3.95,-2.5q-2.15,-1.45 -5.05,-3.75q-3.3,-2.6 -4.95,-3.9q-4.7,-3.65 -11,-7.7q-3.6,-2.3 -11.45,-7.1q-3.7,-2.25 -6.25,-3.5q-4.35,-1.8 -6.4,-2.95q-1.7,-0.95 -4.7,-3.25q-3.5,-2.75 -6.25,-4.65q-7.2,-5.1 -16.75,-9.65q-4.05,-1.9 -5.5,-3.1q-2.45,-2.35 -3.85,-3.3l-3.6,-1.95q-1.05,-0.6 -4.35,-3.2q-2.22422,-1.68066 -6.05,-4.05q-0.06699,-0.21719 -0.3,-0.55q-0.08945,-0.1252 -0.2,-0.25q0.03613,-0.11113 0.05,-0.25l0.2,-0.35q0.15,-0.3 -0.15,-0.6q-0.2,-0.25 -0.6,-0.25l0,0.1q-0.2,0 -0.5,0.3l-0.05,0q-0.40938,-0.3457 -0.95,-0.7q-0.25,-0.15 -2.65,-1.45q-3.5,-1.9 -6.05,-4.6l-3.45,-4.3q-1.45,-1.75 -2.3,-2.2q-0.95,-0.5 -3.8,-0.6q-2.95,-0.15 -5.7,-0.75q-1,-0.25 -1.6,-0.15q-0.74121,0.19766 -1.3,0.9q-0.93926,-0.03262 -2.2,0.1q-3,0.4 -3.2,0.4q-1.05,0.05 -2.45,-0.1q-1.65,-0.25 -2.45,-0.35q-2.7,-0.3 -8.15,-0.2q-10.5,0.1 -15.7,0.85q-3,0.5 -4.5,0.75q-2.65,0.4 -4.55,0.45q-3.05,0.1 -7.75,-0.7q-6.85,-1.2 -7.75,-1.3q-4.75,-0.55 -14.2,-0.05q-6.4,0.3 -10.2,0.85q-2.85,0.45 -6.85,1.45q-4.5,1.2 -6.8,1.75q-7.1,1.75 -12.9,2.15q-1.3,0.1 -4.8,0.2q-3.05,0.1 -4.8,0.3q-3.4,0.3 -8.2,1.55q-5.65,1.4 -11.75,3.55q-3.25,1.2 -4.1,1.45q-2.35,0.7 -4.25,0.85q-0.75,0.1 -2.7,0.1q-1.7,0.05 -2.7,0.2q-2.35,0.45 -6.05,2.65q-4.1,2.45 -5.95,3.05q-0.4,0.1 -4.55,0.95q-3.65,0.7 -10.55,3.5q-2.62461,1.0832 -3.65,2.3q-1.75918,0.07734 -4.25,0.7q-3.95,1 -4.35,1.05q-1.45,0.25 -4.5,0.55q-3,0.25 -4.55,0.55q-1.6,0.35 -3.75,1.1q-2.45,0.95 -3.7,1.4q-7,2.5 -13.8,3.65q-2.65,0.45 -6.85,0.9q-5.5,0.65 -6.85,0.8q-8.6,1.05 -16.9,3q-2.85,0.7 -11.6,3.05q-4.65,1.2 -7.2,1.45q-1.3,0.15 -3.4,0.2q-2.7,0.1 -3.45,0.15q-5.5,0.4 -12.75,2.85q-8.3,3.1 -12.45,4.5q-4.65,1.55 -6.95,2.4q-4.05,1.45 -6.7,2.95q-2,1.1 -5,3.25q-3.8,2.7 -4.9,3.4q-3.6,2.35 -10,5.2q-7.95,3.55 -10.25,4.8q-3.5,1.85 -4.9,2.35q-0.8,0.3 -2.3,0.6q-1.7,0.4 -2.35,0.6q-2.55,0.85 -5.3,2.85q-1.6,1.15 -4.65,3.9l-6.8,6.15q-3.2,3 -4.15,4.2q-0.9,1.15 -2.3,3.35q-1.5,2.45 -2.2,3.4q-1.85,2.5 -4.7,5.05q-1.85,1.65 -5.45,4.35q-3.55,2.6 -5.3,3.6q-1.5,0.9 -4,2q-3.5,1.5 -4.1,1.8q-4.95,2.4 -7,5.4q-0.24355,0.34512 -0.3,0.55q-0.2541,0.02637 -0.55,0.05l-5.1,0.5q-7.5,0.7 -11.1,1.75q-2.8,0.85 -7.05,2.8l-8.4,3.75q-3.3,1.5 -5.1,1.85q-2.5,0.55 -8.75,0.05q-5.6,-0.45 -8.55,0.65q-0.4,0.1 -0.6,0.5q-0.04902,0.07852 -0.1,0.15q0.0127,-0.0252 0,-0.05q-0.2,-0.4 -0.6,-0.6q-0.45,-0.25 -0.65,0.1q-0.1,0.2 0.15,0.65q4.45,8.5 11.75,14.6q1.65,1.4 2.3,2.3q1.05,1.45 0.8,2.8q-0.1,0.55 -0.55,1.25q-0.45,0.8 -0.7,1.2q-0.75,1.4 -1.05,4.25q-0.4,2.3 -0.05,3.55q0.3,1.3 2.05,3.8q1.6,2.4 2.75,5.25q0.6,1.35 0.8,1.7q0.55,0.95 1.25,1.35q0.9,0.55 2.3,0.4q0.65,-0.05 2.45,-0.5q3.35,-0.95 4.45,0.9q0.3,0.45 0.7,1.4q1.05,1.35 3.9,0.35q0.55,1.9 1.85,3.5q1.3,1.6 3.1,2.45l-1.5,6.8q-0.4,1.7 -0.25,2.65q0.25,1.6 1.55,2.05q-0.45,0.05 -0.8,0.3q-0.35,0.3 -0.1,0.6q0.2,0.25 0.65,0.15q1.14141,-0.16309 1.4,-0.65q0.05176,0.08965 0.1,0.2q0.95,1.8 2.35,3.4q0.7,0.8 0.75,1.35q0,0.35 -0.45,1.15l-2.7,4.4q-2.35,3.9 -1.35,6.05q0.25,0.55 1,1.35q0.85,0.9 1.1,1.3q0.5,0.7 0.9,2.05q0.5,1.65 0.75,2.15q0.6,1.25 2.1,2.9q1.95,2.1 2.4,2.7q1,1.35 1.15,2.8q0.1,1.65 -1.1,3.1q-1.05,1.35 -2.8,2.05q-1.5,0.5 -2.2,0.85q-1.65,1.2 -2.6,1.55q-1.85,0.65 -3.5,-0.5q-1.05,-1.05 -1.7,-1.35q-0.55,-0.3 -1.1,-0.15q-0.65,0.1 -0.85,0.6q-0.1,0.3 0.1,1.3q0.2,1 0.2,3.05q0.1,1.9 1.25,2.65q0.65,0.4 2.1,0.75q1.3,0.45 2,1.8q0.7,1.3 0.35,2.65q-0.1,0.45 -0.55,1.4q-0.45,0.85 -0.55,1.35q-0.2,1.1 0.15,3.35q0.05,1.6 -1,4.1q-1.35,2.95 -0.15,4q0.5,0.45 1.35,0.5q0.5,0 1.6,-0.15q2.1,-0.3 2.7,0.8q0.2,0.4 0.25,1.15q0,0.9 0.1,1.2q0.5,1.2 2.6,1.5q2.25,0.35 2.9,1q-1.1,1.1 -0.9,3q0.15,1.6 1.1,3.3q1.35,2.45 1.6,3.1q0.7,1.75 0.35,3.2q-0.4,-0.15 -0.9,0q-0.5,0.15 -0.7,0.5q0.23418,0.16836 0.45,0.3q-0.35684,0.46484 0.1,1.8q0.3,0.95 0.3,3.05q-0.05,2.05 0.3,3q0.35,1.3 0.3,1.6q-0.15,0.65 -1.35,1.3q-2.9,1.75 -4.4,4.8q-0.65,1.3 -1.1,1.6q-0.8,0.55 -2.25,0.15q-2.15,-0.65 -2.4,-0.65q-0.7,-0.05 -1.6,0.25q-1.05,0.4 -1.6,0.6q-4.85,2.1 -10.15,2.35q-2.2,0 -3.15,0.5q-0.15,0.1 -1.95,1.6q-2.05,2 -4.95,2.45q-1.3,0.2 -2.05,-0.15q-0.7,-0.55 -1.15,-0.6q-0.5,-0.05 -0.95,0.3q-0.4,0.35 -0.55,0.85q-0.2,0.65 -0.25,2.05q-0.3,2.35 -2.6,3.45q-1.1,0.4 -1.6,0.6q-0.95,0.45 -1.25,1.05q-0.45,1 0.4,2.35q0.2,0.3 0.75,1q0.55,0.65 0.75,1.05q0.15,0.25 0.35,0.8q0.2,0.45 0.5,0.7q0.45,0.4 1.4,0.55q1.3,0.2 1.55,0.3q2.1,0.8 2.2,5.05q0,1.2 -0.35,1.65q-0.4,0.5 -1.9,0.8q-1.45,0.25 -1.75,0.9q-0.45,1.05 0.9,2.3q1.35,1.3 4.3,3.7q2.45,2.2 3.35,4.3q0.4,0.9 1.1,2.85q0.7,1.6 1.8,2.1q0.25,0.1 0.95,0.35q0.65,0.2 0.95,0.4q0.65,0.5 0.85,1.6q0.1,0.55 0.1,2q0,1.8 0.95,5.85q0.9,3.75 0.75,5.85q-0.1,1.5 0.35,2q0.35,0.4 1.15,0.5q0.15,0 2.5,-0.2q1.45,-0.15 2.05,0.55q0.8,0.9 0.35,2.25q-0.15,0.45 -1,2.15q-0.7,1.55 -0.7,3.35q0.05,1.75 0.8,3.25q-0.2,-0.3 -0.7,-0.2q-0.45,0.15 -0.55,0.5q-0.1,0.35 0.15,0.75q0.25,0.35 0.65,0.4q0.0375,0.00293 0.05,0q-0.1793,0.49531 -0.1,1.05q0,0.15 0.25,1.25q0.2,0.75 0.1,1.25q-0.15,0.6 -0.85,1.5q-0.85,0.95 -1.05,1.45q-0.45,1 -0.05,2.9q0.2,1.4 1.05,1.45q0.4,0 1.1,-0.7q0.6,-0.7 1.05,-0.6q2.55,1.25 2.8,2.75q0.1,0.75 -0.3,1.8q-0.25,0.55 -0.75,1.75q-0.1,0.45 -0.3,1.35q-0.2,0.8 -0.55,1.25q-0.55,0.75 -2.2,1.65q-1.55,1.25 -1.55,3.8q0,1.45 0.9,4.05q-0.3,0.9 -1.6,2.3q-1.25,1.4 -1.55,2.3q-0.35,1.2 0.05,3.7q0,0.65 -0.15,1.9q-0.05,1.1 0.3,1.8q0.2,0.4 0.75,0.9l0.85,0.85q1.8,1.95 1.2,4.85q-0.1,0.65 -0.45,1.9q-0.25,1.15 -0.05,1.9q0.05,0.2 0.45,1.05q0.25,0.6 0.3,1.05q0.05,0.85 -0.7,1.7q-0.3,0.35 -1.5,1.3q-0.8,0.6 -0.7,1.2q0.15,0.5 0.9,0.8q2.85,1.35 4.6,1.15q1.25,-0.2 2.15,-1.1q0.95,-0.95 0.9,-2.1q-0.1,-1.1 -1.6,-2.7q-0.15,-0.75 0.9,-1.15q0.25,-0.1 0.7,-0.25q0.45,-0.15 0.65,-0.4q0.5,-0.5 0.5,-2.2q0.1,-1.75 1.2,-1.75q0.65,0 1.3,1.2q0.7,1.25 1.3,1.35q0.5,0.05 1.45,-0.25q0.55,0 1,0.55q0.45,0.45 0.55,1.15q0.15,0.8 0.15,2.45q0.55,2.75 5,3.9q1.55,0.35 2.2,0.65q1.15,0.45 1.75,1.2q0.65,0.8 0.95,2.9l1.2,8q-2.7,0.5 -5.55,1.45q-1.15,0.4 -1.4,1q-0.2,0.6 0.25,1.2q0.45,0.55 1.15,0.75q0.35,0.1 1.35,0.15q0.9,0.1 1.35,0.25q0.9,0.4 2.25,2.05q4.55,5.85 8.9,7.4q0.6,0.2 1.75,0.6q1,0.4 1.5,0.95q0.35,0.4 0.95,1.55q0.5,1.05 1,1.5q0.55,0.45 1.7,0.7q1.45,0.35 1.85,0.5q0.75,0.3 1.6,1q0.5,0.4 1.4,1.25q1.75,1.55 4.35,2.75q1.65,0.7 4.9,1.8q-0.75,0.55 -1.45,1.5q-0.2,0.4 -0.15,0.55q0.2,0.4 0.85,0q1.65,-1.05 1.55,-2.1q-0.1,-1 -2,-1.65q-2.5,-0.75 -3.25,-1.05q-1.8,-0.7 -3,-1.6q-2.3,-2.35 -3.75,-3.05q-0.45,-0.2 -2.1,-0.7q-1.3,-0.4 -1.95,-0.95q-0.5,-0.45 -1.15,-1.6q-0.7,-1.15 -1.2,-1.6q-0.55,-0.5 -1.55,-0.85q-1.15,-0.35 -1.75,-0.55q-3.5,-1.25 -7.5,-6.2q-1.15,-1.5 -2,-2.2q-1.3,-1.1 -2.6,-1.2q-1.1,0 -1.35,-0.05q-0.95,-0.2 -0.85,-0.95l5.1,-1.35q1,-0.3 1.4,-0.65q0.7,-0.75 0.4,-2.25q-0.15,-0.75 -0.75,-2.65q-0.5,-1.7 -0.6,-2.7q0.05,-1.3 0,-1.95q0,-1.1 -0.3,-1.85q-0.5,-1.15 -1.95,-1.85q-0.95,-0.45 -2.8,-0.9q-3.9,-0.8 -4.65,-2.9q-0.2,-0.55 -0.2,-1.85q-0.05,-1.25 -0.3,-1.9q-0.4,-1 -1.55,-1.45q-1.15,-0.45 -2.15,0.05q-0.45,-1.65 -1.55,-2.25q-0.65,-0.35 -1.4,-0.3q-0.75,0.1 -1.2,0.6q-0.45,0.55 -0.55,1.8q-0.05,1.45 -0.25,1.95q-1.15,-0.1 -1.9,0.95q-0.8,1.05 -0.3,2.1q0.1,0.3 0.5,0.85q0.4,0.5 0.5,0.8q0.3,0.95 -0.5,1.8q-0.75,0.8 -1.8,0.9q-1.3,0.15 -3.8,-1.2q2.75,-2.25 2.6,-4.15q-0.05,-0.45 -0.45,-1.5q-0.35,-0.95 -0.35,-1.5q0,-0.55 0.55,-2q0.45,-1.45 0.15,-3.05q-0.25,-1.55 -1.2,-2.75q-1.15,-1.3 -1.6,-2.05q-0.65,-1.25 -0.55,-3.55q0,-3.1 0.9,-4.45q0.05,-0.05 1.4,-1.5q0.85,-0.9 0.95,-1.7q0.1,-0.55 -0.45,-2.25q-0.45,-1.4 -0.3,-2.7q0.2,-1.45 1.1,-2.3q0.3,-0.3 1.2,-0.9q0.85,-0.5 1.2,-0.9q0.45,-0.55 0.7,-1.55q0.3,-1.1 0.45,-1.65q0.6,-1.5 0.85,-2.2q0.4,-1.3 0.1,-2.2q-0.3,-0.95 -1.6,-1.9q-1.1,-0.9 -2.05,-1.05q-0.6,-0.1 -1.15,0.15q-0.6,0.25 -0.85,0.75q-0.55,-0.45 -0.55,-1.35q0,-0.75 0.4,-1.5q1.3,-1.7 1.6,-2.7q0.15,-0.6 0.05,-2.8q-0.1,-1.15 0.05,-2l-0.05,0q0.28457,-0.5584 0.2,-1.15q-0.05,-0.45 -0.35,-1.25q-0.35,-0.85 -0.4,-1.3q-0.2,-1.25 1.1,-4.05q1.1,-2.5 0.5,-3.85q-0.75,-1.5 -2.8,-1.75q-1.3,-0.15 -3.4,0.4q0.3,-2.55 -0.7,-6.9q-1.1,-5.05 -1.15,-6.95q-0.05,-1.65 -0.15,-2.15q-0.25,-1.2 -1.05,-1.7q-0.35,-0.25 -1.35,-0.45q-0.9,-0.25 -1.3,-0.55q-0.6,-0.5 -1.05,-2.35q-0.75,-2.85 -3.45,-5.6q-1.15,-1.15 -5.2,-4.4q-0.85,-0.75 -0.65,-1.25q0.2,-0.45 0.85,-0.55q0.45,-0.05 1.35,-0.15q0.75,-0.15 1.15,-0.5q0.55,-0.55 0.55,-2q0,-2.75 -0.35,-3.85q-0.75,-2.3 -2.5,-2.85q-1.6,-0.2 -2.25,-0.65q-0.45,-0.2 -1.1,-1.2l-1.35,-2.05q-0.5,-0.7 -0.4,-1.25q0.15,-0.5 0.75,-0.75q0.05,0 1.15,-0.3q1.9,-0.55 3.05,-2.8q0.5,-1.1 1.05,-4.1q1.15,1.25 4.2,0.5q1.7,-0.35 2.45,-0.65q1.3,-0.45 2.1,-1.25q1.1,-1.45 1.85,-1.9q0.55,-0.35 2.55,-0.45q5.5,-0.05 10.5,-2.2q2.4,-1.05 3.6,-0.9q0.5,0.05 1.75,0.45q1.1,0.35 1.75,0.3q1.45,-0.2 2.6,-2.1q0.55,-1 0.85,-1.55q0.5,-0.9 1,-1.4q0.05,-0.05 2.6,-1.95q1.55,-1.15 1.65,-2.4q0.05,-0.45 -0.45,-2.25q-0.15,-0.7 -0.25,-3.7q-0.03926,-1.76367 -0.55,-2.9q0.73887,0.19004 1.2,-0.3q0.25,-0.35 0.25,-1.1q0,-2.9 -1.5,-5.5q-1.2,-1.95 -1.35,-2.25q-0.6,-1.35 -0.3,-2.4q0.5,-0.95 0.7,-1.45q0.35,-0.8 0.05,-1.35q-0.25,-0.5 -1.45,-0.85l-2.75,-0.65q-1,-0.2 -1.2,-0.7q-0.15,-0.3 -0.05,-0.75q0.1,-0.75 0.1,-0.8q0.05,-0.75 -0.6,-1.4q-0.55,-0.6 -1.4,-0.8q-0.65,-0.15 -1.6,-0.1q-1.05,0.1 -1.6,0.1q-0.8,0.1 -1.2,-0.3q-0.3,-0.4 -0.1,-1.2q0.15,-0.75 1,-2.5q0.7,-1.55 0.8,-2.5q0.05,-0.6 -0.1,-1.9q-0.2,-1.25 -0.1,-1.9q0.1,-0.65 0.5,-1.75q0.4,-1.2 0.5,-1.75q0.4,-2.1 -1.15,-3.9q-1.55,-1.8 -3.7,-1.75q-1.4,-2.9 -0.95,-6q1.75,1.35 3,1.85q1.8,0.75 3.25,0.25q0.5,-0.2 1.2,-0.6l1.2,-0.75q0.4,-0.2 2.6,-1.2q1.9,-0.9 3.1,-2.4q1.35,-1.65 1.3,-3.55q-0.05,-1.9 -1.7,-3.9q-1.7,-1.85 -2.55,-2.8q-1.5,-1.7 -1.95,-3.15q-0.35,-2.1 -0.85,-3q-0.25,-0.5 -1.1,-1.3q-0.85,-0.8 -1.1,-1.3q-1,-1.8 0.9,-5.3q1.5,-2.8 2.55,-3.9q1.05,-1.05 1.15,-1.65q0.15,-0.75 -0.8,-2.05l-2.8,-3.9q-0.3,-0.5 -0.6,-0.4q-0.12344,0.04121 -0.2,0.1q-0.20938,-0.4 -1,-0.95q-0.45,-0.25 -0.7,-0.65q-0.3,-0.45 0,-0.8l1.6,-7.95q0.1,-0.9 0,-1.2q-0.15,-0.5 -1.45,-1.2q-1.75,-1 -2.55,-2.9l-0.55,-1.4q-0.4,-0.8 -1,-1.05q-0.55,-0.2 -1.75,0.05q-1.15,0.25 -1.7,0q0.05,-1.1 -0.9,-2q-0.9,-0.85 -2.15,-1.05q-1,-0.15 -2.3,0.1q-0.15,0 -2.3,0.5q-1.55,0.4 -2.35,0q-0.6,-0.3 -1,-1.1q-0.15,-0.3 -0.6,-1.45q-0.5,-1.3 -2.8,-5.05q-1.9,-3.05 -2.15,-5.15q-0.3,-2.7 1.4,-6.25q1.15,-2.3 1.15,-3.45q-0.05,-1.4 -1.2,-2.75q-0.6,-0.7 -2.35,-2.2q-6.83145,-5.52324 -11.05,-13.55q0.15527,0.02656 0.5,-0.05q3.1,-1.1 9.1,-0.7q6.45,0.4 9.2,-0.25q1.85,-0.5 5,-1.95l6.75,-3.05q5.25,-2.5 8.4,-3.35q2.95,-0.8 9.25,-1.4l7.85,-0.75q-0.35,0.15 -0.35,0.6q0,0.4 0.35,0.6q0.35,0.15 0.7,-0.05q0.4,-0.2 0.45,-0.55q0.1,-0.4 -0.15,-0.85q-0.20781,-0.33242 -0.55,-0.5l0.05,-0.2l0,-0.2l-0.1,-0.1q0.47637,-0.5123 1.1,-1.3q0.9,-1.05 1.65,-1.65q1.1,-0.85 2.8,-1.6q0.4,-0.15 3.1,-1.15q3.8,-1.5 7.15,-3.8q1.75,-1.15 3.85,-2.85l6.05,-4.7q2.85,-2.3 3.85,-3.55q0.9,-1.15 2.1,-3.35q1.4,-2.55 2,-3.45q1.4,-2.05 5.1,-5.35l8.85,-7.9q3.65,-3.25 5.9,-4.2q1.1,-0.45 3,-0.95q2.35,-0.55 3.05,-0.8q1.45,-0.5 3.35,-1.4q1.05,-0.5 3.2,-1.65q1.4,-0.7 8.3,-3.85q6.15,-2.85 9.55,-4.9q1.45,-0.85 6.05,-4q3.75,-2.5 6.15,-3.75q2.65,-1.4 8.6,-3.55l8.6,-3.15q9.7,-3.45 14.6,-4.4q2.9,-0.55 9.25,-1.15q6.1,-0.55 9.25,-1.2q3.55,-0.75 10.5,-2.95q8.55,-2.45 22.7,-4q10.05,-1.05 14.45,-2.1q2.7,-0.65 7.75,-2.3q5.2,-1.7 7.7,-2.35q2.85,-0.7 10.4,-1.9l8.75,-1.3q1.1,-0.2 0.95,-0.85q-0.02676,-0.08047 -0.1,-0.15q0.22656,-0.08379 0.45,-0.2q6.3,-3.6 13.2,-4.95q3.85,-0.7 4.75,-1.05q1.65,-0.55 5.9,-3.1q3.6,-2.15 6.05,-2.45q1.6,-0.2 4.8,-0.1q1.7,-0.15 4.35,-1q3.45,-1.1 10.25,-3.5q6.05,-1.95 10.45,-2.65q2.8,-0.4 7.45,-0.65q5.6,-0.3 7.45,-0.5q4.6,-0.5 11.7,-2.1q9.5,-2.2 11.6,-2.6q14.75,-2.75 28.65,-0.75q1.9,0.3 5.65,0.95q3.3,0.45 5.7,0.5q2.45,0.05 5.85,-0.4q1.9,-0.25 5.8,-0.85q6.5,-0.8 15.35,-0.65q5.15,0.05 15.45,0.5q2.15,0 2.9,-0.4q0.4,-0.2 0.4,-0.5q-0.03145,-0.18906 -0.25,-0.3q0.5998,-0.18008 1.75,0.05q3.1,0.6 5.5,0.6l1.65,0.1q0.9,0.05 1.55,0.35q1.05,0.45 2,1.65q1.05,1.2 2.9,3.75q2.85,3.45 6.75,5.55q0.9,0.5 2.75,1.5q0.68262,0.44043 1.2,0.9q-0.21348,0.23496 -0.1,0.5q0.05,0.1 0.3,0.2l0.45,0q0.0957,0.11211 0.15,0.2q-0.04316,0.12754 0,0.3q0,0.15 0.3,0.35l6.85,4.75q6.1,4.2 9.4,5.9q-1.05,0.2 -2.6,-0.8q-1.9,-1.25 -2.6,-1.45q-0.35,-0.1 -0.65,0q-0.35,0.15 -0.3,0.45q0.05,0.25 0.8,0.5q0.65,0.15 1.5,0.95q1,0.85 1.45,1.05q0.45,0.2 1.4,0.35q0.95,0.15 1.4,0.35q0.7,0.3 1.55,1.35q1.05,1.25 1.45,1.55q0.6,0.5 2.1,1.1q1.5,0.6 2.1,1.1q0.45,0.35 1.1,1.15q0.7,0.8 1.1,1.1q0.75,0.6 2.2,1.1q1.9,0.6 2.3,0.8q0.75,0.4 2.4,1.7q1.5,1.2 2.5,1.55q0.45,0.15 1.85,0.4q1.2,0.15 1.85,0.5q0.9,0.5 0.85,1.25q0,0.25 -0.25,0.7q-0.2,0.45 -0.25,0.7q-0.1,0.45 0.2,0.9q0.3,0.4 0.8,0.55q0.2,0.1 1.95,0.35q1.4,0.15 3.9,1.35q7.35,3.5 10.6,5.65q0.95,0.65 3.4,2.45q2.15,1.6 3.45,2.4q2.3,1.5 7.2,4.25q4.1,2.65 5.8,5.6q0.45,0.75 1.25,2.3q0.8,1.35 1.65,2q1.3,1.05 3.65,1.05q0.15,0 2.05,-0.15q1.25,-0.1 2.05,0.1q1.35,0.3 3.1,1.65q2.1,1.65 4.4,4.7q1.35,1.7 3.95,5.2q0.6,0.8 1.85,2.35q1.1,1.45 1.75,2.5q0.8,1.35 2.1,4.15q1.25,2.45 4.5,6.95q3.2,4.45 4.45,6.9q1.1,2.1 0.75,3.5q-0.1,0.4 -0.4,1.1q-0.25,0.65 -0.15,1.1q0.1,0.55 0.55,0.9q0.5,0.35 1,0.25q0.45,-0.1 1.25,-0.4q0.65,-0.05 1.55,0.65q3.2,2.55 4.6,6.45q0.95,2.8 2.4,2.7q0.8,-0.1 1.75,-1.5q2.3,-3.7 2.95,-5.45q1.2,-3.35 0.2,-6.1q-0.65,-1.75 -2.7,-3.9q-2.7,-2.9 -3.25,-3.65q-0.55,-0.8 -1.3,-2.3q-0.9,-1.65 -1.3,-2.3q-1.5,-2.4 -4.95,-5.05q-5.2,-4 -5.7,-4.5q-1.05,-0.95 -2.95,-3q-1.9,-2.1 -2.95,-3.05q-1.45,-1.25 -3.8,-2.75m13,12.8q1.15,0.9 3.45,2.65q2,1.6 3,3.1q0.5,0.75 1.4,2.75q0.8,1.8 1.45,2.7q0.45,0.65 3.5,3.55q2.2,2.15 2.6,4q0.45,1.9 -0.7,4.6q-0.75,1.65 -2.5,4.85q-0.95,1.9 -1.9,1.4q-0.35,-2.2 -1.9,-4.45q-1.05,-1.6 -3.15,-3.85q-2.15,-2.15 -3.45,-1.25l-0.35,0.2q-0.2,0.15 -0.4,0.1q-0.5,-0.1 -0.4,-0.8q0.05,-0.15 0.55,-0.9q0.75,-1.3 -0.55,-3.85q-2.45,-4.7 -5.3,-8.45q-2.6,-3.4 -3.25,-4.55q-0.5,-0.85 -1.15,-2.25q-0.95,-2.15 -1.05,-2.35q-1.1,-2.1 -4.45,-6.4l-5.4,-6.9q1.4,1.15 4.4,2.9q3.1,1.8 4.45,2.85q1.25,1 3.5,3.25q5.3,5.3 7.6,7.1m-77.9,-53.2q-0.95,-0.2 -1.9,-0.85l-2.75,-1.8q-1.8,-1.1 -2.8,-1.45l-1.35,-0.45q-0.75,-0.3 -1.15,-0.8l-0.55,-0.95q-0.25,-0.4 -0.8,-0.75q-0.5,-0.35 -1.6,-0.85q-1.4,-0.6 -1.7,-0.95l1.6,0.65q0.75,0.25 1.35,0.6l1.45,1.1q0.7,0.45 2.25,0.95q1.6,0.5 2.25,0.95q0.7,0.4 1.85,1.5q0.65,0.5 2.4,1.5l4.85,2.55l-3.4,-0.95m4.85,3.4q0.25,-0.6 0.25,-0.8q0,-0.45 -0.65,-0.8q-0.75,-0.5 -0.85,-0.65q1.15,0.5 2.7,1.95q1.95,1.8 2.55,2.25q0.35,0.25 1,0.7q0.6,0.45 0.95,0.85q-0.5,-0.15 -1.4,-0.75q-0.9,-0.55 -1.4,-0.75q-1.35,-0.5 -2.85,-0.2q-0.4,0 -0.5,-0.05q-0.15,-0.15 -0.15,-0.5q0.1,-0.7 0.35,-1.25m31.35,18.65q-1,-0.7 -3.1,-1.8q-6.35,-3.4 -11.65,-7.75q7.65,4.25 20.65,12.7q1.3,0.75 2.75,1.8q3.8,2.6 6.65,5q-2.45,0.45 -5.1,0.2q-1.55,-0.1 -2.4,-0.7q-0.6,-0.45 -1.1,-1.35q-0.5,-1.15 -0.8,-1.7q-0.85,-1.7 -3.6,-4.35q-1.75,-1.65 -2.3,-2.05z" fill="#ffffff"/>
  </g>
 </defs>
 <g>
  <title>Layer 1</title>
  <g stroke="null" id="svg_2">
   <use transform="matrix(0.882853 0 0 0.882853 0 0)" stroke="null" x="-86.57777" y="-26.22143" id="svg_3" xlink:href="#Layer0_0_FILL"/>
  </g>
 </g>
</svg>